{"glyphs":{"0":{"ha":1669,"x_min":133,"x_max":1479,"o":"m 524 0 q 372 31 443 0 q 248 115 301 61 q 164 239 194 168 q 133 390 133 310 l 133 550 q 164 701 133 631 q 248 826 194 772 q 372 910 301 879 q 524 940 443 940 l 1088 940 q 1240 910 1168 940 q 1365 826 1311 879 q 1449 701 1418 772 q 1479 550 1479 631 l 1479 390 q 1449 239 1479 310 q 1365 115 1418 168 q 1240 31 1311 61 q 1088 0 1168 0 l 524 0 m 292 390 q 310 301 292 343 q 360 227 329 258 q 434 178 392 196 q 524 160 476 160 l 1088 160 q 1177 178 1135 160 q 1251 227 1219 196 q 1301 301 1283 258 q 1319 390 1319 343 l 1319 550 q 1301 640 1319 597 q 1251 713 1283 682 q 1177 763 1219 744 q 1088 782 1135 782 l 524 782 q 434 763 476 782 q 360 713 392 744 q 310 640 329 682 q 292 550 292 597 l 292 390 z "},"1":{"ha":586,"x_min":61,"x_max":422,"o":"m 264 0 l 264 743 q 247 768 260 758 q 218 781 233 778 l 61 781 l 61 939 l 224 939 q 297 922 261 939 q 359 879 332 906 q 403 819 386 853 q 422 753 421 786 l 422 0 l 264 0 z "},"2":{"ha":1575,"x_min":131,"x_max":1429,"o":"m 131 0 l 131 242 q 149 324 131 286 q 197 393 167 363 q 265 444 226 424 q 347 472 304 464 q 494 496 415 483 q 657 521 574 508 q 823 546 740 533 q 981 569 906 558 q 1121 590 1057 581 q 1231 606 1185 599 q 1249 611 1240 608 q 1263 619 1257 614 q 1264 622 1264 622 l 1264 742 q 1235 770 1256 761 q 1183 781 1214 779 l 367 781 q 338 777 356 781 q 311 767 321 774 q 297 747 301 758 q 292 717 293 736 l 292 575 l 133 575 l 133 731 q 153 815 133 776 q 203 881 172 854 q 274 924 235 908 q 356 939 314 939 l 1185 939 q 1269 926 1226 939 q 1344 889 1311 914 q 1399 828 1378 864 q 1424 747 1421 793 l 1424 610 q 1406 540 1424 569 q 1360 491 1388 511 q 1297 459 1332 471 q 1228 442 1261 447 q 1155 432 1192 438 q 1079 421 1118 426 q 897 394 993 408 q 708 366 801 381 q 528 338 614 351 q 376 313 443 325 q 317 287 344 307 q 290 243 290 267 l 290 160 l 1429 160 l 1429 0 l 131 0 z "},"3":{"ha":1586,"x_min":132,"x_max":1422,"o":"m 1422 549 q 1413 501 1419 517 q 1394 471 1406 485 q 1417 428 1413 451 q 1422 379 1422 404 l 1422 188 q 1408 131 1419 160 q 1369 72 1396 103 q 1288 16 1333 32 q 1183 0 1242 0 l 374 0 q 341 3 361 0 q 299 10 321 6 q 255 24 276 15 q 217 44 233 32 q 132 221 132 108 l 132 300 l 290 300 l 290 222 q 294 192 292 203 q 307 174 297 181 q 331 163 318 165 q 358 160 344 160 l 1183 160 q 1238 169 1222 160 q 1255 181 1247 174 q 1263 197 1263 188 l 1263 378 q 1254 387 1263 385 q 1236 389 1246 389 l 303 389 l 303 549 l 1238 549 q 1253 551 1244 549 q 1263 561 1263 554 l 1263 738 q 1235 769 1256 758 q 1192 779 1215 779 l 360 779 q 334 776 349 779 q 310 765 319 772 q 290 717 290 750 l 290 638 l 132 638 l 132 722 q 151 819 132 775 q 211 893 171 863 q 290 928 246 918 q 374 938 333 938 l 1185 938 q 1272 922 1231 936 q 1345 882 1313 907 q 1398 824 1378 857 q 1422 751 1418 790 l 1422 549 z "},"4":{"ha":1536,"x_min":129,"x_max":1360,"o":"m 1360 938 l 1360 1 l 1201 1 l 1201 326 l 208 326 q 133 372 154 326 q 131 386 132 379 q 129 403 129 393 q 151 461 129 439 l 636 938 l 863 938 l 401 485 l 1201 485 l 1201 938 l 1360 938 z "},"5":{"ha":1597,"x_min":132,"x_max":1422,"o":"m 1422 193 q 1390 94 1415 133 q 1360 60 1378 76 q 1318 30 1343 43 q 1260 8 1293 17 q 1183 0 1226 0 l 374 0 q 356 1 374 0 q 310 9 338 3 q 253 30 283 15 q 195 69 222 44 q 150 133 168 94 q 132 226 132 171 l 132 351 l 290 351 l 290 226 q 302 190 290 203 q 329 171 314 178 q 372 160 344 160 l 1183 160 q 1235 169 1208 160 q 1263 199 1263 178 l 1263 415 q 1259 437 1263 422 q 1239 451 1256 451 l 322 451 q 226 486 267 458 q 162 559 192 510 q 132 690 132 608 l 132 938 l 1421 938 l 1421 779 l 290 779 l 290 690 q 296 647 290 663 q 309 624 301 632 q 323 613 317 615 q 331 611 329 611 l 1240 611 q 1289 603 1267 610 q 1331 588 1311 597 l 1329 588 q 1394 528 1365 568 q 1422 415 1422 489 l 1422 193 z "},"6":{"ha":1621,"x_min":132,"x_max":1422,"o":"m 132 750 q 147 806 135 778 q 183 865 158 835 q 266 922 221 906 q 371 938 311 938 l 1196 938 q 1336 896 1265 938 q 1422 717 1422 831 l 1422 638 l 1263 638 l 1263 717 q 1260 743 1263 731 q 1246 764 1257 756 q 1220 776 1235 772 q 1190 779 1206 779 l 371 779 q 317 771 331 779 q 290 740 296 758 l 290 563 l 314 563 l 1242 563 q 1274 558 1246 563 q 1335 534 1303 553 q 1395 478 1368 515 q 1422 378 1422 442 l 1422 215 q 1401 119 1422 163 q 1342 46 1381 76 q 1269 10 1307 19 q 1189 0 1231 0 l 371 0 q 249 24 296 0 q 177 80 203 47 q 142 146 151 113 q 132 200 132 179 l 132 750 m 290 206 q 321 172 299 185 q 372 160 343 160 l 1211 160 q 1256 179 1243 163 q 1260 194 1258 186 q 1263 207 1263 203 l 1263 378 q 1253 400 1263 397 q 1242 403 1244 403 l 307 403 q 297 400 304 403 q 290 378 290 397 l 290 206 z "},"7":{"ha":1464,"x_min":49,"x_max":1306,"o":"m 49 0 l 1138 701 l 1135 699 q 1144 712 1142 703 q 1147 732 1147 721 q 1135 763 1147 750 q 1108 779 1124 775 l 126 779 l 126 938 l 1122 938 q 1256 869 1206 926 q 1306 731 1306 811 q 1286 643 1306 686 q 1226 568 1267 600 l 358 0 l 49 0 z "},"8":{"ha":1586,"x_min":132,"x_max":1422,"o":"m 1422 549 q 1413 501 1419 517 q 1394 471 1406 485 q 1417 428 1413 451 q 1422 379 1422 404 l 1422 188 q 1408 131 1419 160 q 1369 72 1396 103 q 1288 16 1333 32 q 1183 0 1242 0 l 371 0 q 265 16 310 0 q 183 72 219 32 q 147 131 158 103 q 132 188 135 160 l 132 379 q 137 428 132 404 q 158 471 142 451 q 141 501 147 485 q 132 549 135 517 l 132 751 q 156 824 136 790 q 209 883 176 858 q 283 923 242 908 q 369 938 324 938 l 1185 938 q 1272 922 1231 936 q 1345 882 1313 907 q 1398 824 1378 857 q 1422 751 1418 790 l 1422 549 m 1263 378 q 1254 387 1263 385 q 1236 389 1246 389 l 317 389 q 299 387 307 389 q 290 378 290 385 l 290 197 q 298 181 290 188 q 315 169 306 174 q 371 160 331 160 l 1183 160 q 1238 169 1222 160 q 1253 181 1246 175 q 1263 197 1261 188 l 1263 378 m 1240 549 q 1255 552 1247 549 q 1263 563 1263 556 l 1263 738 q 1235 769 1256 758 q 1192 779 1215 779 l 361 779 q 317 769 338 779 q 290 738 297 758 l 290 561 q 299 551 290 554 q 317 549 308 549 l 1240 549 z "},"9":{"ha":1615,"x_min":132,"x_max":1422,"o":"m 1263 376 l 1261 376 l 1263 376 m 1422 188 q 1408 131 1419 160 q 1369 72 1396 103 q 1288 16 1333 32 q 1183 0 1242 0 l 358 0 q 287 10 324 0 q 217 42 250 19 q 132 221 132 106 l 132 300 l 290 300 l 290 221 q 293 193 290 206 q 307 174 296 181 q 333 163 318 165 q 364 160 349 160 l 1183 160 q 1236 168 1226 160 q 1263 199 1260 181 l 1263 375 l 1240 375 l 313 375 q 280 380 308 375 q 219 403 251 385 q 159 460 186 422 q 132 561 132 497 l 132 722 q 153 819 132 775 q 213 893 174 863 q 285 928 247 918 q 365 938 324 938 l 1183 938 q 1305 914 1258 938 q 1377 858 1351 890 q 1413 793 1403 826 q 1422 739 1422 760 l 1422 188 m 1263 732 q 1233 766 1256 753 q 1182 779 1210 779 l 343 779 q 306 765 321 779 q 290 731 290 750 l 290 561 q 300 538 290 542 q 313 535 310 535 l 1247 535 q 1256 538 1249 535 q 1263 561 1263 542 l 1263 732 z "}," ":{"ha":521,"x_min":0,"x_max":0,"o":""},"#":{"ha":1049,"x_min":110,"x_max":849,"o":"m 849 350 l 693 350 l 693 188 l 535 188 l 535 350 l 424 350 l 424 188 l 265 188 l 265 350 l 110 350 l 110 508 l 265 508 l 265 618 l 110 618 l 110 776 l 265 776 l 265 938 l 424 938 l 424 776 l 535 776 l 535 938 l 693 938 l 693 776 l 849 776 l 849 618 l 693 618 l 693 508 l 849 508 l 849 350 m 535 508 l 535 618 l 424 618 l 424 508 l 535 508 z "},"$":{"ha":1431,"x_min":126,"x_max":1229,"o":"m 956 549 q 1063 527 1013 549 q 1149 469 1113 506 q 1208 382 1186 432 q 1229 275 1229 332 q 1208 168 1229 218 q 1149 81 1186 118 q 1063 22 1113 43 q 956 0 1013 0 l 908 0 l 908 -107 l 750 -107 l 750 0 l 654 0 l 654 -107 l 496 -107 l 496 0 l 126 0 l 126 160 l 496 160 l 496 390 l 403 390 q 297 412 346 390 q 210 470 247 433 q 151 557 172 507 q 129 664 129 607 q 151 772 129 722 q 209 859 172 822 q 296 917 246 896 q 403 938 346 938 l 496 938 l 496 1044 l 654 1044 l 654 938 l 750 938 l 750 1044 l 908 1044 l 908 938 l 1219 938 l 1219 779 l 908 779 l 908 549 l 956 549 m 654 779 l 654 549 l 750 549 l 750 779 l 654 779 m 496 549 l 496 779 l 403 779 q 323 747 354 779 q 289 669 292 714 q 324 583 292 618 q 403 549 356 549 l 496 549 m 750 160 l 750 390 l 654 390 l 654 160 l 750 160 m 956 160 q 1036 193 1003 160 q 1069 274 1069 226 q 1037 356 1069 322 q 956 390 1004 390 l 908 390 l 908 160 l 956 160 z "},"%":{"ha":1575,"x_min":93,"x_max":1438,"o":"m 364 -14 l 981 957 l 1161 957 l 544 -14 l 364 -14 m 999 0 q 913 17 953 0 q 843 63 872 33 q 797 134 814 93 q 779 219 779 175 l 779 239 q 797 324 779 285 q 843 394 814 364 q 913 442 872 425 q 999 460 953 460 l 1217 460 q 1303 442 1263 460 q 1373 395 1343 425 q 1420 325 1403 365 q 1438 239 1438 285 l 1438 219 q 1420 135 1438 175 q 1373 65 1403 94 q 1303 17 1343 35 q 1217 0 1263 0 l 999 0 m 950 288 q 929 239 929 267 l 929 219 q 950 171 929 192 q 999 150 971 150 l 1217 150 q 1266 171 1246 150 q 1286 219 1286 192 l 1286 239 q 1266 289 1286 268 q 1217 310 1246 310 l 999 310 q 950 288 972 310 m 313 485 q 228 501 268 485 q 158 549 188 518 q 110 619 128 578 q 93 704 93 660 l 93 724 q 110 809 93 769 q 157 879 128 849 q 226 927 186 910 q 313 944 267 944 l 532 944 q 617 927 578 944 q 687 880 657 910 q 734 810 717 850 q 751 724 751 769 l 751 704 q 734 619 751 660 q 688 549 717 579 q 618 502 658 519 q 532 485 578 485 l 313 485 m 264 772 q 243 724 243 751 l 243 704 q 264 656 243 676 q 313 635 285 635 l 532 635 q 581 656 560 635 q 601 704 601 676 l 601 724 q 581 774 601 753 q 532 794 560 794 l 313 794 q 264 772 286 794 z "},"&":{"ha":1575,"x_min":119,"x_max":1454,"o":"m 1454 565 l 1454 407 l 1326 407 l 1326 0 l 417 0 q 295 22 350 0 q 201 83 240 44 q 141 172 163 121 q 119 283 119 224 q 143 391 119 340 q 207 481 167 442 q 142 567 164 517 q 119 674 119 618 q 150 803 119 751 q 226 884 181 854 q 324 926 272 914 q 419 938 376 938 l 1321 938 l 1321 779 l 419 779 q 368 772 393 779 q 323 751 343 764 q 291 717 303 738 q 279 672 279 697 q 292 627 279 647 q 324 594 304 607 q 367 573 343 581 q 415 565 392 565 l 1454 565 m 1168 406 l 414 406 q 362 396 386 406 q 319 369 338 386 q 290 329 300 351 q 279 282 279 307 q 285 252 279 272 q 307 211 292 232 q 348 175 322 190 q 414 160 374 160 l 1168 160 l 1168 406 z "},"’":{"ha":397,"x_min":69,"x_max":336,"o":"m 69 603 l 164 947 l 336 947 l 242 603 l 69 603 z "},"(":{"ha":660,"x_min":114,"x_max":485,"o":"m 317 -78 q 214 -44 258 -78 q 144 35 169 -11 q 122 96 131 63 q 114 163 114 129 l 114 776 q 128 866 114 825 q 165 939 142 907 q 233 997 193 975 q 317 1018 272 1018 l 485 1018 l 485 858 l 317 858 q 286 829 297 853 q 276 804 279 817 q 274 776 274 792 l 274 163 q 279 126 274 143 q 293 99 285 110 l 293 97 q 317 81 306 85 l 485 81 l 485 -78 l 317 -78 z "},")":{"ha":665,"x_min":114,"x_max":485,"o":"m 114 -78 l 114 81 l 282 81 q 294 88 288 83 q 306 97 301 92 q 320 126 314 108 q 326 163 326 143 l 326 776 q 314 829 326 804 q 298 848 307 840 q 282 858 289 856 l 114 858 l 114 1018 l 282 1018 q 367 997 328 1018 q 433 939 406 975 q 485 776 485 872 l 485 163 q 456 35 485 93 q 385 -45 429 -12 q 282 -78 342 -78 l 114 -78 z "},"*":{"ha":665,"x_min":57,"x_max":576,"o":"m 576 658 l 481 658 q 517 621 497 640 q 547 590 536 601 l 451 493 l 383 561 l 383 467 l 247 467 l 247 563 q 211 527 231 546 q 179 496 192 508 l 82 592 l 150 660 l 57 660 l 57 797 l 154 797 q 117 833 136 815 q 85 865 99 851 l 182 963 l 251 893 l 251 988 l 386 988 l 386 892 l 454 960 l 551 863 l 482 793 l 576 793 l 576 658 z "},"+":{"ha":951,"x_min":92,"x_max":785,"o":"m 785 399 l 511 399 l 511 125 l 367 125 l 367 399 l 92 399 l 92 543 l 367 543 l 367 818 l 511 818 l 511 543 l 785 543 l 785 399 z "},",":{"ha":389,"x_min":75,"x_max":293,"o":"m 75 -107 l 119 176 l 293 176 l 247 -107 l 75 -107 z "},"-":{"ha":938,"x_min":90,"x_max":804,"o":"m 90 550 l 804 550 l 804 411 l 90 411 l 90 550 z "},"­":{"ha":938,"x_min":90,"x_max":804,"o":"m 90 550 l 804 550 l 804 411 l 90 411 l 90 550 z "},".":{"ha":378,"x_min":104,"x_max":275,"o":"m 104 0 l 104 176 l 275 176 l 275 0 l 104 0 z "},"/":{"ha":825,"x_min":61,"x_max":772,"o":"m 61 -64 l 607 1007 l 772 1007 l 226 -64 l 61 -64 z "},":":{"ha":378,"x_min":104,"x_max":268,"o":"m 268 219 l 268 0 l 104 0 l 104 219 l 268 219 m 268 586 l 268 367 l 104 367 l 104 586 l 268 586 z "},";":{"ha":424,"x_min":69,"x_max":313,"o":"m 133 368 l 133 543 l 313 543 l 313 368 l 133 368 m 69 -144 l 156 175 l 301 175 l 217 -144 l 69 -144 z "},";":{"ha":424,"x_min":69,"x_max":313,"o":"m 133 368 l 133 543 l 313 543 l 313 368 l 133 368 m 69 -144 l 156 175 l 301 175 l 217 -144 l 69 -144 z "},"<":{"ha":868,"x_min":78,"x_max":778,"o":"m 78 428 l 78 551 l 772 901 l 772 724 l 308 490 q 544 372 426 431 q 778 256 663 314 l 772 81 l 78 428 z "},"=":{"ha":938,"x_min":90,"x_max":792,"o":"m 90 411 l 792 411 l 792 260 l 90 260 l 90 411 m 90 664 l 792 664 l 792 513 l 90 513 l 90 664 z "},">":{"ha":857,"x_min":78,"x_max":776,"o":"m 83 81 l 78 256 l 547 490 q 313 607 431 549 q 82 724 194 665 l 82 901 l 776 551 l 776 428 l 83 81 z "},"?":{"ha":1438,"x_min":128,"x_max":1279,"o":"m 1121 719 q 1119 733 1121 724 q 1109 753 1117 743 q 1085 772 1101 764 q 1042 779 1069 779 l 367 779 q 323 771 339 779 q 299 752 307 763 q 290 731 292 742 q 288 717 288 721 l 288 574 l 128 574 l 128 717 q 157 839 128 794 q 225 905 186 883 q 302 932 264 926 q 360 938 340 938 l 1042 938 q 1071 936 1050 938 q 1118 928 1092 935 q 1173 907 1144 921 q 1225 869 1201 893 q 1264 807 1249 844 q 1279 717 1279 769 l 1279 618 q 1251 518 1279 553 q 1188 465 1222 483 l 1189 465 q 1147 449 1169 454 q 1100 443 1124 444 l 736 443 q 695 434 710 443 q 674 413 681 425 q 665 389 667 400 q 664 374 664 378 l 664 218 l 504 218 l 504 374 q 535 502 504 456 q 607 571 567 549 q 685 598 647 593 q 736 603 722 603 l 1093 603 q 1102 606 1096 604 q 1111 608 1108 607 l 1107 606 q 1116 613 1111 608 q 1121 626 1121 618 l 1121 719 m 506 0 l 506 206 l 665 206 l 665 0 l 506 0 z "},"@":{"ha":1531,"x_min":129,"x_max":1317,"o":"m 479 438 q 528 417 497 417 l 965 417 q 958 479 958 449 l 958 535 q 938 585 958 564 q 888 604 918 604 l 528 604 q 479 585 499 604 q 457 535 457 563 l 457 486 q 479 438 457 460 m 349 85 q 263 102 303 85 q 193 149 222 119 q 147 217 164 178 q 129 306 129 257 l 129 717 q 147 805 129 765 q 193 874 164 844 q 263 920 222 903 q 349 938 303 938 l 1097 938 q 1183 920 1142 938 q 1253 874 1224 903 q 1299 805 1282 844 q 1317 717 1317 765 l 1317 479 q 1290 365 1317 414 l 1290 367 q 1231 292 1268 325 q 1140 260 1193 260 q 1061 279 1097 260 q 1001 333 1025 299 q 984 363 992 349 q 971 394 976 378 l 971 265 l 528 265 q 440 283 479 265 q 371 329 400 300 q 324 399 340 358 q 307 486 307 440 l 307 535 q 324 622 307 581 q 371 692 340 663 q 440 739 400 721 q 528 757 479 757 l 888 757 q 974 739 933 757 q 1044 692 1015 721 q 1090 622 1074 663 q 1107 535 1107 581 l 1107 481 q 1115 440 1108 458 q 1138 410 1122 421 q 1143 407 1140 407 q 1139 410 1138 410 q 1159 438 1154 421 q 1167 482 1164 456 l 1167 717 q 1146 767 1167 746 q 1097 786 1126 786 l 349 786 q 300 767 319 786 q 279 717 279 747 l 279 306 q 300 256 279 274 q 349 235 318 235 l 1307 235 l 1307 85 l 349 85 z "},"[":{"ha":571,"x_min":108,"x_max":432,"o":"m 108 -94 l 108 1033 l 419 1033 l 419 874 l 268 874 l 268 64 l 432 64 l 432 -94 l 108 -94 z "},"\\":{"ha":803,"x_min":29,"x_max":736,"o":"m 736 -62 l 582 -62 l 29 1010 l 183 1010 l 736 -62 z "},"]":{"ha":614,"x_min":107,"x_max":432,"o":"m 108 -94 l 108 64 l 272 64 l 272 874 l 107 874 l 107 1033 l 432 1033 l 432 -94 l 108 -94 z "},"^":{"ha":906,"x_min":18,"x_max":846,"o":"m 499 947 l 846 301 l 689 301 l 432 785 q 303 542 369 667 q 176 301 238 418 l 18 301 l 365 947 l 499 947 z "},"_":{"ha":1389,"x_min":0,"x_max":1326,"o":"m 0 -25 l 1326 -25 l 1326 -164 l 0 -164 l 0 -25 z "},"‘":{"ha":397,"x_min":69,"x_max":336,"o":"m 164 603 l 69 947 l 242 947 l 336 603 l 164 603 z "},"a":{"ha":1535,"x_min":129,"x_max":1343,"o":"m 440 0 q 268 49 344 0 q 154 181 192 99 q 136 237 143 207 q 129 299 129 267 q 154 415 129 361 q 222 510 179 469 q 319 574 264 551 q 436 597 375 597 l 1185 597 l 1185 625 q 1172 684 1185 656 q 1138 733 1160 713 q 1088 767 1117 754 q 1029 779 1060 779 l 335 779 l 335 938 l 1029 938 q 1151 913 1094 938 q 1251 847 1208 889 q 1319 747 1294 804 q 1343 625 1343 690 l 1343 -1 l 440 0 m 354 413 q 305 364 322 393 q 288 299 288 335 q 299 244 288 269 q 332 199 311 218 q 380 170 353 181 q 436 160 407 160 l 1182 160 l 1182 438 l 440 438 q 395 431 417 438 q 356 413 374 424 l 354 413 z "},"b":{"ha":1535,"x_min":122,"x_max":1367,"o":"m 1367 683 q 1342 578 1367 626 q 1275 494 1318 531 q 1342 401 1317 454 q 1367 290 1367 349 q 1342 176 1367 229 q 1275 84 1317 124 q 1178 22 1233 44 q 1061 0 1122 0 l 122 0 l 122 956 l 1057 956 q 1142 945 1100 956 q 1222 914 1185 935 q 1290 863 1260 893 q 1339 793 1319 832 q 1367 683 1367 738 m 286 574 l 1063 574 q 1113 580 1088 574 q 1158 599 1138 586 q 1190 631 1178 611 q 1203 675 1203 650 q 1190 721 1203 700 q 1157 756 1178 742 q 1110 777 1136 769 q 1057 785 1083 785 l 286 785 l 286 574 m 1193 243 q 1203 289 1203 263 q 1192 338 1203 315 q 1162 378 1181 361 q 1117 406 1143 396 q 1064 417 1092 417 l 286 417 l 286 164 l 1064 164 q 1141 185 1104 164 q 1193 243 1178 207 z "},"c":{"ha":1436,"x_min":122,"x_max":1314,"o":"m 240 117 q 153 244 185 171 q 122 400 122 317 l 122 549 q 154 705 122 632 q 240 832 186 778 q 367 918 294 886 q 524 950 440 950 l 1314 950 l 1314 786 l 524 786 q 431 767 475 786 q 355 716 388 749 q 303 640 322 683 q 285 549 285 597 l 285 400 q 303 309 285 351 q 354 234 322 267 q 429 183 386 201 q 521 164 472 164 l 1314 164 l 1314 0 l 524 0 q 367 32 440 0 q 240 117 293 64 z "},"d":{"ha":1454,"x_min":122,"x_max":1400,"o":"m 122 942 l 999 942 q 1155 910 1082 942 q 1282 823 1228 878 q 1368 695 1336 768 q 1400 540 1400 622 l 1400 400 q 1368 245 1400 318 q 1281 118 1336 172 q 1153 32 1226 64 q 999 0 1081 0 l 122 0 l 122 942 m 1236 543 q 1217 633 1236 590 q 1166 708 1199 675 q 1090 759 1133 740 q 999 778 1047 778 l 286 778 l 286 164 l 1001 164 q 1092 183 1049 164 q 1167 233 1135 201 q 1217 308 1199 265 q 1236 400 1236 351 l 1236 543 z "},"e":{"ha":1511,"x_min":131,"x_max":1343,"o":"m 131 642 q 156 758 131 704 q 226 852 182 813 q 326 915 269 892 q 444 938 382 938 l 1035 938 q 1152 914 1096 938 q 1251 849 1208 890 q 1318 754 1293 808 q 1343 638 1343 700 q 1317 520 1343 575 q 1249 425 1292 465 q 1150 362 1207 385 q 1031 339 1093 339 l 290 339 l 290 256 q 345 183 300 207 q 444 160 390 160 l 1276 160 l 1276 0 l 438 0 q 331 17 385 0 q 233 66 276 33 q 160 144 189 99 q 131 249 132 190 l 131 642 m 444 778 q 394 767 421 778 q 344 739 367 757 q 306 696 321 721 q 290 642 290 671 l 290 497 l 1035 497 q 1092 508 1065 497 q 1140 538 1119 519 q 1173 583 1161 557 q 1185 638 1185 608 q 1172 692 1185 667 q 1138 737 1160 718 q 1089 767 1117 756 q 1031 778 1061 778 l 444 778 z "},"f":{"ha":1435,"x_min":122,"x_max":1313,"o":"m 354 703 q 303 628 321 671 q 285 535 285 586 l 285 532 l 1254 532 l 1254 369 l 285 369 l 285 0 l 122 0 l 122 535 q 153 692 122 619 q 239 819 185 765 q 366 906 293 874 q 522 938 439 938 l 1313 938 l 1313 774 l 522 774 q 431 755 474 774 q 356 703 389 736 l 354 703 z "},"h":{"ha":1413,"x_min":128,"x_max":1267,"o":"m 1151 824 q 1235 700 1204 771 q 1267 547 1267 629 l 1267 0 l 1108 0 l 1108 547 q 1090 637 1108 594 q 1040 710 1071 679 q 965 760 1008 742 q 875 779 922 779 l 518 779 q 428 760 471 779 q 355 710 386 742 q 306 637 324 679 q 288 547 288 594 l 288 0 l 128 0 l 128 1147 l 288 1147 l 288 863 q 394 918 336 899 q 518 938 451 938 l 875 938 q 1028 907 957 938 q 1151 824 1099 876 z "},"i":{"ha":368,"x_min":104,"x_max":267,"o":"m 104 0 l 104 938 l 267 938 l 267 0 l 104 0 z "},"j":{"ha":1472,"x_min":128,"x_max":1267,"o":"m 285 938 l 1267 938 l 1267 390 q 1235 238 1267 308 q 1151 114 1204 167 q 1028 31 1099 61 q 876 0 958 0 l 519 0 q 366 31 436 0 q 243 114 296 61 q 159 238 190 167 q 128 390 128 308 l 128 496 l 288 496 l 288 390 q 306 301 288 343 q 355 228 324 260 q 428 178 386 197 q 517 160 469 160 l 876 160 q 965 178 924 160 q 1039 227 1007 196 q 1090 300 1071 258 q 1108 388 1108 342 l 1108 779 l 285 779 l 285 938 z "},"k":{"ha":1510,"x_min":131,"x_max":1382,"o":"m 1028 536 q 1139 482 1088 518 q 1227 397 1190 446 q 1285 288 1264 347 q 1306 161 1306 228 l 1306 0 l 1146 0 l 1146 164 q 1127 251 1146 210 q 1077 324 1108 293 q 1004 374 1046 356 q 915 393 963 393 l 290 393 l 290 0 l 131 0 l 131 939 l 290 939 l 290 553 l 831 553 q 999 747 911 649 q 1167 940 1086 844 l 1382 940 l 1028 536 z "},"l":{"ha":1346,"x_min":128,"x_max":1288,"o":"m 288 938 l 288 392 q 354 229 288 292 q 518 160 424 160 l 1288 160 l 1288 0 l 518 0 q 365 31 436 0 q 242 115 294 63 q 158 238 189 168 q 128 392 128 308 l 128 938 l 288 938 z "},"m":{"ha":2094,"x_min":143,"x_max":1903,"o":"m 1513 938 q 1664 907 1593 938 q 1788 823 1735 876 q 1872 699 1840 769 q 1903 547 1903 628 l 1903 0 l 1743 0 l 1743 547 q 1725 636 1743 594 q 1676 710 1707 678 q 1603 760 1644 742 q 1514 779 1561 779 l 1061 779 l 1061 0 l 903 0 l 903 779 l 303 779 l 303 0 l 143 0 l 143 938 l 1513 938 z "},"n":{"ha":1413,"x_min":128,"x_max":1267,"o":"m 876 938 q 1028 907 957 938 q 1152 823 1099 876 q 1236 699 1206 769 q 1267 547 1267 628 l 1267 0 l 1108 0 l 1108 547 q 1090 636 1108 594 q 1040 710 1071 678 q 967 760 1008 742 q 879 779 925 779 l 288 779 l 288 0 l 128 0 l 128 938 l 876 938 z "},"p":{"ha":1543,"x_min":131,"x_max":1389,"o":"m 292 0 l 131 0 l 131 940 l 1082 940 q 1197 915 1142 940 q 1296 849 1253 890 q 1364 751 1339 807 q 1389 635 1389 696 q 1363 517 1389 572 q 1294 420 1338 461 q 1193 355 1250 379 q 1075 331 1136 331 l 292 331 l 292 0 m 1078 494 q 1135 506 1108 494 q 1183 535 1163 517 q 1215 581 1203 554 q 1229 636 1228 607 q 1215 691 1228 665 q 1181 735 1201 717 q 1133 765 1160 754 q 1075 776 1106 776 l 292 776 l 292 494 l 1078 494 z "},"q":{"ha":1733,"x_min":135,"x_max":1565,"o":"m 767 -189 l 767 0 l 525 0 q 374 31 444 0 q 249 115 303 61 q 165 239 196 168 q 135 390 135 310 l 135 574 q 165 725 135 654 q 249 849 196 796 q 374 933 303 903 q 525 964 444 964 l 1174 964 q 1326 933 1254 964 q 1451 849 1397 903 q 1535 725 1504 796 q 1565 574 1565 654 l 1565 390 q 1535 239 1565 310 q 1451 115 1504 168 q 1326 31 1397 61 q 1174 0 1254 0 l 925 0 l 925 -189 l 767 -189 m 294 394 q 313 305 294 347 q 362 231 331 263 q 435 182 393 200 q 525 164 478 164 l 767 164 l 767 336 l 925 336 l 925 164 l 1174 164 q 1264 182 1221 164 q 1338 231 1307 200 q 1388 305 1369 263 q 1407 394 1407 347 l 1407 569 q 1388 659 1407 617 q 1338 733 1369 701 q 1264 783 1307 764 q 1174 801 1221 801 l 525 801 q 435 783 478 801 q 362 733 393 764 q 313 659 331 701 q 294 569 294 617 l 294 394 z "},"r":{"ha":1236,"x_min":126,"x_max":1197,"o":"m 126 0 l 126 550 q 157 701 126 631 q 241 825 188 772 q 365 908 294 878 q 517 939 436 939 l 1197 939 l 1197 781 l 517 781 q 427 762 469 781 q 353 712 385 743 q 303 639 322 681 q 285 550 285 597 l 285 0 l 126 0 z "},"s":{"ha":1414,"x_min":71,"x_max":1292,"o":"m 121 0 l 121 164 l 1010 164 q 1093 199 1058 164 q 1128 282 1128 233 q 1094 355 1128 331 q 1010 379 1060 379 l 353 379 q 244 401 294 379 q 154 462 193 424 q 93 551 115 500 q 71 661 71 603 q 93 772 71 719 q 153 862 115 824 q 243 922 192 900 q 353 944 294 944 l 1242 944 l 1242 782 l 353 782 q 270 748 303 782 q 235 667 238 714 q 272 578 239 614 q 353 543 304 543 l 1010 543 q 1119 524 1068 543 q 1209 472 1171 506 q 1269 389 1247 438 q 1292 282 1292 340 q 1269 172 1292 224 q 1209 83 1247 121 q 1119 22 1171 44 q 1010 0 1068 0 l 121 0 z "},"t":{"ha":1449,"x_min":128,"x_max":1288,"o":"m 1124 658 l 288 658 l 288 392 q 354 229 288 292 q 518 160 424 160 l 1288 160 l 1288 0 l 518 0 q 365 31 436 0 q 242 115 294 63 q 158 238 189 168 q 128 392 128 308 l 128 939 l 288 939 l 288 817 l 1124 817 l 1124 658 z "},"u":{"ha":1432,"x_min":128,"x_max":1267,"o":"m 518 0 q 367 31 438 0 q 242 115 296 61 q 158 239 189 168 q 128 392 128 310 l 128 940 l 288 940 l 288 392 q 306 303 288 344 q 355 229 324 261 q 428 178 386 197 q 515 160 469 160 l 1108 160 l 1108 940 l 1267 940 l 1267 0 l 518 0 z "},"v":{"ha":1628,"x_min":-10,"x_max":1500,"o":"m 700 0 l -10 940 l 189 940 l 742 206 q 1022 574 881 388 q 1300 940 1163 760 l 1500 940 l 783 0 l 700 0 z "},"w":{"ha":2094,"x_min":143,"x_max":1903,"o":"m 533 0 q 382 31 453 0 q 258 115 311 61 q 174 239 204 168 q 143 392 143 310 l 143 938 l 303 938 l 303 392 q 321 303 303 344 q 370 229 339 261 q 443 178 401 197 q 531 160 485 160 l 985 160 l 985 938 l 1143 938 l 1143 160 l 1743 160 l 1743 938 l 1903 938 l 1903 0 l 533 0 z "},"x":{"ha":1413,"x_min":122,"x_max":1290,"o":"m 1174 439 q 1259 312 1228 385 q 1290 154 1290 239 l 1290 0 l 1128 0 l 1128 154 q 1109 246 1128 203 q 1058 322 1090 289 q 983 373 1026 354 q 892 392 940 392 l 522 392 q 431 373 474 392 q 356 322 388 354 q 304 247 324 290 q 285 157 285 204 l 285 0 l 122 0 l 122 154 q 153 312 122 239 q 239 439 185 385 q 259 457 250 449 q 279 474 268 465 q 259 491 268 483 q 239 510 250 499 l 239 508 q 153 624 185 564 q 122 769 122 685 l 122 940 l 285 940 l 285 769 q 303 681 285 721 q 354 614 322 642 q 429 571 386 586 q 521 556 472 556 l 901 556 q 988 571 947 556 q 1060 614 1029 586 q 1110 681 1092 642 q 1128 767 1128 719 l 1128 940 l 1290 940 l 1290 769 q 1259 624 1290 685 q 1174 508 1228 564 q 1153 490 1163 499 q 1133 474 1143 482 q 1153 457 1143 467 q 1172 440 1163 447 l 1174 439 z "},"y":{"ha":1413,"x_min":128,"x_max":1267,"o":"m 1267 938 l 1267 390 q 1236 239 1267 310 q 1152 115 1206 168 q 1028 31 1099 61 q 876 0 957 0 l 196 0 l 196 160 l 876 160 q 963 177 922 160 q 1035 224 1004 194 q 1086 293 1067 253 q 1108 379 1106 333 l 518 379 q 367 410 438 379 q 242 494 296 440 q 158 618 189 547 q 128 771 128 689 l 128 938 l 288 938 l 288 771 q 306 681 288 724 q 355 607 324 639 q 428 556 386 575 q 515 538 469 538 l 1108 538 l 1108 938 l 1267 938 z "},"z":{"ha":1571,"x_min":133,"x_max":1418,"o":"m 133 0 l 133 146 l 1094 779 l 135 779 l 135 938 l 1418 938 l 1418 799 l 442 160 l 1400 160 l 1400 0 l 133 0 z "},"{":{"ha":869,"x_min":43,"x_max":714,"o":"m 436 225 q 440 153 436 182 q 458 108 444 125 q 497 85 471 92 q 565 78 522 78 l 714 78 l 714 -62 l 546 -62 q 420 -47 469 -62 q 342 3 371 -31 q 301 89 313 38 q 290 211 290 140 l 290 340 q 272 399 290 379 q 200 419 253 419 l 43 419 l 43 556 l 200 556 q 272 576 253 556 q 290 633 290 596 l 290 736 q 301 858 290 807 q 342 943 313 910 q 420 993 371 976 q 546 1010 469 1010 l 714 1010 l 714 868 l 565 868 q 497 862 522 868 q 458 839 471 856 q 440 794 444 822 q 436 722 436 765 l 436 626 q 423 540 436 574 q 383 488 410 507 q 436 349 436 451 l 436 225 z "},"|":{"ha":590,"x_min":210,"x_max":354,"o":"m 210 1010 l 354 1010 l 354 -62 l 210 -62 l 210 1010 z "},"}":{"ha":869,"x_min":117,"x_max":786,"o":"m 394 349 q 407 435 394 401 q 447 488 419 468 q 407 540 419 507 q 394 626 394 574 l 394 722 q 390 794 394 765 q 372 839 386 822 q 333 862 358 856 q 264 868 307 868 l 117 868 l 117 1010 l 285 1010 q 410 993 361 1010 q 488 943 460 976 q 528 858 517 910 q 539 736 539 807 l 539 633 q 556 578 539 597 q 618 556 572 558 l 786 556 l 786 419 l 631 419 q 558 399 578 419 q 539 340 539 379 l 539 211 q 528 89 539 140 q 488 3 517 38 q 410 -47 460 -31 q 285 -62 361 -62 l 117 -62 l 117 78 l 264 78 q 333 85 307 78 q 372 108 358 92 q 390 153 386 125 q 394 225 394 182 l 394 349 z "},"~":{"ha":979,"x_min":119,"x_max":917,"o":"m 758 590 q 625 625 689 590 l 626 625 q 479 700 551 661 q 332 775 407 739 q 285 789 306 789 q 281 785 282 789 q 279 767 279 782 l 279 611 l 119 611 l 119 757 q 164 893 119 842 q 278 938 208 938 q 410 903 340 938 q 558 828 481 867 q 706 753 635 789 q 751 738 736 738 q 756 742 754 738 q 757 760 757 746 l 757 917 l 917 917 l 917 769 q 872 635 917 683 q 758 590 829 590 z "},"¡":{"ha":540,"x_min":183,"x_max":333,"o":"m 183 0 l 183 682 l 333 682 l 333 0 l 183 0 m 183 728 l 183 947 l 333 947 l 333 728 l 183 728 z "},"£":{"ha":1564,"x_min":160,"x_max":1360,"o":"m 1360 160 l 1360 0 l 160 0 l 160 160 q 233 163 204 160 q 277 178 261 167 q 299 210 293 189 q 306 269 306 232 l 182 269 l 182 579 l 307 579 q 344 722 311 656 q 428 838 376 789 q 549 916 481 888 q 696 944 618 944 l 1328 944 l 1328 785 l 696 785 q 611 769 651 785 q 540 725 571 753 q 490 660 510 697 q 465 579 469 622 l 1142 579 l 1142 269 l 464 269 q 459 209 463 235 q 449 160 456 183 l 1360 160 z "},"⁄":{"ha":1086,"x_min":-10,"x_max":1046,"o":"m 865 947 l 1046 947 l 171 0 l -10 0 l 865 947 z "},"∕":{"ha":1086,"x_min":-10,"x_max":1046,"o":"m 865 947 l 1046 947 l 171 0 l -10 0 l 865 947 z "},"'":{"ha":313,"x_min":76,"x_max":222,"o":"m 76 603 l 76 947 l 222 947 l 222 603 l 76 603 z "},"“":{"ha":661,"x_min":75,"x_max":569,"o":"m 397 603 l 301 947 l 475 947 l 569 603 l 397 603 m 169 603 l 75 947 l 247 947 l 342 603 l 169 603 z "},"ﬁ":{"ha":1638,"x_min":122,"x_max":1539,"o":"m 354 703 q 303 628 321 671 q 285 535 285 586 l 285 532 l 1254 532 l 1254 369 l 285 369 l 285 0 l 122 0 l 122 535 q 153 692 122 619 q 239 819 185 765 q 366 906 293 874 q 522 938 439 938 l 1313 938 l 1313 774 l 522 774 q 431 755 474 774 q 356 703 389 736 l 354 703 m 1376 0 l 1376 938 l 1539 938 l 1539 0 l 1376 0 z "},"–":{"ha":1321,"x_min":100,"x_max":1161,"o":"m 100 550 l 1161 550 l 1161 411 l 100 411 l 100 550 z "},"†":{"ha":715,"x_min":0,"x_max":0,"o":""},"‡":{"ha":715,"x_min":0,"x_max":0,"o":""},"·":{"ha":406,"x_min":104,"x_max":283,"o":"m 104 368 l 104 543 l 283 543 l 283 368 l 104 368 z "},"∙":{"ha":406,"x_min":104,"x_max":283,"o":"m 104 368 l 104 543 l 283 543 l 283 368 l 104 368 z "},"•":{"ha":653,"x_min":85,"x_max":539,"o":"m 85 474 q 102 563 85 521 q 150 635 119 604 q 222 683 181 665 q 311 701 264 701 q 400 683 358 701 q 472 635 442 665 q 521 563 503 604 q 539 474 539 521 q 521 385 539 426 q 472 313 503 343 q 400 264 442 282 q 311 246 358 246 q 222 264 264 246 q 150 313 181 282 q 102 385 119 343 q 85 474 85 426 m 311 579 q 236 549 267 579 q 206 474 206 518 q 236 399 206 429 q 311 368 267 368 q 387 399 356 368 q 418 474 418 429 q 387 549 418 518 q 311 579 356 579 z "},"‚":{"ha":389,"x_min":69,"x_max":301,"o":"m 69 -144 l 156 175 l 301 175 l 215 -144 l 69 -144 z "},"„":{"ha":708,"x_min":76,"x_max":600,"o":"m 76 -144 l 163 175 l 308 175 l 224 -144 l 76 -144 m 367 -144 l 453 175 l 600 175 l 514 -144 l 367 -144 z "},"”":{"ha":682,"x_min":75,"x_max":569,"o":"m 75 603 l 169 947 l 342 947 l 247 603 l 75 603 m 301 603 l 397 947 l 569 947 l 475 603 l 301 603 z "},"…":{"ha":1078,"x_min":107,"x_max":922,"o":"m 107 0 l 107 175 l 286 175 l 286 0 l 107 0 m 425 0 l 425 175 l 604 175 l 604 0 l 425 0 m 743 0 l 743 175 l 922 175 l 922 0 l 743 0 z "},"‰":{"ha":2307,"x_min":82,"x_max":2110,"o":"m 353 -14 l 969 957 l 1150 957 l 533 -14 l 353 -14 m 974 0 q 888 17 928 0 q 818 63 847 33 q 772 134 789 93 q 754 219 754 175 l 754 239 q 772 324 754 285 q 818 394 789 364 q 888 442 847 425 q 974 460 928 460 l 1192 460 q 1277 442 1238 460 q 1347 395 1317 425 q 1394 325 1376 365 q 1411 239 1411 285 l 1411 219 q 1394 135 1411 175 q 1347 65 1376 94 q 1278 17 1318 35 q 1192 0 1238 0 l 974 0 m 924 288 q 904 239 904 268 l 904 219 q 925 171 904 192 q 974 150 946 150 l 1192 150 q 1240 171 1219 150 q 1261 219 1261 192 l 1261 239 q 1240 289 1261 268 q 1192 310 1219 310 l 974 310 q 924 288 946 310 m 301 485 q 217 501 257 485 q 146 549 176 518 q 99 619 117 578 q 82 704 82 660 l 82 724 q 99 809 82 769 q 146 879 117 849 q 215 927 175 910 q 301 944 256 944 l 521 944 q 606 927 567 944 q 676 880 646 910 q 723 810 706 850 q 740 724 740 769 l 740 704 q 723 619 740 660 q 676 549 706 579 q 607 502 647 519 q 521 485 567 485 l 301 485 m 253 772 q 232 724 232 751 l 232 704 q 253 656 232 676 q 301 635 274 635 l 521 635 q 569 656 549 635 q 590 704 590 676 l 590 724 q 569 774 590 753 q 521 794 549 794 l 301 794 q 253 772 275 794 m 1672 0 q 1586 17 1626 0 q 1517 63 1546 33 q 1469 134 1488 93 q 1451 219 1451 175 l 1451 239 q 1469 324 1451 285 q 1516 394 1486 364 q 1586 442 1546 425 q 1672 460 1626 460 l 1890 460 q 1976 442 1936 460 q 2045 395 2015 425 q 2092 325 2075 365 q 2110 239 2110 285 l 2110 219 q 2092 135 2110 175 q 2046 65 2075 94 q 1976 17 2017 35 q 1890 0 1936 0 l 1672 0 m 1622 288 q 1603 239 1603 268 l 1603 219 q 1623 171 1603 192 q 1672 150 1643 150 l 1890 150 q 1939 171 1918 150 q 1960 219 1960 192 l 1960 239 q 1939 289 1960 268 q 1890 310 1918 310 l 1672 310 q 1622 288 1644 310 z "},"¿":{"ha":1438,"x_min":128,"x_max":1279,"o":"m 1121 313 q 1116 324 1121 319 q 1107 332 1111 329 l 1111 329 q 1102 333 1104 332 q 1093 336 1100 335 l 736 336 q 685 341 722 336 q 607 368 647 346 q 535 436 567 390 q 504 564 504 482 l 504 719 l 664 719 l 664 564 q 665 549 664 560 q 674 525 667 538 q 695 503 681 513 q 736 494 710 494 l 1103 494 q 1147 488 1125 493 q 1188 472 1168 482 q 1251 419 1222 454 q 1279 321 1279 385 l 1279 221 q 1264 131 1279 168 q 1225 69 1249 93 q 1173 31 1201 44 q 1118 10 1144 17 q 1071 1 1092 3 q 1042 0 1050 0 l 360 0 q 302 5 340 0 q 225 32 264 10 q 157 99 186 54 q 128 221 128 143 l 128 365 l 288 365 l 288 221 q 290 206 288 217 q 299 185 292 196 q 323 167 307 175 q 367 160 339 160 l 1042 160 q 1085 167 1069 160 q 1109 185 1101 175 q 1119 205 1117 196 q 1121 218 1121 214 l 1121 313 m 665 938 l 665 732 l 506 732 l 506 938 l 665 938 z "},"`":{"ha":724,"x_min":175,"x_max":574,"o":"m 288 1397 l 574 1114 l 460 1000 l 175 1285 l 288 1397 z "},"´":{"ha":724,"x_min":183,"x_max":582,"o":"m 582 1257 l 297 972 l 183 1086 l 469 1369 l 582 1257 z "},"ˆ":{"ha":1089,"x_min":93,"x_max":979,"o":"m 536 1175 q 444 1132 492 1154 q 347 1087 396 1110 q 251 1042 299 1064 q 163 999 204 1019 l 93 1144 l 536 1354 l 979 1144 l 910 999 l 536 1175 z "},"˜":{"ha":921,"x_min":121,"x_max":844,"o":"m 699 904 q 639 912 668 904 q 578 938 610 919 l 579 938 q 445 1004 513 969 q 311 1072 378 1039 q 272 1083 289 1083 q 271 1081 271 1083 l 271 1067 l 271 924 l 121 924 l 121 1068 q 161 1192 121 1144 q 267 1233 203 1233 q 385 1201 321 1233 q 518 1133 450 1169 q 651 1065 586 1097 q 692 1053 676 1053 l 692 1056 q 692 1060 692 1058 q 693 1069 693 1063 l 693 1214 l 844 1214 l 844 1068 q 801 944 844 988 l 801 946 q 699 904 761 904 z "},"¯":{"ha":914,"x_min":115,"x_max":764,"o":"m 115 1189 l 764 1189 l 764 1031 l 115 1031 l 115 1189 z "},"ˉ":{"ha":914,"x_min":115,"x_max":764,"o":"m 115 1189 l 764 1189 l 764 1031 l 115 1031 l 115 1189 z "},"˘":{"ha":953,"x_min":194,"x_max":792,"o":"m 332 1226 l 332 1178 q 347 1139 332 1154 q 386 1124 363 1124 l 597 1124 q 637 1139 621 1124 q 653 1178 653 1154 l 653 1226 l 792 1226 l 792 1178 q 776 1104 792 1139 q 735 1043 761 1069 q 673 1001 708 1017 q 597 986 638 986 l 386 986 q 250 1042 306 986 q 209 1103 224 1068 q 194 1178 194 1138 l 194 1226 l 332 1226 z "},"˙":{"ha":461,"x_min":106,"x_max":335,"o":"m 106 1201 l 335 1201 l 335 1001 l 106 1001 l 106 1201 z "},"¨":{"ha":824,"x_min":114,"x_max":651,"o":"m 114 997 l 114 1174 l 286 1174 l 286 997 l 114 997 m 481 997 l 481 1174 l 651 1174 l 651 997 l 481 997 z "},"˚":{"ha":757,"x_min":111,"x_max":683,"o":"m 303 881 q 167 936 221 881 q 126 997 140 961 q 111 1072 111 1032 l 111 1089 q 126 1163 111 1128 q 167 1226 142 1199 q 228 1268 193 1253 q 303 1283 263 1283 l 490 1283 q 565 1268 529 1283 q 626 1226 600 1253 q 668 1165 653 1200 q 683 1089 683 1129 l 683 1072 q 668 997 683 1032 q 627 937 653 963 q 566 896 601 911 q 490 881 531 881 l 303 881 m 265 1128 q 249 1089 249 1111 l 249 1072 q 264 1033 249 1049 q 303 1018 279 1018 l 490 1018 q 529 1033 513 1018 q 546 1072 546 1049 l 546 1089 q 529 1128 546 1113 q 490 1144 513 1144 l 303 1144 q 265 1128 282 1144 z "},"¸":{"ha":663,"x_min":129,"x_max":488,"o":"m 129 -303 l 129 -150 l 290 -150 q 322 -135 310 -150 q 335 -100 335 -119 l 335 63 l 488 63 l 488 -100 q 472 -175 488 -139 q 428 -240 456 -211 q 365 -285 401 -268 q 285 -303 328 -303 l 129 -303 z "},"˝":{"ha":1072,"x_min":243,"x_max":921,"o":"m 643 1174 l 357 889 l 243 1003 l 529 1286 l 643 1174 m 921 1174 l 635 889 l 521 1003 l 807 1286 l 921 1174 z "},"˛":{"ha":663,"x_min":111,"x_max":561,"o":"m 283 -253 q 219 -241 250 -253 q 165 -208 189 -229 q 126 -158 140 -187 q 111 -92 111 -128 q 134 3 111 -40 q 196 76 157 46 l 196 75 q 214 91 203 81 q 232 107 225 101 l 460 107 l 299 -47 l 300 -47 q 280 -69 289 -58 q 271 -86 271 -79 q 277 -89 274 -87 q 286 -90 281 -90 l 282 -90 q 284 -91 283 -90 q 288 -92 285 -92 l 561 -92 l 561 -253 l 283 -253 z "},"ˇ":{"ha":1089,"x_min":93,"x_max":979,"o":"m 910 1361 l 979 1215 l 536 1007 l 93 1215 l 163 1361 l 536 1183 l 910 1361 z "},"—":{"ha":1707,"x_min":108,"x_max":1521,"o":"m 108 550 l 1521 550 l 1521 411 l 108 411 l 108 550 z "},"Ł":{"ha":1435,"x_min":-69,"x_max":1421,"o":"m 1421 164 l 1421 0 l 632 0 q 474 32 547 0 q 347 118 401 64 q 280 207 307 158 q 240 314 253 256 q 122 247 182 282 q 10 183 63 213 l -69 325 l 231 497 l 231 964 l 394 964 l 394 590 q 553 682 471 635 q 710 769 636 729 l 789 628 l 394 403 l 394 401 q 463 235 394 299 q 632 164 533 164 l 1421 164 z "},"Ø":{"ha":1756,"x_min":125,"x_max":1594,"o":"m 1193 967 q 1349 935 1276 967 q 1476 850 1422 904 q 1563 723 1531 796 q 1594 567 1594 650 l 1594 401 q 1563 247 1594 319 q 1476 119 1531 174 q 1349 33 1422 65 q 1193 1 1276 1 l 526 1 q 370 33 443 1 q 243 119 297 65 q 157 247 189 174 q 125 401 125 319 l 125 567 q 157 723 125 650 q 243 850 189 796 q 370 935 297 904 q 526 967 443 967 l 1193 967 m 289 401 q 298 339 289 369 q 322 282 307 308 q 558 412 443 349 q 788 538 674 475 q 1017 664 901 600 q 1254 796 1132 728 q 1193 804 1225 804 l 526 804 q 434 785 478 804 q 358 734 390 767 q 308 658 326 701 q 289 567 289 615 l 289 401 m 1431 567 q 1421 636 1431 603 q 1392 697 1411 669 q 1152 565 1268 629 q 922 438 1036 501 q 691 310 807 375 q 450 178 575 246 q 487 168 468 171 q 526 165 506 165 l 1193 165 q 1285 184 1242 165 q 1360 235 1328 203 q 1412 310 1393 267 q 1431 401 1431 353 l 1431 567 z "},"Œ":{"ha":2649,"x_min":143,"x_max":2419,"o":"m 1482 560 l 2419 560 l 2419 397 l 1482 397 l 1482 393 q 1501 303 1482 344 q 1552 229 1519 261 q 1628 179 1585 197 q 1719 161 1671 161 l 2419 161 l 2419 -3 l 1719 -3 q 1538 40 1619 -3 q 1400 157 1456 82 q 1261 42 1344 86 q 1081 -3 1178 -3 l 543 -3 q 387 29 460 -3 q 260 115 314 61 q 174 242 206 169 q 143 399 143 315 l 143 563 q 174 719 143 646 q 260 846 206 792 q 387 932 314 900 q 543 964 460 964 l 1081 964 q 1263 921 1181 964 q 1401 803 1346 878 q 1538 917 1457 874 q 1719 961 1619 961 l 2419 961 l 2419 797 l 1719 797 q 1628 779 1671 797 q 1551 728 1586 761 q 1501 655 1519 696 q 1482 565 1483 614 l 1482 560 m 1318 563 q 1299 654 1318 611 q 1248 730 1281 697 q 1172 781 1215 763 q 1081 800 1129 800 l 543 800 q 451 781 494 800 q 376 730 408 763 q 324 654 343 697 q 306 563 306 611 l 306 399 q 324 306 306 350 q 376 231 343 263 q 451 180 408 199 q 543 161 494 161 l 1081 161 q 1172 180 1129 161 q 1248 231 1215 199 q 1299 306 1281 263 q 1318 399 1318 350 l 1318 563 z "},"æ":{"ha":2619,"x_min":142,"x_max":2382,"o":"m 1329 254 q 1384 182 1339 206 q 1483 158 1429 158 l 2315 158 l 2315 -1 l 1476 -1 q 1401 6 1438 -1 q 1329 31 1364 14 l 1329 0 l 454 0 q 282 49 358 0 q 168 181 206 99 q 149 237 157 207 q 142 299 142 267 q 167 415 142 361 q 234 510 192 469 q 332 574 276 551 q 449 597 388 597 l 1169 597 l 1169 625 q 1157 685 1169 657 q 1124 733 1144 713 q 1074 767 1103 754 q 1015 779 1046 779 l 349 779 l 349 938 l 1015 938 q 1146 911 1086 938 q 1249 836 1206 885 q 1353 910 1293 885 q 1483 936 1413 936 l 2074 936 q 2191 913 2135 936 q 2290 848 2247 889 q 2357 753 2332 807 q 2382 636 2382 699 q 2356 519 2382 574 q 2288 424 2331 464 q 2189 360 2246 383 q 2069 338 2132 338 l 1329 338 l 1329 254 m 1329 496 l 2074 496 q 2131 507 2104 496 q 2179 537 2158 518 q 2212 581 2200 556 q 2224 636 2224 607 q 2211 691 2224 665 q 2177 735 2199 717 q 2128 765 2156 754 q 2069 776 2100 776 l 1483 776 q 1433 766 1460 776 q 1383 738 1406 756 q 1344 694 1360 719 q 1329 640 1329 669 l 1329 496 m 1169 438 l 454 438 q 407 431 429 438 q 367 413 385 424 q 301 299 301 371 q 313 244 301 269 q 345 199 325 218 q 392 170 365 181 q 449 160 419 160 l 1169 160 l 1169 438 z "},"ı":{"ha":335,"x_min":104,"x_max":267,"o":"m 104 0 l 104 938 l 267 938 l 267 0 l 104 0 z "},"ł":{"ha":1485,"x_min":-60,"x_max":1393,"o":"m 1393 160 l 1393 0 l 624 0 q 471 31 542 0 q 347 115 400 63 q 281 201 308 154 q 243 306 254 249 q 128 240 188 274 q 19 178 69 206 l -60 317 l 233 483 l 233 938 l 393 938 l 393 575 q 549 664 468 618 q 700 750 629 710 l 778 611 l 393 393 l 393 392 q 460 229 393 292 q 624 160 529 160 l 1393 160 z "},"ø":{"ha":1756,"x_min":125,"x_max":1594,"o":"m 1193 967 q 1349 935 1276 967 q 1476 850 1422 904 q 1563 723 1531 796 q 1594 567 1594 650 l 1594 401 q 1563 247 1594 319 q 1476 119 1531 174 q 1349 33 1422 65 q 1193 1 1276 1 l 526 1 q 370 33 443 1 q 243 119 297 65 q 157 247 189 174 q 125 401 125 319 l 125 567 q 157 723 125 650 q 243 850 189 796 q 370 935 297 904 q 526 967 443 967 l 1193 967 m 289 401 q 298 339 289 369 q 322 282 307 308 q 558 412 443 349 q 788 538 674 475 q 1017 664 901 600 q 1254 796 1132 728 q 1193 804 1225 804 l 526 804 q 434 785 478 804 q 358 734 390 767 q 308 658 326 701 q 289 567 289 615 l 289 401 m 1431 567 q 1421 636 1431 603 q 1392 697 1411 669 q 1152 565 1268 629 q 922 438 1036 501 q 691 310 807 375 q 450 178 575 246 q 487 168 468 171 q 526 165 506 165 l 1193 165 q 1285 184 1242 165 q 1360 235 1328 203 q 1412 310 1393 267 q 1431 401 1431 353 l 1431 567 z "},"œ":{"ha":2801,"x_min":158,"x_max":2490,"o":"m 1436 256 q 1456 214 1442 232 q 1492 184 1471 196 q 1538 166 1513 172 q 1590 160 1564 160 l 2422 160 l 2422 0 l 1585 0 q 1441 31 1513 0 q 1325 118 1369 61 q 1201 32 1272 64 q 1046 0 1129 0 l 547 0 q 396 31 467 0 q 272 115 325 61 q 189 239 219 168 q 158 390 158 310 l 158 549 q 189 700 158 629 q 272 824 219 771 q 396 907 325 876 q 547 938 467 938 l 1046 938 q 1335 808 1225 938 q 1446 901 1379 867 q 1590 935 1513 935 l 2182 935 q 2299 911 2243 935 q 2397 847 2354 888 q 2465 751 2440 806 q 2490 635 2490 697 q 2465 518 2490 572 q 2396 424 2439 464 q 2296 362 2353 385 q 2176 339 2239 339 l 1436 339 l 1436 256 m 1436 497 l 2182 497 q 2238 508 2211 497 q 2286 536 2265 518 q 2319 580 2307 554 q 2331 635 2331 606 q 2318 691 2331 665 q 2284 735 2306 717 q 2235 765 2263 754 q 2176 775 2207 775 l 1590 775 q 1540 765 1567 775 q 1490 736 1513 754 q 1451 693 1467 718 q 1436 639 1436 668 l 1436 497 m 1278 549 q 1259 638 1278 596 q 1209 710 1240 679 q 1135 760 1178 742 q 1046 779 1093 779 l 547 779 q 458 760 500 779 q 385 710 417 742 q 335 638 354 679 q 317 549 317 596 l 317 390 q 335 301 317 343 q 385 227 354 258 q 458 178 417 196 q 547 160 500 160 l 1046 160 q 1135 178 1093 160 q 1209 227 1178 196 q 1259 301 1240 258 q 1278 390 1278 343 l 1278 549 z "},"ß":{"ha":3039,"x_min":0,"x_max":0,"o":""},"Ð":{"ha":1713,"x_min":61,"x_max":1547,"o":"m 1146 964 q 1302 932 1229 964 q 1429 845 1375 900 q 1515 717 1483 790 q 1547 563 1547 644 l 1547 400 q 1515 245 1547 318 q 1428 118 1483 172 q 1301 32 1374 64 q 1146 0 1228 0 l 311 0 l 311 400 l 61 400 l 61 564 l 311 564 l 311 964 l 1146 964 m 1383 565 q 1365 655 1383 613 q 1313 730 1346 697 q 1238 781 1281 763 q 1146 800 1194 800 l 475 800 l 475 564 l 793 564 l 793 400 l 475 400 l 475 164 l 1149 164 q 1239 183 1196 164 q 1314 233 1282 201 q 1365 308 1346 265 q 1383 400 1383 351 l 1383 565 z "},"½":{"ha":1556,"x_min":0,"x_max":0,"o":""},"Þ":{"ha":1576,"x_min":0,"x_max":0,"o":""},"¼":{"ha":1539,"x_min":0,"x_max":0,"o":""},"¾":{"ha":1761,"x_min":0,"x_max":0,"o":""},"²":{"ha":821,"x_min":0,"x_max":0,"o":""},"ð":{"ha":1713,"x_min":61,"x_max":1547,"o":"m 1146 964 q 1302 932 1229 964 q 1429 845 1375 900 q 1515 717 1483 790 q 1547 563 1547 644 l 1547 400 q 1515 245 1547 318 q 1428 118 1483 172 q 1301 32 1374 64 q 1146 0 1228 0 l 311 0 l 311 400 l 61 400 l 61 564 l 311 564 l 311 964 l 1146 964 m 1383 565 q 1365 655 1383 613 q 1313 730 1346 697 q 1238 781 1281 763 q 1146 800 1194 800 l 475 800 l 475 564 l 793 564 l 793 400 l 475 400 l 475 164 l 1149 164 q 1239 183 1196 164 q 1314 233 1282 201 q 1365 308 1346 265 q 1383 400 1383 351 l 1383 565 z "},"³":{"ha":821,"x_min":0,"x_max":0,"o":""},"©":{"ha":1694,"x_min":0,"x_max":0,"o":""},"Á":{"ha":1489,"x_min":122,"x_max":1363,"o":"m 951 1260 l 667 975 l 553 1089 l 839 1372 l 951 1260 m 1246 825 q 1331 697 1299 769 q 1363 540 1363 624 l 1363 0 l 1199 0 l 1199 367 l 286 367 l 286 0 l 122 0 l 122 540 q 154 697 122 624 q 241 824 186 769 q 369 910 296 878 q 524 942 442 942 l 961 942 q 1118 910 1046 942 q 1246 825 1190 878 m 1199 531 l 1199 543 q 1180 633 1199 590 q 1128 708 1161 675 q 1053 759 1096 740 q 961 778 1010 778 l 521 778 q 431 759 474 778 q 356 708 389 740 q 305 632 324 675 q 286 540 286 589 l 286 531 l 1199 531 z "},"Â":{"ha":1489,"x_min":122,"x_max":1363,"o":"m 736 1139 q 644 1096 692 1118 q 547 1051 596 1074 q 451 1006 499 1028 q 363 963 404 983 l 293 1108 l 736 1318 l 1179 1108 l 1110 963 l 736 1139 m 1246 825 q 1331 697 1299 769 q 1363 540 1363 624 l 1363 0 l 1199 0 l 1199 367 l 286 367 l 286 0 l 122 0 l 122 540 q 154 697 122 624 q 241 824 186 769 q 369 910 296 878 q 524 942 442 942 l 961 942 q 1118 910 1046 942 q 1246 825 1190 878 m 1199 531 l 1199 543 q 1180 633 1199 590 q 1128 708 1161 675 q 1053 759 1096 740 q 961 778 1010 778 l 521 778 q 431 759 474 778 q 356 708 389 740 q 305 632 324 675 q 286 540 286 589 l 286 531 l 1199 531 z "},"Ä":{"ha":1494,"x_min":122,"x_max":1363,"o":"m 1246 825 q 1331 697 1299 769 q 1363 540 1363 624 l 1363 0 l 1199 0 l 1199 367 l 286 367 l 286 0 l 122 0 l 122 540 q 154 697 122 624 q 241 824 186 769 q 369 910 296 878 q 524 942 442 942 l 961 942 q 1118 910 1046 942 q 1246 825 1190 878 m 1199 531 l 1199 543 q 1180 633 1199 590 q 1128 708 1161 675 q 1053 759 1096 740 q 961 778 1010 778 l 521 778 q 431 759 474 778 q 356 708 389 740 q 305 632 324 675 q 286 540 286 589 l 286 531 l 1199 531 m 488 997 l 488 1174 l 660 1174 l 660 997 l 488 997 m 854 997 l 854 1174 l 1025 1174 l 1025 997 l 854 997 z "},"À":{"ha":1489,"x_min":122,"x_max":1363,"o":"m 629 1400 l 915 1117 l 801 1003 l 517 1288 l 629 1400 m 1246 825 q 1331 697 1299 769 q 1363 540 1363 624 l 1363 0 l 1199 0 l 1199 367 l 286 367 l 286 0 l 122 0 l 122 540 q 154 697 122 624 q 241 824 186 769 q 369 910 296 878 q 524 942 442 942 l 961 942 q 1118 910 1046 942 q 1246 825 1190 878 m 1199 531 l 1199 543 q 1180 633 1199 590 q 1128 708 1161 675 q 1053 759 1096 740 q 961 778 1010 778 l 521 778 q 431 759 474 778 q 356 708 389 740 q 305 632 324 675 q 286 540 286 589 l 286 531 l 1199 531 z "},"Å":{"ha":1488,"x_min":122,"x_max":1363,"o":"m 1246 825 q 1331 697 1299 769 q 1363 540 1363 624 l 1363 0 l 1199 0 l 1199 367 l 286 367 l 286 0 l 122 0 l 122 540 q 154 697 122 624 q 241 824 186 769 q 369 910 296 878 q 524 942 442 942 l 961 942 q 1118 910 1046 942 q 1246 825 1190 878 m 1199 531 l 1199 543 q 1180 633 1199 590 q 1128 708 1161 675 q 1053 759 1096 740 q 961 778 1010 778 l 521 778 q 431 759 474 778 q 356 708 389 740 q 305 632 324 675 q 286 540 286 589 l 286 531 l 1199 531 m 655 928 q 535 977 583 928 q 499 1030 511 999 q 486 1097 486 1062 l 486 1112 q 499 1178 486 1146 q 535 1233 513 1209 q 589 1271 558 1257 q 655 1284 619 1284 l 821 1284 q 886 1271 855 1284 q 941 1234 918 1257 q 978 1179 964 1210 q 991 1112 991 1148 l 991 1097 q 978 1031 991 1062 q 941 977 964 1000 q 887 941 919 955 q 821 928 856 928 l 655 928 m 622 1146 q 607 1112 607 1132 l 607 1097 q 621 1063 607 1076 q 655 1049 634 1049 l 821 1049 q 855 1063 840 1049 q 870 1097 870 1076 l 870 1112 q 855 1147 870 1133 q 821 1161 840 1161 l 655 1161 q 622 1146 637 1161 z "},"Ã":{"ha":1489,"x_min":122,"x_max":1363,"o":"m 932 932 q 872 940 901 932 q 811 965 843 947 l 813 965 q 678 1032 746 997 q 544 1100 611 1067 q 506 1111 522 1111 q 504 1108 504 1111 l 504 1094 l 504 951 l 354 951 l 354 1096 q 394 1219 354 1172 q 500 1261 436 1261 q 618 1229 554 1261 q 751 1161 683 1197 q 885 1093 819 1125 q 925 1081 910 1081 l 925 1083 q 926 1088 925 1086 q 926 1097 926 1090 l 926 1242 l 1078 1242 l 1078 1096 q 1035 972 1078 1015 l 1035 974 q 932 932 994 932 m 1246 825 q 1331 697 1299 769 q 1363 540 1363 624 l 1363 0 l 1199 0 l 1199 367 l 286 367 l 286 0 l 122 0 l 122 540 q 154 697 122 624 q 241 824 186 769 q 369 910 296 878 q 524 942 442 942 l 961 942 q 1118 910 1046 942 q 1246 825 1190 878 m 1199 531 l 1199 543 q 1180 633 1199 590 q 1128 708 1161 675 q 1053 759 1096 740 q 961 778 1010 778 l 521 778 q 431 759 474 778 q 356 708 389 740 q 305 632 324 675 q 286 540 286 589 l 286 531 l 1199 531 z "},"Ç":{"ha":1588,"x_min":122,"x_max":1314,"o":"m 553 -300 l 553 -147 l 714 -147 q 746 -132 733 -147 q 758 -97 758 -117 l 758 65 l 911 65 l 911 -97 q 895 -172 911 -136 q 852 -237 879 -208 q 788 -283 825 -265 q 708 -300 751 -300 l 553 -300 m 240 117 q 153 244 185 171 q 122 400 122 317 l 122 549 q 154 705 122 632 q 240 832 186 778 q 367 918 294 886 q 524 950 440 950 l 1314 950 l 1314 786 l 524 786 q 431 767 475 786 q 355 716 388 749 q 303 640 322 683 q 285 549 285 597 l 285 400 q 303 309 285 351 q 354 234 322 267 q 429 183 386 201 q 521 164 472 164 l 1314 164 l 1314 0 l 524 0 q 367 32 440 0 q 240 117 293 64 z "},"É":{"ha":1468,"x_min":122,"x_max":1314,"o":"m 1024 1260 l 739 975 l 625 1089 l 911 1372 l 1024 1260 m 356 719 q 285 551 285 649 l 1314 551 l 1314 399 l 285 399 q 304 308 285 350 q 356 233 324 265 q 431 183 388 201 q 522 164 474 164 l 1314 164 l 1314 0 l 522 0 q 367 32 440 0 q 240 118 294 64 q 154 245 186 172 q 122 400 122 318 l 122 551 q 154 708 122 635 q 240 835 186 781 q 367 921 294 889 q 522 953 440 953 l 1314 953 l 1314 789 l 522 789 q 356 719 425 789 z "},"Ê":{"ha":1468,"x_min":122,"x_max":1314,"o":"m 793 1178 q 701 1135 749 1157 q 604 1090 653 1113 q 508 1044 556 1067 q 419 1001 461 1022 l 350 1147 l 793 1357 l 1236 1147 l 1167 1001 l 793 1178 m 356 719 q 285 551 285 649 l 1314 551 l 1314 399 l 285 399 q 304 308 285 350 q 356 233 324 265 q 431 183 388 201 q 522 164 474 164 l 1314 164 l 1314 0 l 522 0 q 367 32 440 0 q 240 118 294 64 q 154 245 186 172 q 122 400 122 318 l 122 551 q 154 708 122 635 q 240 835 186 781 q 367 921 294 889 q 522 953 440 953 l 1314 953 l 1314 789 l 522 789 q 356 719 425 789 z "},"Ë":{"ha":1468,"x_min":122,"x_max":1314,"o":"m 553 1024 l 553 1200 l 725 1200 l 725 1024 l 553 1024 m 919 1024 l 919 1200 l 1090 1200 l 1090 1024 l 919 1024 m 356 719 q 285 551 285 649 l 1314 551 l 1314 399 l 285 399 q 304 308 285 350 q 356 233 324 265 q 431 183 388 201 q 522 164 474 164 l 1314 164 l 1314 0 l 522 0 q 367 32 440 0 q 240 118 294 64 q 154 245 186 172 q 122 400 122 318 l 122 551 q 154 708 122 635 q 240 835 186 781 q 367 921 294 889 q 522 953 440 953 l 1314 953 l 1314 789 l 522 789 q 356 719 425 789 z "},"È":{"ha":1468,"x_min":122,"x_max":1314,"o":"m 654 1400 l 940 1117 l 826 1003 l 542 1288 l 654 1400 m 356 719 q 285 551 285 649 l 1314 551 l 1314 399 l 285 399 q 304 308 285 350 q 356 233 324 265 q 431 183 388 201 q 522 164 474 164 l 1314 164 l 1314 0 l 522 0 q 367 32 440 0 q 240 118 294 64 q 154 245 186 172 q 122 400 122 318 l 122 551 q 154 708 122 635 q 240 835 186 781 q 367 921 294 889 q 522 953 440 953 l 1314 953 l 1314 789 l 522 789 q 356 719 425 789 z "},"Í":{"ha":335,"x_min":-50,"x_max":349,"o":"m 104 0 l 104 938 l 267 938 l 267 0 l 104 0 m 349 1257 l 64 972 l -50 1086 l 236 1369 l 349 1257 z "},"Î":{"ha":335,"x_min":-268,"x_max":618,"o":"m 104 0 l 104 938 l 267 938 l 267 0 l 104 0 m 175 1149 q 83 1106 131 1128 q -14 1060 35 1083 q -110 1015 -62 1038 q -199 972 -157 993 l -268 1118 l 175 1328 l 618 1118 l 549 972 l 175 1149 z "},"Ï":{"ha":643,"x_min":24,"x_max":599,"o":"m 236 0 l 236 972 l 385 972 l 385 0 l 236 0 m 24 1231 l 214 1231 l 214 1050 l 24 1050 l 24 1231 m 407 1231 l 599 1231 l 599 1050 l 407 1050 l 407 1231 z "},"Ì":{"ha":335,"x_min":-44,"x_max":354,"o":"m 104 0 l 104 938 l 267 938 l 267 0 l 104 0 m 68 1397 l 354 1114 l 240 1000 l -44 1285 l 68 1397 z "},"Ñ":{"ha":1615,"x_min":122,"x_max":1368,"o":"m 981 932 q 921 940 950 932 q 860 965 892 947 l 861 965 q 727 1032 794 997 q 593 1100 660 1067 q 554 1111 571 1111 q 553 1108 553 1111 l 553 1094 l 553 951 l 403 951 l 403 1096 q 443 1219 403 1172 q 549 1261 485 1261 q 667 1229 603 1261 q 800 1161 732 1197 q 933 1093 868 1125 q 974 1081 958 1081 l 974 1083 q 974 1088 974 1086 q 975 1097 975 1090 l 975 1242 l 1126 1242 l 1126 1096 q 1083 972 1126 1015 l 1083 974 q 981 932 1043 932 m 1064 10 q 1028 32 1043 21 q 992 68 1013 43 q 843 242 922 149 q 682 431 764 335 q 520 622 600 528 q 372 796 440 715 q 336 810 360 810 q 303 800 318 810 q 286 771 288 790 l 286 0 l 122 0 l 122 782 l 124 788 q 147 867 126 832 q 197 926 167 901 q 264 963 226 950 q 339 975 301 975 q 426 957 383 975 q 500 899 468 939 l 499 900 q 808 535 654 717 q 1117 171 961 354 q 1154 156 1131 156 q 1185 167 1171 156 q 1203 194 1199 178 l 1203 965 l 1368 965 l 1368 182 q 1342 103 1363 139 q 1293 43 1322 68 q 1227 4 1264 18 q 1153 -10 1190 -10 q 1063 11 1106 -10 l 1064 10 z "},"Ó":{"ha":1700,"x_min":126,"x_max":1596,"o":"m 1140 1260 l 856 975 l 742 1089 l 1028 1372 l 1140 1260 m 528 0 q 372 32 444 0 q 244 118 299 64 q 158 245 190 172 q 126 400 126 318 l 126 563 q 158 719 126 646 q 244 846 190 792 q 372 932 299 900 q 528 964 444 964 l 1194 964 q 1351 932 1278 964 q 1478 846 1424 900 q 1564 719 1532 792 q 1596 563 1596 646 l 1596 400 q 1564 245 1596 318 q 1478 118 1532 172 q 1351 32 1424 64 q 1194 0 1278 0 l 528 0 m 290 400 q 309 308 290 351 q 360 233 328 265 q 435 183 392 201 q 528 164 479 164 l 1194 164 q 1286 183 1243 164 q 1362 233 1329 201 q 1413 308 1394 265 q 1432 400 1432 351 l 1432 563 q 1413 654 1432 611 q 1362 730 1394 697 q 1286 781 1329 763 q 1194 800 1243 800 l 528 800 q 435 781 479 800 q 360 730 392 763 q 309 654 328 697 q 290 563 290 611 l 290 400 z "},"Ô":{"ha":1700,"x_min":126,"x_max":1596,"o":"m 842 1178 q 749 1135 797 1157 q 653 1090 701 1113 q 557 1044 604 1067 q 468 1001 510 1022 l 399 1147 l 842 1357 l 1285 1147 l 1215 1001 l 842 1178 m 528 0 q 372 32 444 0 q 244 118 299 64 q 158 245 190 172 q 126 400 126 318 l 126 563 q 158 719 126 646 q 244 846 190 792 q 372 932 299 900 q 528 964 444 964 l 1194 964 q 1351 932 1278 964 q 1478 846 1424 900 q 1564 719 1532 792 q 1596 563 1596 646 l 1596 400 q 1564 245 1596 318 q 1478 118 1532 172 q 1351 32 1424 64 q 1194 0 1278 0 l 528 0 m 290 400 q 309 308 290 351 q 360 233 328 265 q 435 183 392 201 q 528 164 479 164 l 1194 164 q 1286 183 1243 164 q 1362 233 1329 201 q 1413 308 1394 265 q 1432 400 1432 351 l 1432 563 q 1413 654 1432 611 q 1362 730 1394 697 q 1286 781 1329 763 q 1194 800 1243 800 l 528 800 q 435 781 479 800 q 360 730 392 763 q 309 654 328 697 q 290 563 290 611 l 290 400 z "},"Ö":{"ha":1700,"x_min":126,"x_max":1596,"o":"m 594 1024 l 594 1200 l 767 1200 l 767 1024 l 594 1024 m 961 1024 l 961 1200 l 1132 1200 l 1132 1024 l 961 1024 m 528 0 q 372 32 444 0 q 244 118 299 64 q 158 245 190 172 q 126 400 126 318 l 126 563 q 158 719 126 646 q 244 846 190 792 q 372 932 299 900 q 528 964 444 964 l 1194 964 q 1351 932 1278 964 q 1478 846 1424 900 q 1564 719 1532 792 q 1596 563 1596 646 l 1596 400 q 1564 245 1596 318 q 1478 118 1532 172 q 1351 32 1424 64 q 1194 0 1278 0 l 528 0 m 290 400 q 309 308 290 351 q 360 233 328 265 q 435 183 392 201 q 528 164 479 164 l 1194 164 q 1286 183 1243 164 q 1362 233 1329 201 q 1413 308 1394 265 q 1432 400 1432 351 l 1432 563 q 1413 654 1432 611 q 1362 730 1394 697 q 1286 781 1329 763 q 1194 800 1243 800 l 528 800 q 435 781 479 800 q 360 730 392 763 q 309 654 328 697 q 290 563 290 611 l 290 400 z "},"Ò":{"ha":1700,"x_min":126,"x_max":1596,"o":"m 707 1400 l 993 1117 l 879 1003 l 594 1288 l 707 1400 m 528 0 q 372 32 444 0 q 244 118 299 64 q 158 245 190 172 q 126 400 126 318 l 126 563 q 158 719 126 646 q 244 846 190 792 q 372 932 299 900 q 528 964 444 964 l 1194 964 q 1351 932 1278 964 q 1478 846 1424 900 q 1564 719 1532 792 q 1596 563 1596 646 l 1596 400 q 1564 245 1596 318 q 1478 118 1532 172 q 1351 32 1424 64 q 1194 0 1278 0 l 528 0 m 290 400 q 309 308 290 351 q 360 233 328 265 q 435 183 392 201 q 528 164 479 164 l 1194 164 q 1286 183 1243 164 q 1362 233 1329 201 q 1413 308 1394 265 q 1432 400 1432 351 l 1432 563 q 1413 654 1432 611 q 1362 730 1394 697 q 1286 781 1329 763 q 1194 800 1243 800 l 528 800 q 435 781 479 800 q 360 730 392 763 q 309 654 328 697 q 290 563 290 611 l 290 400 z "},"Õ":{"ha":1700,"x_min":126,"x_max":1596,"o":"m 1038 932 q 978 940 1007 932 q 917 965 949 947 l 918 965 q 784 1032 851 997 q 650 1100 717 1067 q 611 1111 628 1111 q 610 1108 610 1111 l 610 1094 l 610 951 l 460 951 l 460 1096 q 500 1219 460 1172 q 606 1261 542 1261 q 724 1229 660 1261 q 857 1161 789 1197 q 990 1093 925 1125 q 1031 1081 1015 1081 l 1031 1083 q 1031 1088 1031 1086 q 1032 1097 1032 1090 l 1032 1242 l 1183 1242 l 1183 1096 q 1140 972 1183 1015 l 1140 974 q 1038 932 1100 932 m 528 0 q 372 32 444 0 q 244 118 299 64 q 158 245 190 172 q 126 400 126 318 l 126 563 q 158 719 126 646 q 244 846 190 792 q 372 932 299 900 q 528 964 444 964 l 1194 964 q 1351 932 1278 964 q 1478 846 1424 900 q 1564 719 1532 792 q 1596 563 1596 646 l 1596 400 q 1564 245 1596 318 q 1478 118 1532 172 q 1351 32 1424 64 q 1194 0 1278 0 l 528 0 m 290 400 q 309 308 290 351 q 360 233 328 265 q 435 183 392 201 q 528 164 479 164 l 1194 164 q 1286 183 1243 164 q 1362 233 1329 201 q 1413 308 1394 265 q 1432 400 1432 351 l 1432 563 q 1413 654 1432 611 q 1362 730 1394 697 q 1286 781 1329 763 q 1194 800 1243 800 l 528 800 q 435 781 479 800 q 360 730 392 763 q 309 654 328 697 q 290 563 290 611 l 290 400 z "},"Š":{"ha":1486,"x_min":71,"x_max":1292,"o":"m 1050 1364 l 1119 1218 l 676 1010 l 233 1218 l 303 1364 l 676 1186 l 1050 1364 m 121 0 l 121 164 l 1010 164 q 1093 199 1058 164 q 1128 282 1128 233 q 1094 355 1128 331 q 1010 379 1060 379 l 353 379 q 244 401 294 379 q 154 462 193 424 q 93 551 115 500 q 71 661 71 603 q 93 772 71 719 q 153 862 115 824 q 243 922 192 900 q 353 944 294 944 l 1242 944 l 1242 782 l 353 782 q 270 748 303 782 q 235 667 238 714 q 272 578 239 614 q 353 543 304 543 l 1010 543 q 1119 524 1068 543 q 1209 472 1171 506 q 1269 389 1247 438 q 1292 282 1292 340 q 1269 172 1292 224 q 1209 83 1247 121 q 1119 22 1171 44 q 1010 0 1068 0 l 121 0 z "},"Ú":{"ha":1475,"x_min":122,"x_max":1290,"o":"m 921 1228 l 636 943 l 522 1057 l 808 1340 l 921 1228 m 239 117 q 153 244 185 171 q 122 400 122 317 l 122 939 l 285 939 l 285 400 q 303 309 285 351 q 354 234 322 267 q 429 183 386 201 q 521 164 472 164 l 890 164 q 981 183 938 164 q 1057 233 1025 201 q 1108 308 1089 265 q 1128 399 1128 350 l 1128 939 l 1290 939 l 1290 400 q 1259 244 1290 317 q 1174 117 1228 171 q 1047 32 1119 64 q 890 0 974 0 l 524 0 q 366 32 439 0 q 239 117 293 64 z "},"Û":{"ha":1506,"x_min":122,"x_max":1290,"o":"m 714 1178 q 622 1135 669 1157 q 525 1090 574 1113 q 429 1044 476 1067 q 340 1001 382 1022 l 271 1147 l 714 1357 l 1157 1147 l 1088 1001 l 714 1178 m 239 117 q 153 244 185 171 q 122 400 122 317 l 122 939 l 285 939 l 285 400 q 303 309 285 351 q 354 234 322 267 q 429 183 386 201 q 521 164 472 164 l 890 164 q 981 183 938 164 q 1057 233 1025 201 q 1108 308 1089 265 q 1128 399 1128 350 l 1128 939 l 1290 939 l 1290 400 q 1259 244 1290 317 q 1174 117 1228 171 q 1047 32 1119 64 q 890 0 974 0 l 524 0 q 366 32 439 0 q 239 117 293 64 z "},"Ü":{"ha":1529,"x_min":122,"x_max":1290,"o":"m 443 750 l 443 926 l 615 926 l 615 750 l 443 750 m 810 750 l 810 926 l 981 926 l 981 750 l 810 750 m 239 117 q 153 244 185 171 q 122 400 122 317 l 122 939 l 285 939 l 285 400 q 303 309 285 351 q 354 234 322 267 q 429 183 386 201 q 521 164 472 164 l 890 164 q 981 183 938 164 q 1057 233 1025 201 q 1108 308 1089 265 q 1128 399 1128 350 l 1128 939 l 1290 939 l 1290 400 q 1259 244 1290 317 q 1174 117 1228 171 q 1047 32 1119 64 q 890 0 974 0 l 524 0 q 366 32 439 0 q 239 117 293 64 z "},"Ù":{"ha":1429,"x_min":122,"x_max":1290,"o":"m 586 1400 l 872 1117 l 758 1003 l 474 1288 l 586 1400 m 239 117 q 153 244 185 171 q 122 400 122 317 l 122 939 l 285 939 l 285 400 q 303 309 285 351 q 354 234 322 267 q 429 183 386 201 q 521 164 472 164 l 890 164 q 981 183 938 164 q 1057 233 1025 201 q 1108 308 1089 265 q 1128 399 1128 350 l 1128 939 l 1290 939 l 1290 400 q 1259 244 1290 317 q 1174 117 1228 171 q 1047 32 1119 64 q 890 0 974 0 l 524 0 q 366 32 439 0 q 239 117 293 64 z "},"Ý":{"ha":1508,"x_min":122,"x_max":1290,"o":"m 918 1226 l 633 942 l 519 1056 l 806 1339 l 918 1226 m 628 0 l 628 285 l 524 285 q 366 317 439 285 q 239 401 293 349 q 153 517 185 457 q 122 660 122 576 l 122 938 l 285 938 l 285 660 q 303 572 285 611 q 354 506 322 533 q 429 463 386 478 q 521 449 472 449 l 890 449 q 981 463 938 449 q 1057 505 1025 478 q 1108 570 1089 532 q 1128 657 1128 608 l 1128 938 l 1290 938 l 1290 660 q 1259 517 1290 576 q 1174 401 1228 457 q 1047 317 1119 349 q 890 285 974 285 l 792 285 l 792 0 l 628 0 z "},"Ÿ":{"ha":1508,"x_min":122,"x_max":1290,"o":"m 450 750 l 450 926 l 622 926 l 622 750 l 450 750 m 817 750 l 817 926 l 988 926 l 988 750 l 817 750 m 628 0 l 628 285 l 524 285 q 366 317 439 285 q 239 401 293 349 q 153 517 185 457 q 122 660 122 576 l 122 938 l 285 938 l 285 660 q 303 572 285 611 q 354 506 322 533 q 429 463 386 478 q 521 449 472 449 l 890 449 q 981 463 938 449 q 1057 505 1025 478 q 1108 570 1089 532 q 1128 657 1128 608 l 1128 938 l 1290 938 l 1290 660 q 1259 517 1290 576 q 1174 401 1228 457 q 1047 317 1119 349 q 890 285 974 285 l 792 285 l 792 0 l 628 0 z "},"Ž":{"ha":1514,"x_min":108,"x_max":1328,"o":"m 1074 1364 l 1143 1218 l 700 1010 l 257 1218 l 326 1364 l 700 1186 l 1074 1364 m 307 0 q 221 19 258 0 q 158 70 183 39 q 121 140 133 101 q 108 218 108 179 q 128 309 108 275 q 171 365 147 343 q 201 386 183 376 q 236 401 219 396 q 450 472 338 436 q 677 544 563 508 q 905 615 792 579 q 1119 686 1018 650 q 1125 689 1122 689 q 1133 692 1128 689 l 1132 690 q 1151 702 1139 693 q 1164 729 1164 711 q 1163 740 1164 732 q 1158 756 1163 747 q 1147 770 1154 764 q 1125 776 1139 776 l 117 776 l 117 940 l 1135 940 q 1238 910 1199 940 q 1296 842 1276 879 q 1322 770 1315 804 q 1328 729 1328 736 q 1314 643 1328 676 q 1283 590 1300 610 q 1248 562 1265 571 q 1222 550 1231 553 l 299 247 l 301 249 q 281 233 286 243 q 276 213 276 224 q 288 181 276 194 q 315 164 299 167 l 1318 164 l 1318 0 l 307 0 z "},"á":{"ha":1611,"x_min":129,"x_max":1343,"o":"m 440 0 q 268 49 344 0 q 154 181 192 99 q 136 237 143 207 q 129 299 129 267 q 154 415 129 361 q 222 510 179 469 q 319 574 264 551 q 436 597 375 597 l 1185 597 l 1185 625 q 1172 684 1185 656 q 1138 733 1160 713 q 1088 767 1117 754 q 1029 779 1060 779 l 335 779 l 335 938 l 1029 938 q 1151 913 1094 938 q 1251 847 1208 889 q 1319 747 1294 804 q 1343 625 1343 690 l 1343 -1 l 440 0 m 354 413 q 305 364 322 393 q 288 299 288 335 q 299 244 288 269 q 332 199 311 218 q 380 170 353 181 q 436 160 407 160 l 1182 160 l 1182 438 l 440 438 q 395 431 417 438 q 356 413 374 424 l 354 413 m 1082 1260 l 797 975 l 683 1089 l 969 1372 l 1082 1260 z "},"â":{"ha":1611,"x_min":129,"x_max":1343,"o":"m 440 0 q 268 49 344 0 q 154 181 192 99 q 136 237 143 207 q 129 299 129 267 q 154 415 129 361 q 222 510 179 469 q 319 574 264 551 q 436 597 375 597 l 1185 597 l 1185 625 q 1172 684 1185 656 q 1138 733 1160 713 q 1088 767 1117 754 q 1029 779 1060 779 l 335 779 l 335 938 l 1029 938 q 1151 913 1094 938 q 1251 847 1208 889 q 1319 747 1294 804 q 1343 625 1343 690 l 1343 -1 l 440 0 m 354 413 q 305 364 322 393 q 288 299 288 335 q 299 244 288 269 q 332 199 311 218 q 380 170 353 181 q 436 160 407 160 l 1182 160 l 1182 438 l 440 438 q 395 431 417 438 q 356 413 374 424 l 354 413 m 783 1178 q 691 1135 739 1157 q 594 1090 643 1113 q 499 1044 546 1067 q 410 1001 451 1022 l 340 1147 l 783 1357 l 1226 1147 l 1157 1001 l 783 1178 z "},"ä":{"ha":1611,"x_min":129,"x_max":1343,"o":"m 440 0 q 268 49 344 0 q 154 181 192 99 q 136 237 143 207 q 129 299 129 267 q 154 415 129 361 q 222 510 179 469 q 319 574 264 551 q 436 597 375 597 l 1185 597 l 1185 625 q 1172 684 1185 656 q 1138 733 1160 713 q 1088 767 1117 754 q 1029 779 1060 779 l 335 779 l 335 938 l 1029 938 q 1151 913 1094 938 q 1251 847 1208 889 q 1319 747 1294 804 q 1343 625 1343 690 l 1343 -1 l 440 0 m 354 413 q 305 364 322 393 q 288 299 288 335 q 299 244 288 269 q 332 199 311 218 q 380 170 353 181 q 436 160 407 160 l 1182 160 l 1182 438 l 440 438 q 395 431 417 438 q 356 413 374 424 l 354 413 m 508 981 l 508 1157 l 681 1157 l 681 981 l 508 981 m 875 981 l 875 1157 l 1046 1157 l 1046 981 l 875 981 z "},"à":{"ha":1611,"x_min":129,"x_max":1343,"o":"m 440 0 q 268 49 344 0 q 154 181 192 99 q 136 237 143 207 q 129 299 129 267 q 154 415 129 361 q 222 510 179 469 q 319 574 264 551 q 436 597 375 597 l 1185 597 l 1185 625 q 1172 684 1185 656 q 1138 733 1160 713 q 1088 767 1117 754 q 1029 779 1060 779 l 335 779 l 335 938 l 1029 938 q 1151 913 1094 938 q 1251 847 1208 889 q 1319 747 1294 804 q 1343 625 1343 690 l 1343 -1 l 440 0 m 354 413 q 305 364 322 393 q 288 299 288 335 q 299 244 288 269 q 332 199 311 218 q 380 170 353 181 q 436 160 407 160 l 1182 160 l 1182 438 l 440 438 q 395 431 417 438 q 356 413 374 424 l 354 413 m 649 1400 l 935 1117 l 821 1003 l 536 1288 l 649 1400 z "},"å":{"ha":1611,"x_min":129,"x_max":1343,"o":"m 440 0 q 268 49 344 0 q 154 181 192 99 q 136 237 143 207 q 129 299 129 267 q 154 415 129 361 q 222 510 179 469 q 319 574 264 551 q 436 597 375 597 l 1185 597 l 1185 625 q 1172 684 1185 656 q 1138 733 1160 713 q 1088 767 1117 754 q 1029 779 1060 779 l 335 779 l 335 938 l 1029 938 q 1151 913 1094 938 q 1251 847 1208 889 q 1319 747 1294 804 q 1343 625 1343 690 l 1343 -1 l 440 0 m 354 413 q 305 364 322 393 q 288 299 288 335 q 299 244 288 269 q 332 199 311 218 q 380 170 353 181 q 436 160 407 160 l 1182 160 l 1182 438 l 440 438 q 395 431 417 438 q 356 413 374 424 l 354 413 m 696 961 q 560 1017 614 961 q 519 1077 533 1042 q 504 1153 504 1113 l 504 1169 q 519 1244 504 1208 q 560 1306 535 1279 q 621 1349 586 1333 q 696 1364 656 1364 l 883 1364 q 958 1349 922 1364 q 1019 1307 993 1333 q 1061 1245 1046 1281 q 1076 1169 1076 1210 l 1076 1153 q 1061 1078 1076 1113 q 1020 1017 1046 1043 q 959 976 994 992 q 883 961 924 961 l 696 961 m 658 1208 q 642 1169 642 1192 l 642 1153 q 657 1114 642 1129 q 696 1099 672 1099 l 883 1099 q 922 1114 906 1099 q 939 1153 939 1129 l 939 1169 q 922 1209 939 1193 q 883 1225 906 1225 l 696 1225 q 658 1208 675 1225 z "},"ã":{"ha":1611,"x_min":129,"x_max":1343,"o":"m 440 0 q 268 49 344 0 q 154 181 192 99 q 136 237 143 207 q 129 299 129 267 q 154 415 129 361 q 222 510 179 469 q 319 574 264 551 q 436 597 375 597 l 1185 597 l 1185 625 q 1172 684 1185 656 q 1138 733 1160 713 q 1088 767 1117 754 q 1029 779 1060 779 l 335 779 l 335 938 l 1029 938 q 1151 913 1094 938 q 1251 847 1208 889 q 1319 747 1294 804 q 1343 625 1343 690 l 1343 -1 l 440 0 m 354 413 q 305 364 322 393 q 288 299 288 335 q 299 244 288 269 q 332 199 311 218 q 380 170 353 181 q 436 160 407 160 l 1182 160 l 1182 438 l 440 438 q 395 431 417 438 q 356 413 374 424 l 354 413 m 979 932 q 919 940 949 932 q 858 965 890 947 l 860 965 q 726 1032 793 997 q 592 1100 658 1067 q 553 1111 569 1111 q 551 1108 551 1111 l 551 1094 l 551 951 l 401 951 l 401 1096 q 442 1219 401 1172 q 547 1261 483 1261 q 665 1229 601 1261 q 799 1161 731 1197 q 932 1093 867 1125 q 972 1081 957 1081 l 972 1083 q 973 1088 972 1086 q 974 1097 974 1090 l 974 1242 l 1125 1242 l 1125 1096 q 1082 972 1125 1015 l 1082 974 q 979 932 1042 932 z "},"ç":{"ha":1588,"x_min":122,"x_max":1314,"o":"m 553 -303 l 553 -150 l 714 -150 q 746 -135 733 -150 q 758 -100 758 -119 l 758 63 l 911 63 l 911 -100 q 895 -175 911 -139 q 852 -240 879 -211 q 788 -285 825 -268 q 708 -303 751 -303 l 553 -303 m 240 117 q 153 244 185 171 q 122 400 122 317 l 122 549 q 154 705 122 632 q 240 832 186 778 q 367 918 294 886 q 524 950 440 950 l 1314 950 l 1314 786 l 524 786 q 431 767 475 786 q 355 716 388 749 q 303 640 322 683 q 285 549 285 597 l 285 400 q 303 309 285 351 q 354 234 322 267 q 429 183 386 201 q 521 164 472 164 l 1314 164 l 1314 0 l 524 0 q 367 32 440 0 q 240 117 293 64 z "},"é":{"ha":1478,"x_min":131,"x_max":1343,"o":"m 131 642 q 156 758 131 704 q 226 852 182 813 q 326 915 269 892 q 444 938 382 938 l 1035 938 q 1152 914 1096 938 q 1251 849 1208 890 q 1318 754 1293 808 q 1343 638 1343 700 q 1317 520 1343 575 q 1249 425 1292 465 q 1150 362 1207 385 q 1031 339 1093 339 l 290 339 l 290 256 q 345 183 300 207 q 444 160 390 160 l 1276 160 l 1276 0 l 438 0 q 331 17 385 0 q 233 66 276 33 q 160 144 189 99 q 131 249 132 190 l 131 642 m 444 778 q 394 767 421 778 q 344 739 367 757 q 306 696 321 721 q 290 642 290 671 l 290 497 l 1035 497 q 1092 508 1065 497 q 1140 538 1119 519 q 1173 583 1161 557 q 1185 638 1185 608 q 1172 692 1185 667 q 1138 737 1160 718 q 1089 767 1117 756 q 1031 778 1061 778 l 444 778 m 929 1257 l 644 972 l 531 1086 l 817 1369 l 929 1257 z "},"ê":{"ha":1474,"x_min":132,"x_max":1344,"o":"m 132 642 q 158 758 132 704 q 227 852 183 813 q 327 915 271 892 q 446 938 383 938 l 1036 938 q 1153 914 1097 938 q 1252 849 1210 890 q 1319 754 1294 808 q 1344 638 1344 700 q 1319 520 1344 575 q 1251 425 1293 465 q 1151 362 1208 385 q 1032 339 1094 339 l 292 339 l 292 256 q 347 183 301 207 q 446 160 392 160 l 1278 160 l 1278 0 l 439 0 q 332 17 386 0 q 234 66 278 33 q 162 144 190 99 q 132 249 133 190 l 132 642 m 446 778 q 395 767 422 778 q 345 739 368 757 q 307 696 322 721 q 292 642 292 671 l 292 497 l 1036 497 q 1094 508 1067 497 q 1142 538 1121 519 q 1174 583 1163 557 q 1186 638 1186 608 q 1174 692 1186 667 q 1140 737 1161 718 q 1090 767 1118 756 q 1032 778 1063 778 l 446 778 m 799 1178 q 706 1135 754 1157 q 610 1090 658 1113 q 514 1044 561 1067 q 425 1001 467 1022 l 356 1147 l 799 1357 l 1242 1147 l 1172 1001 l 799 1178 z "},"ë":{"ha":1474,"x_min":132,"x_max":1344,"o":"m 132 642 q 158 758 132 704 q 227 852 183 813 q 327 915 271 892 q 446 938 383 938 l 1036 938 q 1153 914 1097 938 q 1252 849 1210 890 q 1319 754 1294 808 q 1344 638 1344 700 q 1319 520 1344 575 q 1251 425 1293 465 q 1151 362 1208 385 q 1032 339 1094 339 l 292 339 l 292 256 q 347 183 301 207 q 446 160 392 160 l 1278 160 l 1278 0 l 439 0 q 332 17 386 0 q 234 66 278 33 q 162 144 190 99 q 132 249 133 190 l 132 642 m 446 778 q 395 767 422 778 q 345 739 368 757 q 307 696 322 721 q 292 642 292 671 l 292 497 l 1036 497 q 1094 508 1067 497 q 1142 538 1121 519 q 1174 583 1163 557 q 1186 638 1186 608 q 1174 692 1186 667 q 1140 737 1161 718 q 1090 767 1118 756 q 1032 778 1063 778 l 446 778 m 457 1021 l 457 1197 l 629 1197 l 629 1021 l 457 1021 m 824 1021 l 824 1197 l 994 1197 l 994 1021 l 824 1021 z "},"è":{"ha":1600,"x_min":131,"x_max":1343,"o":"m 664 1400 l 950 1117 l 836 1003 l 551 1288 l 664 1400 m 131 642 q 156 758 131 704 q 226 852 182 813 q 326 915 269 892 q 444 938 382 938 l 1035 938 q 1152 914 1096 938 q 1251 849 1208 890 q 1318 754 1293 808 q 1343 638 1343 700 q 1317 520 1343 575 q 1249 425 1292 465 q 1150 362 1207 385 q 1031 339 1093 339 l 290 339 l 290 256 q 345 183 300 207 q 444 160 390 160 l 1276 160 l 1276 0 l 438 0 q 331 17 385 0 q 233 66 276 33 q 160 144 189 99 q 131 249 132 190 l 131 642 m 444 778 q 394 767 421 778 q 344 739 367 757 q 306 696 321 721 q 290 642 290 671 l 290 497 l 1035 497 q 1092 508 1065 497 q 1140 538 1119 519 q 1173 583 1161 557 q 1185 638 1185 608 q 1172 692 1185 667 q 1138 737 1160 718 q 1089 767 1117 756 q 1031 778 1061 778 l 444 778 z "},"í":{"ha":368,"x_min":-22,"x_max":376,"o":"m 104 0 l 104 938 l 267 938 l 267 0 l 104 0 m 376 1257 l 92 972 l -22 1086 l 264 1369 l 376 1257 z "},"î":{"ha":368,"x_min":-276,"x_max":610,"o":"m 104 0 l 104 938 l 267 938 l 267 0 l 104 0 m 167 1175 q 74 1132 122 1154 q -22 1087 26 1110 q -118 1042 -71 1064 q -207 999 -165 1019 l -276 1144 l 167 1354 l 610 1144 l 540 999 l 167 1175 z "},"ï":{"ha":368,"x_min":-92,"x_max":446,"o":"m 104 0 l 104 938 l 267 938 l 267 0 l 104 0 m -92 997 l -92 1174 l 81 1174 l 81 997 l -92 997 m 275 997 l 275 1174 l 446 1174 l 446 997 l 275 997 z "},"ì":{"ha":368,"x_min":-19,"x_max":379,"o":"m 104 0 l 104 938 l 267 938 l 267 0 l 104 0 m 93 1397 l 379 1114 l 265 1000 l -19 1285 l 93 1397 z "},"ñ":{"ha":1615,"x_min":128,"x_max":1267,"o":"m 876 938 q 1028 907 957 938 q 1152 823 1099 876 q 1236 699 1206 769 q 1267 547 1267 628 l 1267 0 l 1108 0 l 1108 547 q 1090 636 1108 594 q 1040 710 1071 678 q 967 760 1008 742 q 879 779 925 779 l 288 779 l 288 0 l 128 0 l 128 938 l 876 938 m 867 932 q 807 940 836 932 q 746 965 778 947 l 747 965 q 613 1032 681 997 q 479 1100 546 1067 q 440 1111 457 1111 q 439 1108 439 1111 l 439 1094 l 439 951 l 289 951 l 289 1096 q 329 1219 289 1172 q 435 1261 371 1261 q 553 1229 489 1261 q 686 1161 618 1197 q 819 1093 754 1125 q 860 1081 844 1081 l 860 1083 q 860 1088 860 1086 q 861 1097 861 1090 l 861 1242 l 1013 1242 l 1013 1096 q 969 972 1013 1015 l 969 974 q 867 932 929 932 z "},"ó":{"ha":1700,"x_min":126,"x_max":1596,"o":"m 1140 1260 l 856 975 l 742 1089 l 1028 1372 l 1140 1260 m 528 0 q 372 32 444 0 q 244 118 299 64 q 158 245 190 172 q 126 400 126 318 l 126 563 q 158 719 126 646 q 244 846 190 792 q 372 932 299 900 q 528 964 444 964 l 1194 964 q 1351 932 1278 964 q 1478 846 1424 900 q 1564 719 1532 792 q 1596 563 1596 646 l 1596 400 q 1564 245 1596 318 q 1478 118 1532 172 q 1351 32 1424 64 q 1194 0 1278 0 l 528 0 m 290 400 q 309 308 290 351 q 360 233 328 265 q 435 183 392 201 q 528 164 479 164 l 1194 164 q 1286 183 1243 164 q 1362 233 1329 201 q 1413 308 1394 265 q 1432 400 1432 351 l 1432 563 q 1413 654 1432 611 q 1362 730 1394 697 q 1286 781 1329 763 q 1194 800 1243 800 l 528 800 q 435 781 479 800 q 360 730 392 763 q 309 654 328 697 q 290 563 290 611 l 290 400 z "},"ô":{"ha":1700,"x_min":126,"x_max":1596,"o":"m 842 1178 q 749 1135 797 1157 q 653 1090 701 1113 q 557 1044 604 1067 q 468 1001 510 1022 l 399 1147 l 842 1357 l 1285 1147 l 1215 1001 l 842 1178 m 528 0 q 372 32 444 0 q 244 118 299 64 q 158 245 190 172 q 126 400 126 318 l 126 563 q 158 719 126 646 q 244 846 190 792 q 372 932 299 900 q 528 964 444 964 l 1194 964 q 1351 932 1278 964 q 1478 846 1424 900 q 1564 719 1532 792 q 1596 563 1596 646 l 1596 400 q 1564 245 1596 318 q 1478 118 1532 172 q 1351 32 1424 64 q 1194 0 1278 0 l 528 0 m 290 400 q 309 308 290 351 q 360 233 328 265 q 435 183 392 201 q 528 164 479 164 l 1194 164 q 1286 183 1243 164 q 1362 233 1329 201 q 1413 308 1394 265 q 1432 400 1432 351 l 1432 563 q 1413 654 1432 611 q 1362 730 1394 697 q 1286 781 1329 763 q 1194 800 1243 800 l 528 800 q 435 781 479 800 q 360 730 392 763 q 309 654 328 697 q 290 563 290 611 l 290 400 z "},"ö":{"ha":1788,"x_min":126,"x_max":1596,"o":"m 528 0 q 372 32 444 0 q 244 118 299 64 q 158 245 190 172 q 126 400 126 318 l 126 563 q 158 719 126 646 q 244 846 190 792 q 372 932 299 900 q 528 964 444 964 l 1194 964 q 1351 932 1278 964 q 1478 846 1424 900 q 1564 719 1532 792 q 1596 563 1596 646 l 1596 400 q 1564 245 1596 318 q 1478 118 1532 172 q 1351 32 1424 64 q 1194 0 1278 0 l 528 0 m 290 400 q 309 308 290 351 q 360 233 328 265 q 435 183 392 201 q 528 164 479 164 l 1194 164 q 1286 183 1243 164 q 1362 233 1329 201 q 1413 308 1394 265 q 1432 400 1432 351 l 1432 563 q 1413 654 1432 611 q 1362 730 1394 697 q 1286 781 1329 763 q 1194 800 1243 800 l 528 800 q 435 781 479 800 q 360 730 392 763 q 309 654 328 697 q 290 563 290 611 l 290 400 m 615 1021 l 615 1197 l 788 1197 l 788 1021 l 615 1021 m 982 1021 l 982 1197 l 1153 1197 l 1153 1021 l 982 1021 z "},"ò":{"ha":1700,"x_min":126,"x_max":1596,"o":"m 707 1400 l 993 1117 l 879 1003 l 594 1288 l 707 1400 m 528 0 q 372 32 444 0 q 244 118 299 64 q 158 245 190 172 q 126 400 126 318 l 126 563 q 158 719 126 646 q 244 846 190 792 q 372 932 299 900 q 528 964 444 964 l 1194 964 q 1351 932 1278 964 q 1478 846 1424 900 q 1564 719 1532 792 q 1596 563 1596 646 l 1596 400 q 1564 245 1596 318 q 1478 118 1532 172 q 1351 32 1424 64 q 1194 0 1278 0 l 528 0 m 290 400 q 309 308 290 351 q 360 233 328 265 q 435 183 392 201 q 528 164 479 164 l 1194 164 q 1286 183 1243 164 q 1362 233 1329 201 q 1413 308 1394 265 q 1432 400 1432 351 l 1432 563 q 1413 654 1432 611 q 1362 730 1394 697 q 1286 781 1329 763 q 1194 800 1243 800 l 528 800 q 435 781 479 800 q 360 730 392 763 q 309 654 328 697 q 290 563 290 611 l 290 400 z "},"õ":{"ha":1700,"x_min":126,"x_max":1596,"o":"m 1038 932 q 978 940 1007 932 q 917 965 949 947 l 918 965 q 784 1032 851 997 q 650 1100 717 1067 q 611 1111 628 1111 q 610 1108 610 1111 l 610 1094 l 610 951 l 460 951 l 460 1096 q 500 1219 460 1172 q 606 1261 542 1261 q 724 1229 660 1261 q 857 1161 789 1197 q 990 1093 925 1125 q 1031 1081 1015 1081 l 1031 1083 q 1031 1088 1031 1086 q 1032 1097 1032 1090 l 1032 1242 l 1183 1242 l 1183 1096 q 1140 972 1183 1015 l 1140 974 q 1038 932 1100 932 m 528 0 q 372 32 444 0 q 244 118 299 64 q 158 245 190 172 q 126 400 126 318 l 126 563 q 158 719 126 646 q 244 846 190 792 q 372 932 299 900 q 528 964 444 964 l 1194 964 q 1351 932 1278 964 q 1478 846 1424 900 q 1564 719 1532 792 q 1596 563 1596 646 l 1596 400 q 1564 245 1596 318 q 1478 118 1532 172 q 1351 32 1424 64 q 1194 0 1278 0 l 528 0 m 290 400 q 309 308 290 351 q 360 233 328 265 q 435 183 392 201 q 528 164 479 164 l 1194 164 q 1286 183 1243 164 q 1362 233 1329 201 q 1413 308 1394 265 q 1432 400 1432 351 l 1432 563 q 1413 654 1432 611 q 1362 730 1394 697 q 1286 781 1329 763 q 1194 800 1243 800 l 528 800 q 435 781 479 800 q 360 730 392 763 q 309 654 328 697 q 290 563 290 611 l 290 400 z "},"š":{"ha":1486,"x_min":71,"x_max":1292,"o":"m 1060 1364 l 1129 1218 l 686 1010 l 243 1218 l 313 1364 l 686 1186 l 1060 1364 m 121 0 l 121 164 l 1010 164 q 1093 199 1058 164 q 1128 282 1128 233 q 1094 355 1128 331 q 1010 379 1060 379 l 353 379 q 244 401 294 379 q 154 462 193 424 q 93 551 115 500 q 71 661 71 603 q 93 772 71 719 q 153 862 115 824 q 243 922 192 900 q 353 944 294 944 l 1242 944 l 1242 782 l 353 782 q 270 748 303 782 q 235 667 238 714 q 272 578 239 614 q 353 543 304 543 l 1010 543 q 1119 524 1068 543 q 1209 472 1171 506 q 1269 389 1247 438 q 1292 282 1292 340 q 1269 172 1292 224 q 1209 83 1247 121 q 1119 22 1171 44 q 1010 0 1068 0 l 121 0 z "},"ú":{"ha":1615,"x_min":128,"x_max":1267,"o":"m 518 0 q 367 31 438 0 q 242 115 296 61 q 158 239 189 168 q 128 392 128 310 l 128 940 l 288 940 l 288 392 q 306 303 288 344 q 355 229 324 261 q 428 178 386 197 q 515 160 469 160 l 1108 160 l 1108 940 l 1267 940 l 1267 0 l 518 0 m 1097 1235 l 813 950 l 699 1064 l 985 1347 l 1097 1235 z "},"û":{"ha":1615,"x_min":128,"x_max":1267,"o":"m 518 0 q 367 31 438 0 q 242 115 296 61 q 158 239 189 168 q 128 392 128 310 l 128 940 l 288 940 l 288 392 q 306 303 288 344 q 355 229 324 261 q 428 178 386 197 q 515 160 469 160 l 1108 160 l 1108 940 l 1267 940 l 1267 0 l 518 0 m 799 1153 q 706 1110 754 1132 q 610 1065 658 1088 q 514 1019 561 1042 q 425 976 467 997 l 356 1122 l 799 1332 l 1242 1122 l 1172 976 l 799 1153 z "},"ü":{"ha":1615,"x_min":128,"x_max":1267,"o":"m 518 0 q 367 31 438 0 q 242 115 296 61 q 158 239 189 168 q 128 392 128 310 l 128 940 l 288 940 l 288 392 q 306 303 288 344 q 355 229 324 261 q 428 178 386 197 q 515 160 469 160 l 1108 160 l 1108 940 l 1267 940 l 1267 0 l 518 0 m 465 750 l 465 926 l 638 926 l 638 750 l 465 750 m 832 750 l 832 926 l 1003 926 l 1003 750 l 832 750 z "},"ù":{"ha":1615,"x_min":128,"x_max":1267,"o":"m 664 1375 l 950 1092 l 836 978 l 551 1263 l 664 1375 m 518 0 q 367 31 438 0 q 242 115 296 61 q 158 239 189 168 q 128 392 128 310 l 128 940 l 288 940 l 288 392 q 306 303 288 344 q 355 229 324 261 q 428 178 386 197 q 515 160 469 160 l 1108 160 l 1108 940 l 1267 940 l 1267 0 l 518 0 z "},"ý":{"ha":1642,"x_min":128,"x_max":1267,"o":"m 1267 938 l 1267 390 q 1236 239 1267 310 q 1152 115 1206 168 q 1028 31 1099 61 q 876 0 957 0 l 196 0 l 196 160 l 876 160 q 963 177 922 160 q 1035 224 1004 194 q 1086 293 1067 253 q 1108 379 1106 333 l 518 379 q 367 410 438 379 q 242 494 296 440 q 158 618 189 547 q 128 771 128 689 l 128 938 l 288 938 l 288 771 q 306 681 288 724 q 355 607 324 639 q 428 556 386 575 q 515 538 469 538 l 1108 538 l 1108 938 l 1267 938 m 1097 1260 l 813 975 l 699 1089 l 985 1372 l 1097 1260 z "},"ÿ":{"ha":1642,"x_min":128,"x_max":1267,"o":"m 1267 938 l 1267 390 q 1236 239 1267 310 q 1152 115 1206 168 q 1028 31 1099 61 q 876 0 957 0 l 196 0 l 196 160 l 876 160 q 963 177 922 160 q 1035 224 1004 194 q 1086 293 1067 253 q 1108 379 1106 333 l 518 379 q 367 410 438 379 q 242 494 296 440 q 158 618 189 547 q 128 771 128 689 l 128 938 l 288 938 l 288 771 q 306 681 288 724 q 355 607 324 639 q 428 556 386 575 q 515 538 469 538 l 1108 538 l 1108 938 l 1267 938 m 456 750 l 456 926 l 628 926 l 628 750 l 456 750 m 822 750 l 822 926 l 993 926 l 993 750 l 822 750 z "},"ž":{"ha":1514,"x_min":133,"x_max":1418,"o":"m 133 0 l 133 146 l 1094 779 l 135 779 l 135 938 l 1418 938 l 1418 799 l 442 160 l 1400 160 l 1400 0 l 133 0 m 1129 1364 l 1199 1218 l 756 1010 l 313 1218 l 382 1364 l 756 1186 l 1129 1364 z "}," ":{"ha":521,"x_min":0,"x_max":0,"o":""},"€":{"ha":1560,"x_min":89,"x_max":1353,"o":"m 583 779 q 458 741 514 779 q 372 643 401 703 l 1321 643 l 1321 483 l 351 483 l 351 454 l 1321 454 l 1321 296 l 371 296 q 454 197 399 235 q 581 160 510 160 l 1353 160 l 1353 0 l 583 0 q 431 31 501 0 q 307 114 360 61 q 243 197 269 151 q 203 296 217 243 l 89 296 l 89 454 l 192 454 l 192 483 l 89 483 l 89 643 l 204 643 q 254 761 219 707 q 339 854 289 815 q 451 915 389 893 q 583 938 514 938 l 1353 938 l 1353 779 l 583 779 z "},"Ă":{"ha":1489,"x_min":122,"x_max":1363,"o":"m 600 1268 l 600 1219 q 615 1181 600 1196 q 654 1165 631 1165 l 865 1165 q 905 1181 889 1165 q 921 1219 921 1196 l 921 1268 l 1060 1268 l 1060 1219 q 1044 1146 1060 1181 q 1003 1085 1029 1111 q 941 1043 976 1058 q 865 1028 906 1028 l 654 1028 q 518 1083 574 1028 q 477 1144 492 1110 q 463 1219 463 1179 l 463 1268 l 600 1268 m 1246 825 q 1331 697 1299 769 q 1363 540 1363 624 l 1363 0 l 1199 0 l 1199 367 l 286 367 l 286 0 l 122 0 l 122 540 q 154 697 122 624 q 241 824 186 769 q 369 910 296 878 q 524 942 442 942 l 961 942 q 1118 910 1046 942 q 1246 825 1190 878 m 1199 531 l 1199 543 q 1180 633 1199 590 q 1128 708 1161 675 q 1053 759 1096 740 q 961 778 1010 778 l 521 778 q 431 759 474 778 q 356 708 389 740 q 305 632 324 675 q 286 540 286 589 l 286 531 l 1199 531 z "},"Ā":{"ha":1489,"x_min":122,"x_max":1363,"o":"m 415 1172 l 1064 1172 l 1064 1014 l 415 1014 l 415 1172 m 1246 825 q 1331 697 1299 769 q 1363 540 1363 624 l 1363 0 l 1199 0 l 1199 367 l 286 367 l 286 0 l 122 0 l 122 540 q 154 697 122 624 q 241 824 186 769 q 369 910 296 878 q 524 942 442 942 l 961 942 q 1118 910 1046 942 q 1246 825 1190 878 m 1199 531 l 1199 543 q 1180 633 1199 590 q 1128 708 1161 675 q 1053 759 1096 740 q 961 778 1010 778 l 521 778 q 431 759 474 778 q 356 708 389 740 q 305 632 324 675 q 286 540 286 589 l 286 531 l 1199 531 z "},"Ą":{"ha":1488,"x_min":122,"x_max":1525,"o":"m 1246 825 q 1331 697 1299 769 q 1363 540 1363 624 l 1363 0 l 1199 0 l 1199 367 l 286 367 l 286 0 l 122 0 l 122 540 q 154 697 122 624 q 241 824 186 769 q 369 910 296 878 q 524 942 442 942 l 961 942 q 1118 910 1046 942 q 1246 825 1190 878 m 1199 531 l 1199 543 q 1180 633 1199 590 q 1128 708 1161 675 q 1053 759 1096 740 q 961 778 1010 778 l 521 778 q 431 759 474 778 q 356 708 389 740 q 305 632 324 675 q 286 540 286 589 l 286 531 l 1199 531 m 1307 -233 q 1257 -223 1281 -233 q 1214 -198 1233 -214 q 1183 -158 1195 -182 q 1172 -106 1172 -135 q 1190 -33 1172 -66 q 1238 25 1208 1 l 1238 24 q 1253 37 1244 28 q 1267 49 1261 45 l 1446 49 l 1319 -72 l 1320 -72 q 1304 -89 1312 -80 q 1297 -102 1297 -97 q 1302 -104 1300 -103 q 1309 -105 1305 -105 l 1306 -105 q 1308 -106 1307 -105 q 1310 -106 1308 -106 l 1525 -106 l 1525 -233 l 1307 -233 z "},"Ć":{"ha":1588,"x_min":122,"x_max":1314,"o":"m 1088 1260 l 803 975 l 689 1089 l 975 1372 l 1088 1260 m 240 117 q 153 244 185 171 q 122 400 122 317 l 122 549 q 154 705 122 632 q 240 832 186 778 q 367 918 294 886 q 524 950 440 950 l 1314 950 l 1314 786 l 524 786 q 431 767 475 786 q 355 716 388 749 q 303 640 322 683 q 285 549 285 597 l 285 400 q 303 309 285 351 q 354 234 322 267 q 429 183 386 201 q 521 164 472 164 l 1314 164 l 1314 0 l 524 0 q 367 32 440 0 q 240 117 293 64 z "},"Č":{"ha":1588,"x_min":122,"x_max":1314,"o":"m 1163 1364 l 1232 1218 l 789 1010 l 346 1218 l 415 1364 l 789 1186 l 1163 1364 m 240 117 q 153 244 185 171 q 122 400 122 317 l 122 549 q 154 705 122 632 q 240 832 186 778 q 367 918 294 886 q 524 950 440 950 l 1314 950 l 1314 786 l 524 786 q 431 767 475 786 q 355 716 388 749 q 303 640 322 683 q 285 549 285 597 l 285 400 q 303 309 285 351 q 354 234 322 267 q 429 183 386 201 q 521 164 472 164 l 1314 164 l 1314 0 l 524 0 q 367 32 440 0 q 240 117 293 64 z "},"Ĉ":{"ha":1588,"x_min":122,"x_max":1314,"o":"m 789 1178 q 697 1135 744 1157 q 600 1090 649 1113 q 504 1044 551 1067 q 415 1001 457 1022 l 346 1147 l 789 1357 l 1232 1147 l 1163 1001 l 789 1178 m 240 117 q 153 244 185 171 q 122 400 122 317 l 122 549 q 154 705 122 632 q 240 832 186 778 q 367 918 294 886 q 524 950 440 950 l 1314 950 l 1314 786 l 524 786 q 431 767 475 786 q 355 716 388 749 q 303 640 322 683 q 285 549 285 597 l 285 400 q 303 309 285 351 q 354 234 322 267 q 429 183 386 201 q 521 164 472 164 l 1314 164 l 1314 0 l 524 0 q 367 32 440 0 q 240 117 293 64 z "},"Ď":{"ha":1565,"x_min":122,"x_max":1400,"o":"m 1044 1364 l 1114 1218 l 671 1010 l 228 1218 l 297 1364 l 671 1186 l 1044 1364 m 122 942 l 999 942 q 1155 910 1082 942 q 1282 823 1228 878 q 1368 695 1336 768 q 1400 540 1400 622 l 1400 400 q 1368 245 1400 318 q 1281 118 1336 172 q 1153 32 1226 64 q 999 0 1081 0 l 122 0 l 122 942 m 1236 543 q 1217 633 1236 590 q 1166 708 1199 675 q 1090 759 1133 740 q 999 778 1047 778 l 286 778 l 286 164 l 1001 164 q 1092 183 1049 164 q 1167 233 1135 201 q 1217 308 1199 265 q 1236 400 1236 351 l 1236 543 z "},"Đ":{"ha":1511,"x_min":122,"x_max":1400,"o":"m 122 942 l 999 942 q 1155 910 1082 942 q 1282 823 1228 878 q 1368 695 1336 768 q 1400 540 1400 622 l 1400 400 q 1368 245 1400 318 q 1281 118 1336 172 q 1153 32 1226 64 q 999 0 1081 0 l 122 0 l 122 942 m 1236 543 q 1217 633 1236 590 q 1166 708 1199 675 q 1090 759 1133 740 q 999 778 1047 778 l 286 778 l 286 164 l 1001 164 q 1092 183 1049 164 q 1167 233 1135 201 q 1217 308 1199 265 q 1236 400 1236 351 l 1236 543 z "},"Ě":{"ha":1468,"x_min":122,"x_max":1314,"o":"m 1140 1364 l 1210 1218 l 767 1010 l 324 1218 l 393 1364 l 767 1186 l 1140 1364 m 356 719 q 285 551 285 649 l 1314 551 l 1314 399 l 285 399 q 304 308 285 350 q 356 233 324 265 q 431 183 388 201 q 522 164 474 164 l 1314 164 l 1314 0 l 522 0 q 367 32 440 0 q 240 118 294 64 q 154 245 186 172 q 122 400 122 318 l 122 551 q 154 708 122 635 q 240 835 186 781 q 367 921 294 889 q 522 953 440 953 l 1314 953 l 1314 789 l 522 789 q 356 719 425 789 z "},"Ė":{"ha":1468,"x_min":122,"x_max":1314,"o":"m 706 1144 l 935 1144 l 935 944 l 706 944 l 706 1144 m 356 719 q 285 551 285 649 l 1314 551 l 1314 399 l 285 399 q 304 308 285 350 q 356 233 324 265 q 431 183 388 201 q 522 164 474 164 l 1314 164 l 1314 0 l 522 0 q 367 32 440 0 q 240 118 294 64 q 154 245 186 172 q 122 400 122 318 l 122 551 q 154 708 122 635 q 240 835 186 781 q 367 921 294 889 q 522 953 440 953 l 1314 953 l 1314 789 l 522 789 q 356 719 425 789 z "},"Ē":{"ha":1468,"x_min":122,"x_max":1314,"o":"m 475 1172 l 1124 1172 l 1124 1014 l 475 1014 l 475 1172 m 356 719 q 285 551 285 649 l 1314 551 l 1314 399 l 285 399 q 304 308 285 350 q 356 233 324 265 q 431 183 388 201 q 522 164 474 164 l 1314 164 l 1314 0 l 522 0 q 367 32 440 0 q 240 118 294 64 q 154 245 186 172 q 122 400 122 318 l 122 551 q 154 708 122 635 q 240 835 186 781 q 367 921 294 889 q 522 953 440 953 l 1314 953 l 1314 789 l 522 789 q 356 719 425 789 z "},"Ę":{"ha":1493,"x_min":113,"x_max":1408,"o":"m 1408 -108 l 1408 -274 l 1124 -274 q 1058 -262 1090 -274 q 1001 -228 1026 -250 q 961 -175 976 -206 q 946 -108 946 -144 q 955 -52 946 -81 q 978 0 964 -24 l 514 0 q 358 32 431 0 q 231 118 285 64 q 144 245 176 172 q 113 400 113 318 l 113 563 q 144 719 113 646 q 231 846 176 792 q 359 932 286 900 q 514 964 432 964 l 1304 964 l 1304 800 l 514 800 q 423 782 465 800 q 346 731 381 764 q 294 653 313 696 q 276 563 276 611 l 1304 563 l 1304 399 l 276 399 q 295 308 276 350 q 347 233 314 265 q 422 183 379 201 q 514 164 465 164 l 1304 164 l 1304 0 l 1203 0 q 1171 -31 1188 -15 q 1139 -62 1154 -47 l 1140 -62 q 1119 -85 1128 -74 q 1110 -103 1110 -96 q 1116 -106 1113 -104 q 1125 -107 1119 -107 l 1122 -107 q 1124 -108 1124 -107 q 1126 -108 1124 -108 l 1408 -108 z "},"Ğ":{"ha":1553,"x_min":122,"x_max":1363,"o":"m 561 1268 l 561 1219 q 576 1181 561 1196 q 615 1165 592 1165 l 826 1165 q 866 1181 850 1165 q 882 1219 882 1196 l 882 1268 l 1021 1268 l 1021 1219 q 1006 1146 1021 1181 q 964 1085 990 1111 q 902 1043 938 1058 q 826 1028 867 1028 l 615 1028 q 479 1083 535 1028 q 438 1144 453 1110 q 424 1219 424 1179 l 424 1268 l 561 1268 m 524 0 q 369 30 442 0 q 241 113 296 60 q 154 237 186 165 q 122 390 122 308 l 122 553 q 154 708 122 635 q 240 835 186 781 q 367 922 294 890 q 524 954 440 954 l 1100 954 l 1100 790 l 524 790 q 432 772 475 790 q 356 720 389 753 q 305 645 324 688 q 286 556 286 603 l 286 390 q 305 301 286 342 q 356 229 324 260 q 431 181 389 199 q 521 164 474 164 l 961 164 q 1053 181 1010 164 q 1128 228 1096 199 q 1180 299 1161 258 q 1199 389 1199 340 l 1199 393 l 789 393 l 789 557 l 1363 557 l 1363 390 q 1331 238 1363 308 q 1244 114 1299 167 q 1117 31 1190 61 q 961 0 1044 0 l 524 0 z "},"Ĝ":{"ha":1604,"x_min":201,"x_max":1322,"o":"m 1322 65 l 1322 476 l 786 476 l 786 460 l 1303 460 l 1303 81 l 658 81 q 437 105 522 81 q 303 179 351 129 q 238 306 256 229 q 221 486 221 382 q 239 669 221 592 q 306 795 257 746 q 440 868 354 844 q 658 892 525 892 l 1297 892 l 1297 907 l 646 907 q 419 876 506 907 q 283 788 332 844 q 218 655 235 732 q 201 486 201 578 q 217 317 201 394 q 281 184 233 240 q 417 97 329 128 q 646 65 504 65 l 1322 65 m 783 1139 q 690 1094 739 1117 q 590 1047 640 1071 q 492 1001 540 1024 q 400 957 443 978 l 328 1106 l 783 1321 l 1239 1106 l 1167 957 l 783 1139 z "},"Ģ":{"ha":1488,"x_min":122,"x_max":1363,"o":"m 524 0 q 369 30 442 0 q 241 113 296 60 q 154 237 186 165 q 122 390 122 308 l 122 553 q 154 708 122 635 q 240 835 186 781 q 367 922 294 890 q 524 954 440 954 l 1100 954 l 1100 790 l 524 790 q 432 772 475 790 q 356 720 389 753 q 305 645 324 688 q 286 556 286 603 l 286 390 q 305 301 286 342 q 356 229 324 260 q 431 181 389 199 q 521 164 474 164 l 961 164 q 1053 181 1010 164 q 1128 228 1096 199 q 1180 299 1161 258 q 1199 389 1199 340 l 1199 393 l 789 393 l 789 557 l 1363 557 l 1363 390 q 1331 238 1363 308 q 1244 114 1299 167 q 1117 31 1190 61 q 961 0 1044 0 l 524 0 m 576 -257 l 714 36 l 860 -31 l 722 -325 l 576 -257 z "},"Ĥ":{"ha":1563,"x_min":121,"x_max":1289,"o":"m 704 1178 q 612 1135 660 1157 q 515 1090 564 1113 q 419 1044 467 1067 q 331 1001 372 1022 l 261 1147 l 704 1357 l 1147 1147 l 1078 1001 l 704 1178 m 1289 939 l 1289 0 l 1124 0 l 1124 410 l 285 410 l 285 0 l 121 0 l 121 939 l 285 939 l 285 572 l 1124 572 l 1124 939 l 1289 939 z "},"İ":{"ha":376,"x_min":75,"x_max":304,"o":"m 75 1186 l 304 1186 l 304 986 l 75 986 l 75 1186 m 104 0 l 104 938 l 267 938 l 267 0 l 104 0 z "},"Ī":{"ha":626,"x_min":-143,"x_max":506,"o":"m -143 1172 l 506 1172 l 506 1014 l -143 1014 l -143 1172 m 104 0 l 104 938 l 267 938 l 267 0 l 104 0 z "},"Į":{"ha":335,"x_min":26,"x_max":385,"o":"m 104 0 l 104 938 l 267 938 l 267 0 l 104 0 m 164 -237 q 113 -228 138 -237 q 70 -202 89 -218 q 39 -162 50 -185 q 27 -109 27 -138 q 45 -34 27 -68 q 95 25 64 0 l 95 24 q 109 36 100 28 q 123 49 118 45 l 304 49 l 176 -74 l 177 -74 q 161 -91 168 -83 q 154 -105 154 -99 q 159 -107 156 -106 q 166 -108 162 -108 l 163 -108 q 165 -108 164 -108 q 167 -109 165 -109 l 385 -109 l 385 -237 l 164 -237 z "},"Ĵ":{"ha":1413,"x_min":122,"x_max":1686,"o":"m 239 117 q 153 244 185 171 q 122 400 122 317 l 122 510 l 285 510 l 285 400 q 303 309 285 351 q 354 234 322 267 q 429 183 386 201 q 521 164 472 164 l 890 164 q 981 183 938 164 q 1057 233 1025 201 q 1108 308 1089 265 q 1128 399 1128 350 l 1128 939 l 1290 939 l 1290 400 q 1259 244 1290 317 q 1174 117 1228 171 q 1047 32 1119 64 q 890 0 974 0 l 524 0 q 366 32 439 0 q 239 117 293 64 m 1243 1175 q 1151 1132 1199 1154 q 1054 1087 1103 1110 q 958 1042 1006 1064 q 869 999 911 1019 l 800 1144 l 1243 1354 l 1686 1144 l 1617 999 l 1243 1175 z "},"Ķ":{"ha":1444,"x_min":122,"x_max":1315,"o":"m 1315 772 q 1272 591 1315 674 q 1154 453 1229 508 q 1271 315 1226 397 q 1315 133 1315 232 l 1315 0 l 1151 0 l 1151 133 q 1133 226 1151 183 q 1081 301 1114 269 q 1005 352 1049 333 q 913 371 961 371 l 285 371 l 285 0 l 122 0 l 122 938 l 285 938 l 285 536 l 913 536 q 1005 555 961 536 q 1081 606 1049 574 q 1133 681 1114 638 q 1151 772 1151 724 l 1151 938 l 1315 938 l 1315 772 m 557 -175 l 694 118 l 840 51 l 703 -243 l 557 -175 z "},"Ľ":{"ha":1403,"x_min":122,"x_max":1313,"o":"m 606 644 l 693 972 l 844 972 l 756 644 l 606 644 m 285 964 l 285 401 q 354 235 285 300 q 522 164 425 164 l 1313 164 l 1313 0 l 522 0 q 366 32 439 0 q 239 118 293 64 q 153 244 185 171 q 122 401 122 317 l 122 964 l 285 964 z "},"Ń":{"ha":1615,"x_min":122,"x_max":1368,"o":"m 1097 1260 l 813 975 l 699 1089 l 985 1372 l 1097 1260 m 1064 10 q 1028 32 1043 21 q 992 68 1013 43 q 843 242 922 149 q 682 431 764 335 q 520 622 600 528 q 372 796 440 715 q 336 810 360 810 q 303 800 318 810 q 286 771 288 790 l 286 0 l 122 0 l 122 782 l 124 788 q 147 867 126 832 q 197 926 167 901 q 264 963 226 950 q 339 975 301 975 q 426 957 383 975 q 500 899 468 939 l 499 900 q 808 535 654 717 q 1117 171 961 354 q 1154 156 1131 156 q 1185 167 1171 156 q 1203 194 1199 178 l 1203 965 l 1368 965 l 1368 182 q 1342 103 1363 139 q 1293 43 1322 68 q 1227 4 1264 18 q 1153 -10 1190 -10 q 1063 11 1106 -10 l 1064 10 z "},"Ň":{"ha":1615,"x_min":122,"x_max":1368,"o":"m 1172 1364 l 1242 1218 l 799 1010 l 356 1218 l 425 1364 l 799 1186 l 1172 1364 m 1064 10 q 1028 32 1043 21 q 992 68 1013 43 q 843 242 922 149 q 682 431 764 335 q 520 622 600 528 q 372 796 440 715 q 336 810 360 810 q 303 800 318 810 q 286 771 288 790 l 286 0 l 122 0 l 122 782 l 124 788 q 147 867 126 832 q 197 926 167 901 q 264 963 226 950 q 339 975 301 975 q 426 957 383 975 q 500 899 468 939 l 499 900 q 808 535 654 717 q 1117 171 961 354 q 1154 156 1131 156 q 1185 167 1171 156 q 1203 194 1199 178 l 1203 965 l 1368 965 l 1368 182 q 1342 103 1363 139 q 1293 43 1322 68 q 1227 4 1264 18 q 1153 -10 1190 -10 q 1063 11 1106 -10 l 1064 10 z "},"Ņ":{"ha":1615,"x_min":122,"x_max":1368,"o":"m 1064 10 q 1028 32 1043 21 q 992 68 1013 43 q 843 242 922 149 q 682 431 764 335 q 520 622 600 528 q 372 796 440 715 q 336 810 360 810 q 303 800 318 810 q 286 771 288 790 l 286 0 l 122 0 l 122 782 l 124 788 q 147 867 126 832 q 197 926 167 901 q 264 963 226 950 q 339 975 301 975 q 426 957 383 975 q 500 899 468 939 l 499 900 q 808 535 654 717 q 1117 171 961 354 q 1154 156 1131 156 q 1185 167 1171 156 q 1203 194 1199 178 l 1203 965 l 1368 965 l 1368 182 q 1342 103 1363 139 q 1293 43 1322 68 q 1227 4 1264 18 q 1153 -10 1190 -10 q 1063 11 1106 -10 l 1064 10 m 594 -175 l 732 118 l 878 51 l 740 -243 l 594 -175 z "},"Ő":{"ha":1700,"x_min":126,"x_max":1596,"o":"m 933 1176 l 647 892 l 533 1006 l 819 1289 l 933 1176 m 1211 1176 l 925 892 l 811 1006 l 1097 1289 l 1211 1176 m 528 0 q 372 32 444 0 q 244 118 299 64 q 158 245 190 172 q 126 400 126 318 l 126 563 q 158 719 126 646 q 244 846 190 792 q 372 932 299 900 q 528 964 444 964 l 1194 964 q 1351 932 1278 964 q 1478 846 1424 900 q 1564 719 1532 792 q 1596 563 1596 646 l 1596 400 q 1564 245 1596 318 q 1478 118 1532 172 q 1351 32 1424 64 q 1194 0 1278 0 l 528 0 m 290 400 q 309 308 290 351 q 360 233 328 265 q 435 183 392 201 q 528 164 479 164 l 1194 164 q 1286 183 1243 164 q 1362 233 1329 201 q 1413 308 1394 265 q 1432 400 1432 351 l 1432 563 q 1413 654 1432 611 q 1362 730 1394 697 q 1286 781 1329 763 q 1194 800 1243 800 l 528 800 q 435 781 479 800 q 360 730 392 763 q 309 654 328 697 q 290 563 290 611 l 290 400 z "},"Ō":{"ha":1700,"x_min":126,"x_max":1596,"o":"m 563 1172 l 1211 1172 l 1211 1014 l 563 1014 l 563 1172 m 528 0 q 372 32 444 0 q 244 118 299 64 q 158 245 190 172 q 126 400 126 318 l 126 563 q 158 719 126 646 q 244 846 190 792 q 372 932 299 900 q 528 964 444 964 l 1194 964 q 1351 932 1278 964 q 1478 846 1424 900 q 1564 719 1532 792 q 1596 563 1596 646 l 1596 400 q 1564 245 1596 318 q 1478 118 1532 172 q 1351 32 1424 64 q 1194 0 1278 0 l 528 0 m 290 400 q 309 308 290 351 q 360 233 328 265 q 435 183 392 201 q 528 164 479 164 l 1194 164 q 1286 183 1243 164 q 1362 233 1329 201 q 1413 308 1394 265 q 1432 400 1432 351 l 1432 563 q 1413 654 1432 611 q 1362 730 1394 697 q 1286 781 1329 763 q 1194 800 1243 800 l 528 800 q 435 781 479 800 q 360 730 392 763 q 309 654 328 697 q 290 563 290 611 l 290 400 z "},"Ŕ":{"ha":1624,"x_min":125,"x_max":1465,"o":"m 942 1260 l 657 975 l 543 1089 l 829 1372 l 942 1260 m 1317 414 q 1194 339 1263 361 q 1261 253 1225 297 q 1333 166 1297 210 q 1402 81 1368 122 q 1465 0 1436 39 l 1261 0 l 1001 325 l 288 325 l 288 0 l 125 0 l 125 940 l 1093 940 q 1187 926 1140 940 q 1271 889 1233 913 q 1374 779 1335 847 q 1414 632 1414 711 q 1389 512 1414 567 q 1317 414 1364 457 m 288 489 l 1099 489 q 1157 500 1129 489 q 1206 531 1185 511 q 1239 576 1226 550 q 1251 632 1251 601 q 1238 689 1251 663 q 1203 735 1225 715 q 1153 765 1182 754 q 1093 776 1124 776 l 288 776 l 288 489 z "},"Ř":{"ha":1624,"x_min":125,"x_max":1465,"o":"m 1085 1364 l 1154 1218 l 711 1010 l 268 1218 l 338 1364 l 711 1186 l 1085 1364 m 1317 414 q 1194 339 1263 361 q 1261 253 1225 297 q 1333 166 1297 210 q 1402 81 1368 122 q 1465 0 1436 39 l 1261 0 l 1001 325 l 288 325 l 288 0 l 125 0 l 125 940 l 1093 940 q 1187 926 1140 940 q 1271 889 1233 913 q 1374 779 1335 847 q 1414 632 1414 711 q 1389 512 1414 567 q 1317 414 1364 457 m 288 489 l 1099 489 q 1157 500 1129 489 q 1206 531 1185 511 q 1239 576 1226 550 q 1251 632 1251 601 q 1238 689 1251 663 q 1203 735 1225 715 q 1153 765 1182 754 q 1093 776 1124 776 l 288 776 l 288 489 z "},"Ŗ":{"ha":1561,"x_min":125,"x_max":1465,"o":"m 1317 414 q 1194 339 1263 361 q 1261 253 1225 297 q 1333 166 1297 210 q 1402 81 1368 122 q 1465 0 1436 39 l 1261 0 l 1001 325 l 288 325 l 288 0 l 125 0 l 125 940 l 1093 940 q 1187 926 1140 940 q 1271 889 1233 913 q 1374 779 1335 847 q 1414 632 1414 711 q 1389 512 1414 567 q 1317 414 1364 457 m 288 489 l 1099 489 q 1157 500 1129 489 q 1206 531 1185 511 q 1239 576 1226 550 q 1251 632 1251 601 q 1238 689 1251 663 q 1203 735 1225 715 q 1153 765 1182 754 q 1093 776 1124 776 l 288 776 l 288 489 z "},"Ś":{"ha":1519,"x_min":71,"x_max":1292,"o":"m 911 1260 l 626 975 l 513 1089 l 799 1372 l 911 1260 m 121 0 l 121 164 l 1010 164 q 1093 199 1058 164 q 1128 282 1128 233 q 1094 355 1128 331 q 1010 379 1060 379 l 353 379 q 244 401 294 379 q 154 462 193 424 q 93 551 115 500 q 71 661 71 603 q 93 772 71 719 q 153 862 115 824 q 243 922 192 900 q 353 944 294 944 l 1242 944 l 1242 782 l 353 782 q 270 748 303 782 q 235 667 238 714 q 272 578 239 614 q 353 543 304 543 l 1010 543 q 1119 524 1068 543 q 1209 472 1171 506 q 1269 389 1247 438 q 1292 282 1292 340 q 1269 172 1292 224 q 1209 83 1247 121 q 1119 22 1171 44 q 1010 0 1068 0 l 121 0 z "},"Ş":{"ha":1519,"x_min":71,"x_max":1292,"o":"m 442 -300 l 442 -147 l 603 -147 q 635 -132 622 -147 q 647 -97 647 -117 l 647 65 l 800 65 l 800 -97 q 784 -172 800 -136 q 741 -237 768 -208 q 677 -283 714 -265 q 597 -300 640 -300 l 442 -300 m 121 0 l 121 164 l 1010 164 q 1093 199 1058 164 q 1128 282 1128 233 q 1094 355 1128 331 q 1010 379 1060 379 l 353 379 q 244 401 294 379 q 154 462 193 424 q 93 551 115 500 q 71 661 71 603 q 93 772 71 719 q 153 862 115 824 q 243 922 192 900 q 353 944 294 944 l 1242 944 l 1242 782 l 353 782 q 270 748 303 782 q 235 667 238 714 q 272 578 239 614 q 353 543 304 543 l 1010 543 q 1119 524 1068 543 q 1209 472 1171 506 q 1269 389 1247 438 q 1292 282 1292 340 q 1269 172 1292 224 q 1209 83 1247 121 q 1119 22 1171 44 q 1010 0 1068 0 l 121 0 z "},"":{"ha":1519,"x_min":71,"x_max":1292,"o":"m 442 -300 l 442 -147 l 603 -147 q 635 -132 622 -147 q 647 -97 647 -117 l 647 65 l 800 65 l 800 -97 q 784 -172 800 -136 q 741 -237 768 -208 q 677 -283 714 -265 q 597 -300 640 -300 l 442 -300 m 121 0 l 121 164 l 1010 164 q 1093 199 1058 164 q 1128 282 1128 233 q 1094 355 1128 331 q 1010 379 1060 379 l 353 379 q 244 401 294 379 q 154 462 193 424 q 93 551 115 500 q 71 661 71 603 q 93 772 71 719 q 153 862 115 824 q 243 922 192 900 q 353 944 294 944 l 1242 944 l 1242 782 l 353 782 q 270 748 303 782 q 235 667 238 714 q 272 578 239 614 q 353 543 304 543 l 1010 543 q 1119 524 1068 543 q 1209 472 1171 506 q 1269 389 1247 438 q 1292 282 1292 340 q 1269 172 1292 224 q 1209 83 1247 121 q 1119 22 1171 44 q 1010 0 1068 0 l 121 0 z "},"Ŝ":{"ha":1519,"x_min":71,"x_max":1292,"o":"m 682 1178 q 590 1135 638 1157 q 493 1090 542 1113 q 397 1044 444 1067 q 308 1001 350 1022 l 239 1147 l 682 1357 l 1125 1147 l 1056 1001 l 682 1178 m 121 0 l 121 164 l 1010 164 q 1093 199 1058 164 q 1128 282 1128 233 q 1094 355 1128 331 q 1010 379 1060 379 l 353 379 q 244 401 294 379 q 154 462 193 424 q 93 551 115 500 q 71 661 71 603 q 93 772 71 719 q 153 862 115 824 q 243 922 192 900 q 353 944 294 944 l 1242 944 l 1242 782 l 353 782 q 270 748 303 782 q 235 667 238 714 q 272 578 239 614 q 353 543 304 543 l 1010 543 q 1119 524 1068 543 q 1209 472 1171 506 q 1269 389 1247 438 q 1292 282 1292 340 q 1269 172 1292 224 q 1209 83 1247 121 q 1119 22 1171 44 q 1010 0 1068 0 l 121 0 z "},"Ș":{"ha":1489,"x_min":71,"x_max":1292,"o":"m 121 0 l 121 164 l 1010 164 q 1093 199 1058 164 q 1128 282 1128 233 q 1094 355 1128 331 q 1010 379 1060 379 l 353 379 q 244 401 294 379 q 154 462 193 424 q 93 551 115 500 q 71 661 71 603 q 93 772 71 719 q 153 862 115 824 q 243 922 192 900 q 353 944 294 944 l 1242 944 l 1242 782 l 353 782 q 270 748 303 782 q 235 667 238 714 q 272 578 239 614 q 353 543 304 543 l 1010 543 q 1119 524 1068 543 q 1209 472 1171 506 q 1269 389 1247 438 q 1292 282 1292 340 q 1269 172 1292 224 q 1209 83 1247 121 q 1119 22 1171 44 q 1010 0 1068 0 l 121 0 m 543 -274 l 681 19 l 826 -47 l 689 -342 l 543 -274 z "},"Ț":{"ha":1449,"x_min":122,"x_max":1310,"o":"m 1310 776 l 797 776 l 797 0 l 633 0 l 633 776 l 122 776 l 122 940 l 1310 940 l 1310 776 m 571 -237 l 708 56 l 854 -11 l 717 -306 l 571 -237 z "},"Ŭ":{"ha":1413,"x_min":122,"x_max":1290,"o":"m 544 1240 l 544 1192 q 560 1153 544 1168 q 599 1138 575 1138 l 810 1138 q 849 1153 833 1138 q 865 1192 865 1168 l 865 1240 l 1004 1240 l 1004 1192 q 989 1118 1004 1153 q 947 1057 974 1083 q 885 1015 921 1031 q 810 1000 850 1000 l 599 1000 q 463 1056 518 1000 q 422 1117 436 1082 q 407 1192 407 1151 l 407 1240 l 544 1240 m 239 117 q 153 244 185 171 q 122 400 122 317 l 122 939 l 285 939 l 285 400 q 303 309 285 351 q 354 234 322 267 q 429 183 386 201 q 521 164 472 164 l 890 164 q 981 183 938 164 q 1057 233 1025 201 q 1108 308 1089 265 q 1128 399 1128 350 l 1128 939 l 1290 939 l 1290 400 q 1259 244 1290 317 q 1174 117 1228 171 q 1047 32 1119 64 q 890 0 974 0 l 524 0 q 366 32 439 0 q 239 117 293 64 z "},"Ű":{"ha":1653,"x_min":122,"x_max":1290,"o":"m 781 1176 l 494 892 l 381 1006 l 667 1289 l 781 1176 m 1058 1176 l 772 892 l 658 1006 l 944 1289 l 1058 1176 m 239 117 q 153 244 185 171 q 122 400 122 317 l 122 939 l 285 939 l 285 400 q 303 309 285 351 q 354 234 322 267 q 429 183 386 201 q 521 164 472 164 l 890 164 q 981 183 938 164 q 1057 233 1025 201 q 1108 308 1089 265 q 1128 399 1128 350 l 1128 939 l 1290 939 l 1290 400 q 1259 244 1290 317 q 1174 117 1228 171 q 1047 32 1119 64 q 890 0 974 0 l 524 0 q 366 32 439 0 q 239 117 293 64 z "},"Ū":{"ha":1413,"x_min":122,"x_max":1290,"o":"m 388 1172 l 1036 1172 l 1036 1014 l 388 1014 l 388 1172 m 239 117 q 153 244 185 171 q 122 400 122 317 l 122 939 l 285 939 l 285 400 q 303 309 285 351 q 354 234 322 267 q 429 183 386 201 q 521 164 472 164 l 890 164 q 981 183 938 164 q 1057 233 1025 201 q 1108 308 1089 265 q 1128 399 1128 350 l 1128 939 l 1290 939 l 1290 400 q 1259 244 1290 317 q 1174 117 1228 171 q 1047 32 1119 64 q 890 0 974 0 l 524 0 q 366 32 439 0 q 239 117 293 64 z "},"Ų":{"ha":1469,"x_min":122,"x_max":1290,"o":"m 688 -299 q 624 -287 654 -299 q 569 -254 593 -275 q 530 -203 544 -233 q 515 -137 515 -174 q 538 -43 515 -86 q 600 31 561 0 l 600 29 q 618 45 607 35 q 636 61 629 56 l 864 61 l 703 -93 l 704 -93 q 684 -115 693 -104 q 675 -132 675 -125 q 681 -135 678 -133 q 690 -136 685 -136 l 686 -136 q 688 -137 688 -136 q 692 -137 689 -137 l 965 -137 l 965 -299 l 688 -299 m 239 117 q 153 244 185 171 q 122 400 122 317 l 122 939 l 285 939 l 285 400 q 303 309 285 351 q 354 234 322 267 q 429 183 386 201 q 521 164 472 164 l 890 164 q 981 183 938 164 q 1057 233 1025 201 q 1108 308 1089 265 q 1128 399 1128 350 l 1128 939 l 1290 939 l 1290 400 q 1259 244 1290 317 q 1174 117 1228 171 q 1047 32 1119 64 q 890 0 974 0 l 524 0 q 366 32 439 0 q 239 117 293 64 z "},"Ů":{"ha":1653,"x_min":122,"x_max":1290,"o":"m 622 897 q 486 953 540 897 q 445 1013 460 978 q 431 1089 431 1049 l 431 1106 q 446 1180 431 1144 q 487 1242 461 1215 q 547 1285 513 1269 q 622 1300 582 1300 l 810 1300 q 884 1285 849 1300 q 946 1243 919 1269 q 988 1181 972 1217 q 1003 1106 1003 1146 l 1003 1089 q 988 1014 1003 1049 q 947 953 972 979 q 885 913 921 928 q 810 897 850 897 l 622 897 m 585 1144 q 568 1106 568 1128 l 568 1089 q 583 1050 568 1065 q 622 1035 599 1035 l 810 1035 q 849 1050 832 1035 q 865 1089 865 1065 l 865 1106 q 849 1145 865 1129 q 810 1161 832 1161 l 622 1161 q 585 1144 601 1161 m 239 117 q 153 244 185 171 q 122 400 122 317 l 122 939 l 285 939 l 285 400 q 303 309 285 351 q 354 234 322 267 q 429 183 386 201 q 521 164 472 164 l 890 164 q 981 183 938 164 q 1057 233 1025 201 q 1108 308 1089 265 q 1128 399 1128 350 l 1128 939 l 1290 939 l 1290 400 q 1259 244 1290 317 q 1174 117 1228 171 q 1047 32 1119 64 q 890 0 974 0 l 524 0 q 366 32 439 0 q 239 117 293 64 z "},"Ź":{"ha":1514,"x_min":108,"x_max":1328,"o":"m 992 1260 l 707 975 l 593 1089 l 879 1372 l 992 1260 m 307 0 q 221 19 258 0 q 158 70 183 39 q 121 140 133 101 q 108 218 108 179 q 128 309 108 275 q 171 365 147 343 q 201 386 183 376 q 236 401 219 396 q 450 472 338 436 q 677 544 563 508 q 905 615 792 579 q 1119 686 1018 650 q 1125 689 1122 689 q 1133 692 1128 689 l 1132 690 q 1151 702 1139 693 q 1164 729 1164 711 q 1163 740 1164 732 q 1158 756 1163 747 q 1147 770 1154 764 q 1125 776 1139 776 l 117 776 l 117 940 l 1135 940 q 1238 910 1199 940 q 1296 842 1276 879 q 1322 770 1315 804 q 1328 729 1328 736 q 1314 643 1328 676 q 1283 590 1300 610 q 1248 562 1265 571 q 1222 550 1231 553 l 299 247 l 301 249 q 281 233 286 243 q 276 213 276 224 q 288 181 276 194 q 315 164 299 167 l 1318 164 l 1318 0 l 307 0 z "},"Ż":{"ha":1514,"x_min":108,"x_max":1328,"o":"m 601 1169 l 831 1169 l 831 969 l 601 969 l 601 1169 m 307 0 q 221 19 258 0 q 158 70 183 39 q 121 140 133 101 q 108 218 108 179 q 128 309 108 275 q 171 365 147 343 q 201 386 183 376 q 236 401 219 396 q 450 472 338 436 q 677 544 563 508 q 905 615 792 579 q 1119 686 1018 650 q 1125 689 1122 689 q 1133 692 1128 689 l 1132 690 q 1151 702 1139 693 q 1164 729 1164 711 q 1163 740 1164 732 q 1158 756 1163 747 q 1147 770 1154 764 q 1125 776 1139 776 l 117 776 l 117 940 l 1135 940 q 1238 910 1199 940 q 1296 842 1276 879 q 1322 770 1315 804 q 1328 729 1328 736 q 1314 643 1328 676 q 1283 590 1300 610 q 1248 562 1265 571 q 1222 550 1231 553 l 299 247 l 301 249 q 281 233 286 243 q 276 213 276 224 q 288 181 276 194 q 315 164 299 167 l 1318 164 l 1318 0 l 307 0 z "},"ă":{"ha":1611,"x_min":129,"x_max":1343,"o":"m 440 0 q 268 49 344 0 q 154 181 192 99 q 136 237 143 207 q 129 299 129 267 q 154 415 129 361 q 222 510 179 469 q 319 574 264 551 q 436 597 375 597 l 1185 597 l 1185 625 q 1172 684 1185 656 q 1138 733 1160 713 q 1088 767 1117 754 q 1029 779 1060 779 l 335 779 l 335 938 l 1029 938 q 1151 913 1094 938 q 1251 847 1208 889 q 1319 747 1294 804 q 1343 625 1343 690 l 1343 -1 l 440 0 m 354 413 q 305 364 322 393 q 288 299 288 335 q 299 244 288 269 q 332 199 311 218 q 380 170 353 181 q 436 160 407 160 l 1182 160 l 1182 438 l 440 438 q 395 431 417 438 q 356 413 374 424 l 354 413 m 633 1268 l 633 1219 q 649 1181 633 1196 q 688 1165 664 1165 l 899 1165 q 938 1181 922 1165 q 954 1219 954 1196 l 954 1268 l 1093 1268 l 1093 1219 q 1078 1146 1093 1181 q 1036 1085 1063 1111 q 974 1043 1010 1058 q 899 1028 939 1028 l 688 1028 q 551 1083 607 1028 q 510 1144 525 1110 q 496 1219 496 1179 l 496 1268 l 633 1268 z "},"ā":{"ha":1611,"x_min":129,"x_max":1343,"o":"m 440 0 q 268 49 344 0 q 154 181 192 99 q 136 237 143 207 q 129 299 129 267 q 154 415 129 361 q 222 510 179 469 q 319 574 264 551 q 436 597 375 597 l 1185 597 l 1185 625 q 1172 684 1185 656 q 1138 733 1160 713 q 1088 767 1117 754 q 1029 779 1060 779 l 335 779 l 335 938 l 1029 938 q 1151 913 1094 938 q 1251 847 1208 889 q 1319 747 1294 804 q 1343 625 1343 690 l 1343 -1 l 440 0 m 354 413 q 305 364 322 393 q 288 299 288 335 q 299 244 288 269 q 332 199 311 218 q 380 170 353 181 q 436 160 407 160 l 1182 160 l 1182 438 l 440 438 q 395 431 417 438 q 356 413 374 424 l 354 413 m 450 1172 l 1099 1172 l 1099 1014 l 450 1014 l 450 1172 z "},"ą":{"ha":1504,"x_min":129,"x_max":1501,"o":"m 440 0 q 268 49 344 0 q 154 181 192 99 q 136 237 143 207 q 129 299 129 267 q 154 415 129 361 q 222 510 179 469 q 319 574 264 551 q 436 597 375 597 l 1185 597 l 1185 625 q 1172 684 1185 656 q 1138 733 1160 713 q 1088 767 1117 754 q 1029 779 1060 779 l 335 779 l 335 938 l 1029 938 q 1151 913 1094 938 q 1251 847 1208 889 q 1319 747 1294 804 q 1343 625 1343 690 l 1343 -1 l 440 0 m 354 413 q 305 364 322 393 q 288 299 288 335 q 299 244 288 269 q 332 199 311 218 q 380 170 353 181 q 436 160 407 160 l 1182 160 l 1182 438 l 440 438 q 395 431 417 438 q 356 413 374 424 l 354 413 m 1259 -252 q 1203 -242 1230 -252 q 1155 -213 1177 -231 q 1121 -169 1134 -195 q 1108 -111 1108 -143 q 1129 -28 1108 -66 q 1183 36 1149 10 l 1183 35 q 1199 49 1189 40 q 1214 63 1208 58 l 1414 63 l 1273 -72 l 1274 -72 q 1256 -91 1264 -82 q 1248 -106 1248 -100 q 1254 -108 1251 -107 q 1262 -110 1257 -110 l 1258 -110 q 1260 -110 1259 -110 q 1263 -111 1261 -111 l 1503 -111 l 1503 -252 l 1259 -252 z "},"ć":{"ha":1588,"x_min":122,"x_max":1314,"o":"m 1088 1260 l 803 975 l 689 1089 l 975 1372 l 1088 1260 m 240 117 q 153 244 185 171 q 122 400 122 317 l 122 549 q 154 705 122 632 q 240 832 186 778 q 367 918 294 886 q 524 950 440 950 l 1314 950 l 1314 786 l 524 786 q 431 767 475 786 q 355 716 388 749 q 303 640 322 683 q 285 549 285 597 l 285 400 q 303 309 285 351 q 354 234 322 267 q 429 183 386 201 q 521 164 472 164 l 1314 164 l 1314 0 l 524 0 q 367 32 440 0 q 240 117 293 64 z "},"č":{"ha":1588,"x_min":122,"x_max":1314,"o":"m 1163 1364 l 1232 1218 l 789 1010 l 346 1218 l 415 1364 l 789 1186 l 1163 1364 m 240 117 q 153 244 185 171 q 122 400 122 317 l 122 549 q 154 705 122 632 q 240 832 186 778 q 367 918 294 886 q 524 950 440 950 l 1314 950 l 1314 786 l 524 786 q 431 767 475 786 q 355 716 388 749 q 303 640 322 683 q 285 549 285 597 l 285 400 q 303 309 285 351 q 354 234 322 267 q 429 183 386 201 q 521 164 472 164 l 1314 164 l 1314 0 l 524 0 q 367 32 440 0 q 240 117 293 64 z "},"ĉ":{"ha":1588,"x_min":122,"x_max":1314,"o":"m 789 1178 q 697 1135 744 1157 q 600 1090 649 1113 q 504 1044 551 1067 q 415 1001 457 1022 l 346 1147 l 789 1357 l 1232 1147 l 1163 1001 l 789 1178 m 240 117 q 153 244 185 171 q 122 400 122 317 l 122 549 q 154 705 122 632 q 240 832 186 778 q 367 918 294 886 q 524 950 440 950 l 1314 950 l 1314 786 l 524 786 q 431 767 475 786 q 355 716 388 749 q 303 640 322 683 q 285 549 285 597 l 285 400 q 303 309 285 351 q 354 234 322 267 q 429 183 386 201 q 521 164 472 164 l 1314 164 l 1314 0 l 524 0 q 367 32 440 0 q 240 117 293 64 z "},"":{"ha":375,"x_min":25,"x_max":308,"o":"m 25 -175 l 163 118 l 308 51 l 171 -243 l 25 -175 z "},"":{"ha":375,"x_min":25,"x_max":308,"o":"m 25 -175 l 163 118 l 308 51 l 171 -243 l 25 -175 z "},"ď":{"ha":1542,"x_min":122,"x_max":1400,"o":"m 1063 1364 l 1132 1218 l 689 1010 l 246 1218 l 315 1364 l 689 1186 l 1063 1364 m 122 942 l 999 942 q 1155 910 1082 942 q 1282 823 1228 878 q 1368 695 1336 768 q 1400 540 1400 622 l 1400 400 q 1368 245 1400 318 q 1281 118 1336 172 q 1153 32 1226 64 q 999 0 1081 0 l 122 0 l 122 942 m 1236 543 q 1217 633 1236 590 q 1166 708 1199 675 q 1090 759 1133 740 q 999 778 1047 778 l 286 778 l 286 164 l 1001 164 q 1092 183 1049 164 q 1167 233 1135 201 q 1217 308 1199 265 q 1236 400 1236 351 l 1236 543 z "},"đ":{"ha":1510,"x_min":122,"x_max":1400,"o":"m 122 942 l 999 942 q 1155 910 1082 942 q 1282 823 1228 878 q 1368 695 1336 768 q 1400 540 1400 622 l 1400 400 q 1368 245 1400 318 q 1281 118 1336 172 q 1153 32 1226 64 q 999 0 1081 0 l 122 0 l 122 942 m 1236 543 q 1217 633 1236 590 q 1166 708 1199 675 q 1090 759 1133 740 q 999 778 1047 778 l 286 778 l 286 164 l 1001 164 q 1092 183 1049 164 q 1167 233 1135 201 q 1217 308 1199 265 q 1236 400 1236 351 l 1236 543 z "},"":{"ha":1433,"x_min":108,"x_max":1276,"o":"m 225 117 q 140 244 171 171 q 108 400 108 317 l 108 510 l 271 510 l 271 400 q 290 309 271 351 q 340 234 308 267 q 415 183 372 201 q 507 164 458 164 l 876 164 q 967 183 924 164 q 1043 233 1011 201 q 1094 308 1075 265 q 1114 399 1114 350 l 1114 939 l 1276 939 l 1276 400 q 1245 244 1276 317 q 1160 117 1214 171 q 1033 32 1106 64 q 876 0 960 0 l 510 0 q 352 32 425 0 q 225 117 279 64 z "},"﬏":{"ha":1433,"x_min":108,"x_max":1276,"o":"m 225 117 q 140 244 171 171 q 108 400 108 317 l 108 510 l 271 510 l 271 400 q 290 309 271 351 q 340 234 308 267 q 415 183 372 201 q 507 164 458 164 l 876 164 q 967 183 924 164 q 1043 233 1011 201 q 1094 308 1075 265 q 1114 399 1114 350 l 1114 939 l 1276 939 l 1276 400 q 1245 244 1276 317 q 1160 117 1214 171 q 1033 32 1106 64 q 876 0 960 0 l 510 0 q 352 32 425 0 q 225 117 279 64 z "},"ě":{"ha":1600,"x_min":104,"x_max":1317,"o":"m 104 642 q 130 758 104 704 q 199 852 156 813 q 299 915 243 892 q 418 938 356 938 l 1008 938 q 1126 914 1069 938 q 1224 849 1182 890 q 1292 754 1267 808 q 1317 638 1317 700 q 1291 520 1317 575 q 1223 425 1265 465 q 1124 362 1181 385 q 1004 339 1067 339 l 264 339 l 264 256 q 319 183 274 207 q 418 160 364 160 l 1250 160 l 1250 0 l 411 0 q 304 17 358 0 q 206 66 250 33 q 134 144 163 99 q 104 249 106 190 l 104 642 m 418 778 q 367 767 394 778 q 317 739 340 757 q 279 696 294 721 q 264 642 264 671 l 264 497 l 1008 497 q 1066 508 1039 497 q 1114 538 1093 519 q 1147 583 1135 557 q 1158 638 1158 608 q 1146 692 1158 667 q 1112 737 1133 718 q 1063 767 1090 756 q 1004 778 1035 778 l 418 778 m 1060 1364 l 1129 1218 l 686 1010 l 243 1218 l 313 1364 l 686 1186 l 1060 1364 z "},"ė":{"ha":1565,"x_min":104,"x_max":1317,"o":"m 104 642 q 130 758 104 704 q 199 852 156 813 q 299 915 243 892 q 418 938 356 938 l 1008 938 q 1126 914 1069 938 q 1224 849 1182 890 q 1292 754 1267 808 q 1317 638 1317 700 q 1291 520 1317 575 q 1223 425 1265 465 q 1124 362 1181 385 q 1004 339 1067 339 l 264 339 l 264 256 q 319 183 274 207 q 418 160 364 160 l 1250 160 l 1250 0 l 411 0 q 304 17 358 0 q 206 66 250 33 q 134 144 163 99 q 104 249 106 190 l 104 642 m 418 778 q 367 767 394 778 q 317 739 340 757 q 279 696 294 721 q 264 642 264 671 l 264 497 l 1008 497 q 1066 508 1039 497 q 1114 538 1093 519 q 1147 583 1135 557 q 1158 638 1158 608 q 1146 692 1158 667 q 1112 737 1133 718 q 1063 767 1090 756 q 1004 778 1035 778 l 418 778 m 613 1144 l 842 1144 l 842 944 l 613 944 l 613 1144 z "},"ē":{"ha":1600,"x_min":104,"x_max":1317,"o":"m 104 642 q 130 758 104 704 q 199 852 156 813 q 299 915 243 892 q 418 938 356 938 l 1008 938 q 1126 914 1069 938 q 1224 849 1182 890 q 1292 754 1267 808 q 1317 638 1317 700 q 1291 520 1317 575 q 1223 425 1265 465 q 1124 362 1181 385 q 1004 339 1067 339 l 264 339 l 264 256 q 319 183 274 207 q 418 160 364 160 l 1250 160 l 1250 0 l 411 0 q 304 17 358 0 q 206 66 250 33 q 134 144 163 99 q 104 249 106 190 l 104 642 m 418 778 q 367 767 394 778 q 317 739 340 757 q 279 696 294 721 q 264 642 264 671 l 264 497 l 1008 497 q 1066 508 1039 497 q 1114 538 1093 519 q 1147 583 1135 557 q 1158 638 1158 608 q 1146 692 1158 667 q 1112 737 1133 718 q 1063 767 1090 756 q 1004 778 1035 778 l 418 778 m 396 1172 l 1044 1172 l 1044 1014 l 396 1014 l 396 1172 z "},"ę":{"ha":1558,"x_min":131,"x_max":1343,"o":"m 131 642 q 156 758 131 704 q 226 852 182 813 q 326 915 269 892 q 444 938 382 938 l 1035 938 q 1152 914 1096 938 q 1251 849 1208 890 q 1318 754 1293 808 q 1343 638 1343 700 q 1317 520 1343 575 q 1249 425 1292 465 q 1150 362 1207 385 q 1031 339 1093 339 l 290 339 l 290 256 q 345 183 300 207 q 444 160 390 160 l 1276 160 l 1276 0 l 438 0 q 331 17 385 0 q 233 66 276 33 q 160 144 189 99 q 131 249 132 190 l 131 642 m 444 778 q 394 767 421 778 q 344 739 367 757 q 306 696 321 721 q 290 642 290 671 l 290 497 l 1035 497 q 1092 508 1065 497 q 1140 538 1119 519 q 1173 583 1161 557 q 1185 638 1185 608 q 1172 692 1185 667 q 1138 737 1160 718 q 1089 767 1117 756 q 1031 778 1061 778 l 444 778 m 715 -299 q 651 -287 682 -299 q 597 -254 621 -275 q 558 -203 572 -233 q 543 -137 543 -174 q 566 -43 543 -86 q 628 31 589 0 l 628 29 q 646 45 635 35 q 664 61 657 56 l 892 61 l 731 -93 l 732 -93 q 712 -115 721 -104 q 703 -132 703 -125 q 709 -135 706 -133 q 718 -136 713 -136 l 714 -136 q 716 -137 715 -136 q 719 -137 717 -137 l 993 -137 l 993 -299 l 715 -299 z "},"ğ":{"ha":1604,"x_min":513,"x_max":1110,"o":"m 650 1240 l 650 1192 q 665 1153 650 1168 q 704 1138 681 1138 l 915 1138 q 955 1153 939 1138 q 971 1192 971 1168 l 971 1240 l 1110 1240 l 1110 1192 q 1094 1118 1110 1153 q 1053 1057 1079 1083 q 991 1015 1026 1031 q 915 1000 956 1000 l 704 1000 q 568 1056 624 1000 q 527 1117 542 1082 q 513 1192 513 1151 l 513 1240 l 650 1240 z "},"ĝ":{"ha":1604,"x_min":343,"x_max":1229,"o":"m 786 1178 q 694 1135 742 1157 q 597 1090 646 1113 q 501 1044 549 1067 q 413 1001 454 1022 l 343 1147 l 786 1357 l 1229 1147 l 1160 1001 l 786 1178 z "},"ģ":{"ha":1475,"x_min":128,"x_max":1289,"o":"m 243 114 q 159 238 190 167 q 128 390 128 308 l 128 549 q 159 700 128 629 q 243 824 190 771 q 367 907 296 876 q 519 938 439 938 l 1289 938 l 1289 779 l 519 779 q 429 761 471 779 q 356 712 388 743 q 306 638 324 681 q 288 549 288 596 l 288 390 q 306 301 288 343 q 355 228 324 260 q 428 178 386 197 q 517 160 469 160 l 1129 160 l 1129 375 l 565 375 l 565 535 l 1289 535 l 1289 0 l 519 0 q 367 31 438 0 q 243 114 296 61 m 647 -265 l 785 28 l 931 -39 l 793 -333 l 647 -265 z "},"ĥ":{"ha":1615,"x_min":128,"x_max":1267,"o":"m 1151 824 q 1235 700 1204 771 q 1267 547 1267 629 l 1267 0 l 1108 0 l 1108 547 q 1090 637 1108 594 q 1040 710 1071 679 q 965 760 1008 742 q 875 779 922 779 l 518 779 q 428 760 471 779 q 355 710 386 742 q 306 637 324 679 q 288 547 288 594 l 288 0 l 128 0 l 128 1147 l 288 1147 l 288 863 q 394 918 336 899 q 518 938 451 938 l 875 938 q 1028 907 957 938 q 1151 824 1099 876 m 757 1178 q 665 1135 713 1157 q 568 1090 617 1113 q 472 1044 519 1067 q 383 1001 425 1022 l 314 1147 l 757 1357 l 1200 1147 l 1131 1001 l 757 1178 z "},"ī":{"ha":646,"x_min":-147,"x_max":501,"o":"m -147 1158 l 501 1158 l 501 1000 l -147 1000 l -147 1158 m 104 0 l 104 938 l 267 938 l 267 0 l 104 0 z "},"į":{"ha":335,"x_min":35,"x_max":367,"o":"m 104 0 l 104 938 l 267 938 l 267 0 l 104 0 m 162 -223 q 115 -215 138 -223 q 74 -190 92 -206 q 46 -153 57 -175 q 35 -104 35 -131 q 52 -34 35 -66 q 98 20 69 -2 l 98 19 q 111 31 103 24 q 124 43 119 39 l 293 43 l 174 -71 l 175 -71 q 160 -87 166 -79 q 153 -100 153 -95 q 158 -102 155 -101 q 164 -103 160 -103 l 161 -103 q 163 -103 162 -103 q 165 -104 163 -104 l 368 -104 l 368 -223 l 162 -223 z "},"ĵ":{"ha":1472,"x_min":128,"x_max":1267,"o":"m 285 938 l 1267 938 l 1267 390 q 1235 238 1267 308 q 1151 114 1204 167 q 1028 31 1099 61 q 876 0 958 0 l 519 0 q 366 31 436 0 q 243 114 296 61 q 159 238 190 167 q 128 390 128 308 l 128 496 l 288 496 l 288 390 q 306 301 288 343 q 355 228 324 260 q 428 178 386 197 q 517 160 469 160 l 876 160 q 965 178 924 160 q 1039 227 1007 196 q 1090 300 1071 258 q 1108 388 1108 342 l 1108 779 l 285 779 l 285 938 m 779 1175 q 687 1132 735 1154 q 590 1087 639 1110 q 494 1042 542 1064 q 406 999 447 1019 l 336 1144 l 779 1354 l 1222 1144 l 1153 999 l 779 1175 z "},"ķ":{"ha":1510,"x_min":131,"x_max":1382,"o":"m 1028 536 q 1139 482 1088 518 q 1227 397 1190 446 q 1285 288 1264 347 q 1306 161 1306 228 l 1306 0 l 1146 0 l 1146 164 q 1127 251 1146 210 q 1077 324 1108 293 q 1004 374 1046 356 q 915 393 963 393 l 290 393 l 290 0 l 131 0 l 131 939 l 290 939 l 290 553 l 831 553 q 999 747 911 649 q 1167 940 1086 844 l 1382 940 l 1028 536 m 531 -175 l 668 118 l 814 51 l 676 -243 l 531 -175 z "},"ľ":{"ha":1379,"x_min":-275,"x_max":1313,"o":"m 285 939 l 285 401 q 354 235 285 300 q 522 164 425 164 l 1313 164 l 1313 0 l 522 0 q 366 32 439 0 q 239 118 293 64 q 153 244 185 171 q 122 401 122 317 l 122 939 l 285 939 m 542 1349 l 611 1203 l 168 994 l -275 1203 l -206 1349 l 168 1171 l 542 1349 z "},"ń":{"ha":1426,"x_min":128,"x_max":1267,"o":"m 876 938 q 1028 907 957 938 q 1152 823 1099 876 q 1236 699 1206 769 q 1267 547 1267 628 l 1267 0 l 1108 0 l 1108 547 q 1090 636 1108 594 q 1040 710 1071 678 q 967 760 1008 742 q 879 779 925 779 l 288 779 l 288 0 l 128 0 l 128 938 l 876 938 m 896 1260 l 611 975 l 497 1089 l 783 1372 l 896 1260 z "},"ň":{"ha":1432,"x_min":128,"x_max":1267,"o":"m 876 938 q 1028 907 957 938 q 1152 823 1099 876 q 1236 699 1206 769 q 1267 547 1267 628 l 1267 0 l 1108 0 l 1108 547 q 1090 636 1108 594 q 1040 710 1071 678 q 967 760 1008 742 q 879 779 925 779 l 288 779 l 288 0 l 128 0 l 128 938 l 876 938 m 1029 1364 l 1099 1218 l 656 1010 l 213 1218 l 282 1364 l 656 1186 l 1029 1364 z "},"ņ":{"ha":1446,"x_min":128,"x_max":1267,"o":"m 876 938 q 1028 907 957 938 q 1152 823 1099 876 q 1236 699 1206 769 q 1267 547 1267 628 l 1267 0 l 1108 0 l 1108 547 q 1090 636 1108 594 q 1040 710 1071 678 q 967 760 1008 742 q 879 779 925 779 l 288 779 l 288 0 l 128 0 l 128 938 l 876 938 m 549 -175 l 686 118 l 832 51 l 694 -243 l 549 -175 z "},"ő":{"ha":1700,"x_min":126,"x_max":1596,"o":"m 929 1176 l 643 892 l 529 1006 l 815 1289 l 929 1176 m 1207 1176 l 921 892 l 807 1006 l 1093 1289 l 1207 1176 m 528 0 q 372 32 444 0 q 244 118 299 64 q 158 245 190 172 q 126 400 126 318 l 126 563 q 158 719 126 646 q 244 846 190 792 q 372 932 299 900 q 528 964 444 964 l 1194 964 q 1351 932 1278 964 q 1478 846 1424 900 q 1564 719 1532 792 q 1596 563 1596 646 l 1596 400 q 1564 245 1596 318 q 1478 118 1532 172 q 1351 32 1424 64 q 1194 0 1278 0 l 528 0 m 290 400 q 309 308 290 351 q 360 233 328 265 q 435 183 392 201 q 528 164 479 164 l 1194 164 q 1286 183 1243 164 q 1362 233 1329 201 q 1413 308 1394 265 q 1432 400 1432 351 l 1432 563 q 1413 654 1432 611 q 1362 730 1394 697 q 1286 781 1329 763 q 1194 800 1243 800 l 528 800 q 435 781 479 800 q 360 730 392 763 q 309 654 328 697 q 290 563 290 611 l 290 400 z "},"ō":{"ha":1700,"x_min":126,"x_max":1596,"o":"m 547 1172 l 1196 1172 l 1196 1014 l 547 1014 l 547 1172 m 528 0 q 372 32 444 0 q 244 118 299 64 q 158 245 190 172 q 126 400 126 318 l 126 563 q 158 719 126 646 q 244 846 190 792 q 372 932 299 900 q 528 964 444 964 l 1194 964 q 1351 932 1278 964 q 1478 846 1424 900 q 1564 719 1532 792 q 1596 563 1596 646 l 1596 400 q 1564 245 1596 318 q 1478 118 1532 172 q 1351 32 1424 64 q 1194 0 1278 0 l 528 0 m 290 400 q 309 308 290 351 q 360 233 328 265 q 435 183 392 201 q 528 164 479 164 l 1194 164 q 1286 183 1243 164 q 1362 233 1329 201 q 1413 308 1394 265 q 1432 400 1432 351 l 1432 563 q 1413 654 1432 611 q 1362 730 1394 697 q 1286 781 1329 763 q 1194 800 1243 800 l 528 800 q 435 781 479 800 q 360 730 392 763 q 309 654 328 697 q 290 563 290 611 l 290 400 z "},"ŕ":{"ha":1324,"x_min":126,"x_max":1197,"o":"m 126 0 l 126 550 q 157 701 126 631 q 241 825 188 772 q 365 908 294 878 q 517 939 436 939 l 1197 939 l 1197 781 l 517 781 q 427 762 469 781 q 353 712 385 743 q 303 639 322 681 q 285 550 285 597 l 285 0 l 126 0 m 949 1260 l 664 975 l 550 1089 l 836 1372 l 949 1260 z "},"ř":{"ha":1324,"x_min":126,"x_max":1197,"o":"m 126 0 l 126 550 q 157 701 126 631 q 241 825 188 772 q 365 908 294 878 q 517 939 436 939 l 1197 939 l 1197 781 l 517 781 q 427 762 469 781 q 353 712 385 743 q 303 639 322 681 q 285 550 285 597 l 285 0 l 126 0 m 1081 1364 l 1150 1218 l 707 1010 l 264 1218 l 333 1364 l 707 1186 l 1081 1364 z "},"ŗ":{"ha":1236,"x_min":25,"x_max":1197,"o":"m 126 0 l 126 550 q 157 701 126 631 q 241 825 188 772 q 365 908 294 878 q 517 939 436 939 l 1197 939 l 1197 781 l 517 781 q 427 762 469 781 q 353 712 385 743 q 303 639 322 681 q 285 550 285 597 l 285 0 l 126 0 m 25 -250 l 163 43 l 308 -24 l 171 -318 l 25 -250 z "},"ś":{"ha":1414,"x_min":71,"x_max":1292,"o":"m 911 1260 l 626 975 l 513 1089 l 799 1372 l 911 1260 m 121 0 l 121 164 l 1010 164 q 1093 199 1058 164 q 1128 282 1128 233 q 1094 355 1128 331 q 1010 379 1060 379 l 353 379 q 244 401 294 379 q 154 462 193 424 q 93 551 115 500 q 71 661 71 603 q 93 772 71 719 q 153 862 115 824 q 243 922 192 900 q 353 944 294 944 l 1242 944 l 1242 782 l 353 782 q 270 748 303 782 q 235 667 238 714 q 272 578 239 614 q 353 543 304 543 l 1010 543 q 1119 524 1068 543 q 1209 472 1171 506 q 1269 389 1247 438 q 1292 282 1292 340 q 1269 172 1292 224 q 1209 83 1247 121 q 1119 22 1171 44 q 1010 0 1068 0 l 121 0 z "},"ş":{"ha":1519,"x_min":442,"x_max":800,"o":"m 442 -303 l 442 -150 l 603 -150 q 635 -135 622 -150 q 647 -100 647 -119 l 647 63 l 800 63 l 800 -100 q 784 -175 800 -139 q 741 -240 768 -211 q 677 -285 714 -268 q 597 -303 640 -303 l 442 -303 z "},"":{"ha":1519,"x_min":442,"x_max":800,"o":"m 442 -303 l 442 -150 l 603 -150 q 635 -135 622 -150 q 647 -100 647 -119 l 647 63 l 800 63 l 800 -100 q 784 -175 800 -139 q 741 -240 768 -211 q 677 -285 714 -268 q 597 -303 640 -303 l 442 -303 z "},"ŝ":{"ha":1492,"x_min":71,"x_max":1292,"o":"m 704 1178 q 612 1135 660 1157 q 515 1090 564 1113 q 419 1044 467 1067 q 331 1001 372 1022 l 261 1147 l 704 1357 l 1147 1147 l 1078 1001 l 704 1178 m 121 0 l 121 164 l 1010 164 q 1093 199 1058 164 q 1128 282 1128 233 q 1094 355 1128 331 q 1010 379 1060 379 l 353 379 q 244 401 294 379 q 154 462 193 424 q 93 551 115 500 q 71 661 71 603 q 93 772 71 719 q 153 862 115 824 q 243 922 192 900 q 353 944 294 944 l 1242 944 l 1242 782 l 353 782 q 270 748 303 782 q 235 667 238 714 q 272 578 239 614 q 353 543 304 543 l 1010 543 q 1119 524 1068 543 q 1209 472 1171 506 q 1269 389 1247 438 q 1292 282 1292 340 q 1269 172 1292 224 q 1209 83 1247 121 q 1119 22 1171 44 q 1010 0 1068 0 l 121 0 z "},"ș":{"ha":1493,"x_min":71,"x_max":1292,"o":"m 121 0 l 121 164 l 1010 164 q 1093 199 1058 164 q 1128 282 1128 233 q 1094 355 1128 331 q 1010 379 1060 379 l 353 379 q 244 401 294 379 q 154 462 193 424 q 93 551 115 500 q 71 661 71 603 q 93 772 71 719 q 153 862 115 824 q 243 922 192 900 q 353 944 294 944 l 1242 944 l 1242 782 l 353 782 q 270 748 303 782 q 235 667 238 714 q 272 578 239 614 q 353 543 304 543 l 1010 543 q 1119 524 1068 543 q 1209 472 1171 506 q 1269 389 1247 438 q 1292 282 1292 340 q 1269 172 1292 224 q 1209 83 1247 121 q 1119 22 1171 44 q 1010 0 1068 0 l 121 0 m 535 -274 l 672 19 l 818 -47 l 681 -342 l 535 -274 z "},"ț":{"ha":1449,"x_min":128,"x_max":1288,"o":"m 1124 658 l 288 658 l 288 392 q 354 229 288 292 q 518 160 424 160 l 1288 160 l 1288 0 l 518 0 q 365 31 436 0 q 242 115 294 63 q 158 238 189 168 q 128 392 128 308 l 128 939 l 288 939 l 288 817 l 1124 817 l 1124 658 m 596 -265 l 733 28 l 879 -39 l 742 -333 l 596 -265 z "},"ŭ":{"ha":1615,"x_min":128,"x_max":1267,"o":"m 518 0 q 367 31 438 0 q 242 115 296 61 q 158 239 189 168 q 128 392 128 310 l 128 940 l 288 940 l 288 392 q 306 303 288 344 q 355 229 324 261 q 428 178 386 197 q 515 160 469 160 l 1108 160 l 1108 940 l 1267 940 l 1267 0 l 518 0 m 558 1226 l 558 1178 q 574 1139 558 1154 q 613 1124 589 1124 l 824 1124 q 863 1139 847 1124 q 879 1178 879 1154 l 879 1226 l 1018 1226 l 1018 1178 q 1003 1104 1018 1139 q 961 1043 988 1069 q 899 1001 935 1017 q 824 986 864 986 l 613 986 q 476 1042 532 986 q 435 1103 450 1068 q 421 1178 421 1138 l 421 1226 l 558 1226 z "},"ű":{"ha":1538,"x_min":128,"x_max":1267,"o":"m 518 0 q 367 31 438 0 q 242 115 296 61 q 158 239 189 168 q 128 392 128 310 l 128 940 l 288 940 l 288 392 q 306 303 288 344 q 355 229 324 261 q 428 178 386 197 q 515 160 469 160 l 1108 160 l 1108 940 l 1267 940 l 1267 0 l 518 0 m 821 1151 l 535 867 l 421 981 l 707 1264 l 821 1151 m 1099 1151 l 813 867 l 699 981 l 985 1264 l 1099 1151 z "},"ū":{"ha":1439,"x_min":128,"x_max":1267,"o":"m 518 0 q 367 31 438 0 q 242 115 296 61 q 158 239 189 168 q 128 392 128 310 l 128 940 l 288 940 l 288 392 q 306 303 288 344 q 355 229 324 261 q 428 178 386 197 q 515 160 469 160 l 1108 160 l 1108 940 l 1267 940 l 1267 0 l 518 0 m 396 1158 l 1044 1158 l 1044 1000 l 396 1000 l 396 1158 z "},"ų":{"ha":1615,"x_min":128,"x_max":1267,"o":"m 518 0 q 367 31 438 0 q 242 115 296 61 q 158 239 189 168 q 128 392 128 310 l 128 940 l 288 940 l 288 392 q 306 303 288 344 q 355 229 324 261 q 428 178 386 197 q 515 160 469 160 l 1108 160 l 1108 940 l 1267 940 l 1267 0 l 518 0 m 738 -278 q 674 -266 704 -278 q 619 -233 643 -254 q 580 -183 594 -212 q 565 -117 565 -153 q 588 -22 565 -65 q 650 51 611 21 l 650 50 q 668 66 657 56 q 686 82 679 76 l 914 82 l 753 -72 l 754 -72 q 734 -94 743 -83 q 725 -111 725 -104 q 731 -114 728 -112 q 740 -115 735 -115 l 736 -115 q 738 -116 738 -115 q 742 -117 739 -117 l 1015 -117 l 1015 -278 l 738 -278 z "},"ů":{"ha":1615,"x_min":128,"x_max":1267,"o":"m 518 0 q 367 31 438 0 q 242 115 296 61 q 158 239 189 168 q 128 392 128 310 l 128 940 l 288 940 l 288 392 q 306 303 288 344 q 355 229 324 261 q 428 178 386 197 q 515 160 469 160 l 1108 160 l 1108 940 l 1267 940 l 1267 0 l 518 0 m 631 901 q 494 957 549 901 q 453 1017 468 982 q 439 1093 439 1053 l 439 1110 q 454 1184 439 1149 q 495 1247 469 1219 q 556 1289 521 1274 q 631 1304 590 1304 l 818 1304 q 892 1289 857 1304 q 954 1247 928 1274 q 996 1185 981 1221 q 1011 1110 1011 1150 l 1011 1093 q 996 1018 1011 1053 q 955 958 981 983 q 894 917 929 932 q 818 901 858 901 l 631 901 m 593 1149 q 576 1110 576 1132 l 576 1093 q 592 1054 576 1069 q 631 1039 607 1039 l 818 1039 q 857 1054 840 1039 q 874 1093 874 1069 l 874 1110 q 857 1149 874 1133 q 818 1165 840 1165 l 631 1165 q 593 1149 610 1165 z "},"ź":{"ha":1514,"x_min":133,"x_max":1418,"o":"m 133 0 l 133 146 l 1094 779 l 135 779 l 135 938 l 1418 938 l 1418 799 l 442 160 l 1400 160 l 1400 0 l 133 0 m 979 1257 l 694 972 l 581 1086 l 867 1369 l 979 1257 z "},"ż":{"ha":1514,"x_min":133,"x_max":1418,"o":"m 639 1200 l 868 1200 l 868 1000 l 639 1000 l 639 1200 m 133 0 l 133 146 l 1094 779 l 135 779 l 135 938 l 1418 938 l 1418 799 l 442 160 l 1400 160 l 1400 0 l 133 0 z "},"S":{"ha":1414,"x_min":71,"x_max":1292,"o":"m 121 0 l 121 164 l 1010 164 q 1093 199 1058 164 q 1128 282 1128 233 q 1094 355 1128 331 q 1010 379 1060 379 l 353 379 q 244 401 294 379 q 154 462 193 424 q 93 551 115 500 q 71 661 71 603 q 93 772 71 719 q 153 862 115 824 q 243 922 192 900 q 353 944 294 944 l 1242 944 l 1242 782 l 353 782 q 270 748 303 782 q 235 667 238 714 q 272 578 239 614 q 353 543 304 543 l 1010 543 q 1119 524 1068 543 q 1209 472 1171 506 q 1269 389 1247 438 q 1292 282 1292 340 q 1269 172 1292 224 q 1209 83 1247 121 q 1119 22 1171 44 q 1010 0 1068 0 l 121 0 z "},"R":{"ha":1561,"x_min":125,"x_max":1465,"o":"m 1317 414 q 1194 339 1263 361 q 1261 253 1225 297 q 1333 166 1297 210 q 1402 81 1368 122 q 1465 0 1436 39 l 1261 0 l 1001 325 l 288 325 l 288 0 l 125 0 l 125 940 l 1093 940 q 1187 926 1140 940 q 1271 889 1233 913 q 1374 779 1335 847 q 1414 632 1414 711 q 1389 512 1414 567 q 1317 414 1364 457 m 288 489 l 1099 489 q 1157 500 1129 489 q 1206 531 1185 511 q 1239 576 1226 550 q 1251 632 1251 601 q 1238 689 1251 663 q 1203 735 1225 715 q 1153 765 1182 754 q 1093 776 1124 776 l 288 776 l 288 489 z "},"H":{"ha":1410,"x_min":121,"x_max":1289,"o":"m 1289 939 l 1289 0 l 1124 0 l 1124 410 l 285 410 l 285 0 l 121 0 l 121 939 l 285 939 l 285 572 l 1124 572 l 1124 939 l 1289 939 z "},"I":{"ha":335,"x_min":104,"x_max":267,"o":"m 104 0 l 104 938 l 267 938 l 267 0 l 104 0 z "},"O":{"ha":1733,"x_min":126,"x_max":1596,"o":"m 528 0 q 372 32 444 0 q 244 118 299 64 q 158 245 190 172 q 126 400 126 318 l 126 563 q 158 719 126 646 q 244 846 190 792 q 372 932 299 900 q 528 964 444 964 l 1194 964 q 1351 932 1278 964 q 1478 846 1424 900 q 1564 719 1532 792 q 1596 563 1596 646 l 1596 400 q 1564 245 1596 318 q 1478 118 1532 172 q 1351 32 1424 64 q 1194 0 1278 0 l 528 0 m 290 400 q 309 308 290 351 q 360 233 328 265 q 435 183 392 201 q 528 164 479 164 l 1194 164 q 1286 183 1243 164 q 1362 233 1329 201 q 1413 308 1394 265 q 1432 400 1432 351 l 1432 563 q 1413 654 1432 611 q 1362 730 1394 697 q 1286 781 1329 763 q 1194 800 1243 800 l 528 800 q 435 781 479 800 q 360 730 392 763 q 309 654 328 697 q 290 563 290 611 l 290 400 z "},"o":{"ha":1733,"x_min":126,"x_max":1596,"o":"m 528 0 q 372 32 444 0 q 244 118 299 64 q 158 245 190 172 q 126 400 126 318 l 126 563 q 158 719 126 646 q 244 846 190 792 q 372 932 299 900 q 528 964 444 964 l 1194 964 q 1351 932 1278 964 q 1478 846 1424 900 q 1564 719 1532 792 q 1596 563 1596 646 l 1596 400 q 1564 245 1596 318 q 1478 118 1532 172 q 1351 32 1424 64 q 1194 0 1278 0 l 528 0 m 290 400 q 309 308 290 351 q 360 233 328 265 q 435 183 392 201 q 528 164 479 164 l 1194 164 q 1286 183 1243 164 q 1362 233 1329 201 q 1413 308 1394 265 q 1432 400 1432 351 l 1432 563 q 1413 654 1432 611 q 1362 730 1394 697 q 1286 781 1329 763 q 1194 800 1243 800 l 528 800 q 435 781 479 800 q 360 730 392 763 q 309 654 328 697 q 290 563 290 611 l 290 400 z "},"T":{"ha":1432,"x_min":122,"x_max":1310,"o":"m 1310 776 l 797 776 l 797 0 l 633 0 l 633 776 l 122 776 l 122 940 l 1310 940 l 1310 776 z "},"N":{"ha":1542,"x_min":122,"x_max":1368,"o":"m 1064 10 q 1028 32 1043 21 q 992 68 1013 43 q 843 242 922 149 q 682 431 764 335 q 520 622 600 528 q 372 796 440 715 q 336 810 360 810 q 303 800 318 810 q 286 771 288 790 l 286 0 l 122 0 l 122 782 l 124 788 q 147 867 126 832 q 197 926 167 901 q 264 963 226 950 q 339 975 301 975 q 426 957 383 975 q 500 899 468 939 l 499 900 q 808 535 654 717 q 1117 171 961 354 q 1154 156 1131 156 q 1185 167 1171 156 q 1203 194 1199 178 l 1203 965 l 1368 965 l 1368 182 q 1342 103 1363 139 q 1293 43 1322 68 q 1227 4 1264 18 q 1153 -10 1190 -10 q 1063 11 1106 -10 l 1064 10 z "},"D":{"ha":1542,"x_min":122,"x_max":1400,"o":"m 122 942 l 999 942 q 1155 910 1082 942 q 1282 823 1228 878 q 1368 695 1336 768 q 1400 540 1400 622 l 1400 400 q 1368 245 1400 318 q 1281 118 1336 172 q 1153 32 1226 64 q 999 0 1081 0 l 122 0 l 122 942 m 1236 543 q 1217 633 1236 590 q 1166 708 1199 675 q 1090 759 1133 740 q 999 778 1047 778 l 286 778 l 286 164 l 1001 164 q 1092 183 1049 164 q 1167 233 1135 201 q 1217 308 1199 265 q 1236 400 1236 351 l 1236 543 z "},"E":{"ha":1475,"x_min":122,"x_max":1314,"o":"m 356 719 q 285 551 285 649 l 1314 551 l 1314 399 l 285 399 q 304 308 285 350 q 356 233 324 265 q 431 183 388 201 q 522 164 474 164 l 1314 164 l 1314 0 l 522 0 q 367 32 440 0 q 240 118 294 64 q 154 245 186 172 q 122 400 122 318 l 122 551 q 154 708 122 635 q 240 835 186 781 q 367 921 294 889 q 522 953 440 953 l 1314 953 l 1314 789 l 522 789 q 356 719 425 789 z "},"G":{"ha":1488,"x_min":122,"x_max":1363,"o":"m 524 0 q 369 30 442 0 q 241 113 296 60 q 154 237 186 165 q 122 390 122 308 l 122 553 q 154 708 122 635 q 240 835 186 781 q 367 922 294 890 q 524 954 440 954 l 1100 954 l 1100 790 l 524 790 q 432 772 475 790 q 356 720 389 753 q 305 645 324 688 q 286 556 286 603 l 286 390 q 305 301 286 342 q 356 229 324 260 q 431 181 389 199 q 521 164 474 164 l 961 164 q 1053 181 1010 164 q 1128 228 1096 199 q 1180 299 1161 258 q 1199 389 1199 340 l 1199 393 l 789 393 l 789 557 l 1363 557 l 1363 390 q 1331 238 1363 308 q 1244 114 1299 167 q 1117 31 1190 61 q 961 0 1044 0 l 524 0 z "},"U":{"ha":1447,"x_min":122,"x_max":1290,"o":"m 239 117 q 153 244 185 171 q 122 400 122 317 l 122 939 l 285 939 l 285 400 q 303 309 285 351 q 354 234 322 267 q 429 183 386 201 q 521 164 472 164 l 890 164 q 981 183 938 164 q 1057 233 1025 201 q 1108 308 1089 265 q 1128 399 1128 350 l 1128 939 l 1290 939 l 1290 400 q 1259 244 1290 317 q 1174 117 1228 171 q 1047 32 1119 64 q 890 0 974 0 l 524 0 q 366 32 439 0 q 239 117 293 64 z "},"C":{"ha":1436,"x_min":122,"x_max":1314,"o":"m 240 117 q 153 244 185 171 q 122 400 122 317 l 122 549 q 154 705 122 632 q 240 832 186 778 q 367 918 294 886 q 524 950 440 950 l 1314 950 l 1314 786 l 524 786 q 431 767 475 786 q 355 716 388 749 q 303 640 322 683 q 285 549 285 597 l 285 400 q 303 309 285 351 q 354 234 322 267 q 429 183 386 201 q 521 164 472 164 l 1314 164 l 1314 0 l 524 0 q 367 32 440 0 q 240 117 293 64 z "},"P":{"ha":1543,"x_min":131,"x_max":1389,"o":"m 292 0 l 131 0 l 131 940 l 1082 940 q 1197 915 1142 940 q 1296 849 1253 890 q 1364 751 1339 807 q 1389 635 1389 696 q 1363 517 1389 572 q 1294 420 1338 461 q 1193 355 1250 379 q 1075 331 1136 331 l 292 331 l 292 0 m 1078 494 q 1135 506 1108 494 q 1183 535 1163 517 q 1215 581 1203 554 q 1229 636 1228 607 q 1215 691 1228 665 q 1181 735 1201 717 q 1133 765 1160 754 q 1075 776 1106 776 l 292 776 l 292 494 l 1078 494 z "},"Q":{"ha":1733,"x_min":128,"x_max":1679,"o":"m 529 0 q 373 32 446 0 q 246 118 300 64 q 160 245 192 172 q 128 400 128 318 l 128 565 q 160 722 128 649 q 246 849 192 794 q 373 934 300 903 q 529 965 446 965 l 1196 965 q 1352 934 1279 965 q 1479 849 1425 903 q 1565 722 1533 794 q 1597 565 1597 649 l 1597 400 q 1576 273 1597 333 q 1519 164 1556 213 l 1679 164 l 1679 0 l 529 0 m 1206 164 q 1294 183 1253 164 q 1367 235 1336 203 q 1415 310 1397 267 q 1433 400 1433 353 l 1433 565 q 1415 657 1433 614 q 1363 733 1396 700 q 1288 784 1331 765 q 1196 803 1244 803 l 529 803 q 437 784 481 803 q 361 733 393 765 q 310 657 329 700 q 292 565 292 614 l 292 400 q 310 308 292 351 q 361 233 329 265 q 437 183 393 201 q 529 164 481 164 l 1206 164 z "},"J":{"ha":1413,"x_min":122,"x_max":1290,"o":"m 239 117 q 153 244 185 171 q 122 400 122 317 l 122 510 l 285 510 l 285 400 q 303 309 285 351 q 354 234 322 267 q 429 183 386 201 q 521 164 472 164 l 890 164 q 981 183 938 164 q 1057 233 1025 201 q 1108 308 1089 265 q 1128 399 1128 350 l 1128 939 l 1290 939 l 1290 400 q 1259 244 1290 317 q 1174 117 1228 171 q 1047 32 1119 64 q 890 0 974 0 l 524 0 q 366 32 439 0 q 239 117 293 64 z "},"L":{"ha":1435,"x_min":122,"x_max":1313,"o":"m 285 939 l 285 401 q 354 235 285 300 q 522 164 425 164 l 1313 164 l 1313 0 l 522 0 q 366 32 439 0 q 239 118 293 64 q 153 244 185 171 q 122 401 122 317 l 122 939 l 285 939 z "},"F":{"ha":1435,"x_min":122,"x_max":1313,"o":"m 354 703 q 303 628 321 671 q 285 535 285 586 l 285 532 l 1254 532 l 1254 369 l 285 369 l 285 0 l 122 0 l 122 535 q 153 692 122 619 q 239 819 185 765 q 366 906 293 874 q 522 938 439 938 l 1313 938 l 1313 774 l 522 774 q 431 755 474 774 q 356 703 389 736 l 354 703 z "},"A":{"ha":1488,"x_min":122,"x_max":1363,"o":"m 1246 825 q 1331 697 1299 769 q 1363 540 1363 624 l 1363 0 l 1199 0 l 1199 367 l 286 367 l 286 0 l 122 0 l 122 540 q 154 697 122 624 q 241 824 186 769 q 369 910 296 878 q 524 942 442 942 l 961 942 q 1118 910 1046 942 q 1246 825 1190 878 m 1199 531 l 1199 543 q 1180 633 1199 590 q 1128 708 1161 675 q 1053 759 1096 740 q 961 778 1010 778 l 521 778 q 431 759 474 778 q 356 708 389 740 q 305 632 324 675 q 286 540 286 589 l 286 531 l 1199 531 z "},"Z":{"ha":1457,"x_min":108,"x_max":1328,"o":"m 307 0 q 221 19 258 0 q 158 70 183 39 q 121 140 133 101 q 108 218 108 179 q 128 309 108 275 q 171 365 147 343 q 201 386 183 376 q 236 401 219 396 q 450 472 338 436 q 677 544 563 508 q 905 615 792 579 q 1119 686 1018 650 q 1125 689 1122 689 q 1133 692 1128 689 l 1132 690 q 1151 702 1139 693 q 1164 729 1164 711 q 1163 740 1164 732 q 1158 756 1163 747 q 1147 770 1154 764 q 1125 776 1139 776 l 117 776 l 117 940 l 1135 940 q 1238 910 1199 940 q 1296 842 1276 879 q 1322 770 1315 804 q 1328 729 1328 736 q 1314 643 1328 676 q 1283 590 1300 610 q 1248 562 1265 571 q 1222 550 1231 553 l 299 247 l 301 249 q 281 233 286 243 q 276 213 276 224 q 288 181 276 194 q 315 164 299 167 l 1318 164 l 1318 0 l 307 0 z "},"M":{"ha":1725,"x_min":126,"x_max":1571,"o":"m 1407 1 l 1407 753 q 1392 779 1407 769 q 1364 789 1376 789 l 1353 789 q 1328 783 1342 789 q 1308 758 1315 776 q 1296 732 1306 753 q 1269 675 1286 711 q 1230 590 1254 642 q 1169 464 1206 539 q 1094 310 1138 394 q 996 110 1051 225 q 973 69 986 89 q 943 35 960 50 q 906 10 926 19 q 863 0 885 0 l 840 0 q 757 28 786 1 q 701 108 728 54 l 390 754 l 390 753 q 378 774 383 767 q 367 786 374 781 q 349 789 361 789 l 332 789 q 306 776 318 789 q 290 751 293 764 l 290 1 l 126 1 l 126 758 q 142 829 126 796 q 186 889 158 863 q 250 933 214 915 q 326 953 286 950 l 349 953 q 388 950 372 953 q 421 940 404 947 l 419 940 q 453 924 436 936 q 485 898 471 913 q 512 867 500 883 q 529 839 524 851 q 544 814 543 825 q 695 499 619 654 q 847 185 771 344 l 1157 818 q 1194 879 1171 847 q 1256 931 1218 911 l 1254 931 q 1349 953 1299 953 l 1369 953 q 1442 935 1407 953 q 1505 889 1476 917 q 1551 827 1533 861 q 1571 760 1568 793 l 1571 1 l 1407 1 z "},"Y":{"ha":1413,"x_min":122,"x_max":1290,"o":"m 628 0 l 628 285 l 524 285 q 366 317 439 285 q 239 401 293 349 q 153 517 185 457 q 122 660 122 576 l 122 938 l 285 938 l 285 660 q 303 572 285 611 q 354 506 322 533 q 429 463 386 478 q 521 449 472 449 l 890 449 q 981 463 938 449 q 1057 505 1025 478 q 1108 570 1089 532 q 1128 657 1128 608 l 1128 938 l 1290 938 l 1290 660 q 1259 517 1290 576 q 1174 401 1228 457 q 1047 317 1119 349 q 890 285 974 285 l 792 285 l 792 0 l 628 0 z "},"X":{"ha":1413,"x_min":122,"x_max":1290,"o":"m 1174 439 q 1259 312 1228 385 q 1290 154 1290 239 l 1290 0 l 1128 0 l 1128 154 q 1109 246 1128 203 q 1058 322 1090 289 q 983 373 1026 354 q 892 392 940 392 l 522 392 q 431 373 474 392 q 356 322 388 354 q 304 247 324 290 q 285 157 285 204 l 285 0 l 122 0 l 122 154 q 153 312 122 239 q 239 439 185 385 q 259 457 250 449 q 279 474 268 465 q 259 491 268 483 q 239 510 250 499 l 239 508 q 153 624 185 564 q 122 769 122 685 l 122 940 l 285 940 l 285 769 q 303 681 285 721 q 354 614 322 642 q 429 571 386 586 q 521 556 472 556 l 901 556 q 988 571 947 556 q 1060 614 1029 586 q 1110 681 1092 642 q 1128 767 1128 719 l 1128 940 l 1290 940 l 1290 769 q 1259 624 1290 685 q 1174 508 1228 564 q 1153 490 1163 499 q 1133 474 1143 482 q 1153 457 1143 467 q 1172 440 1163 447 l 1174 439 z "},"B":{"ha":1535,"x_min":122,"x_max":1367,"o":"m 1367 683 q 1342 578 1367 626 q 1275 494 1318 531 q 1342 401 1317 454 q 1367 290 1367 349 q 1342 176 1367 229 q 1275 84 1317 124 q 1178 22 1233 44 q 1061 0 1122 0 l 122 0 l 122 956 l 1057 956 q 1142 945 1100 956 q 1222 914 1185 935 q 1290 863 1260 893 q 1339 793 1319 832 q 1367 683 1367 738 m 286 574 l 1063 574 q 1113 580 1088 574 q 1158 599 1138 586 q 1190 631 1178 611 q 1203 675 1203 650 q 1190 721 1203 700 q 1157 756 1178 742 q 1110 777 1136 769 q 1057 785 1083 785 l 286 785 l 286 574 m 1193 243 q 1203 289 1203 263 q 1192 338 1203 315 q 1162 378 1181 361 q 1117 406 1143 396 q 1064 417 1092 417 l 286 417 l 286 164 l 1064 164 q 1141 185 1104 164 q 1193 243 1178 207 z "},"g":{"ha":1475,"x_min":128,"x_max":1289,"o":"m 243 114 q 159 238 190 167 q 128 390 128 308 l 128 549 q 159 700 128 629 q 243 824 190 771 q 367 907 296 876 q 519 938 439 938 l 1289 938 l 1289 779 l 519 779 q 429 761 471 779 q 356 712 388 743 q 306 638 324 681 q 288 549 288 596 l 288 390 q 306 301 288 343 q 355 228 324 260 q 428 178 386 197 q 517 160 469 160 l 1129 160 l 1129 375 l 565 375 l 565 535 l 1289 535 l 1289 0 l 519 0 q 367 31 438 0 q 243 114 296 61 z "},"K":{"ha":1497,"x_min":122,"x_max":1315,"o":"m 1315 772 q 1272 591 1315 674 q 1154 453 1229 508 q 1271 315 1226 397 q 1315 133 1315 232 l 1315 0 l 1151 0 l 1151 133 q 1133 226 1151 183 q 1081 301 1114 269 q 1005 352 1049 333 q 913 371 961 371 l 285 371 l 285 0 l 122 0 l 122 938 l 285 938 l 285 536 l 913 536 q 1005 555 961 536 q 1081 606 1049 574 q 1133 681 1114 638 q 1151 772 1151 724 l 1151 938 l 1315 938 l 1315 772 z "},"V":{"ha":1628,"x_min":-10,"x_max":1500,"o":"m 700 0 l -10 940 l 189 940 l 742 206 q 1022 574 881 388 q 1300 940 1163 760 l 1500 940 l 783 0 l 700 0 z "},"W":{"ha":2303,"x_min":136,"x_max":2131,"o":"m 2131 939 l 2131 397 q 2099 241 2131 314 q 2013 114 2067 168 q 1885 28 1958 60 q 1728 -4 1811 -4 l 1453 -4 q 1295 28 1368 -4 q 1169 113 1222 60 q 1150 133 1161 122 q 1132 154 1139 144 q 1116 133 1124 143 q 1097 113 1108 124 q 971 28 1043 60 q 814 -4 899 -4 l 538 -4 q 381 28 454 -4 q 254 115 308 60 q 168 242 200 169 q 136 397 136 315 l 136 939 l 300 939 l 300 394 q 319 303 300 346 q 370 229 338 261 q 446 178 403 197 q 538 160 489 160 l 813 160 q 906 178 864 160 q 982 229 947 196 q 1033 306 1015 264 q 1051 397 1051 349 l 1051 939 l 1215 939 l 1215 397 q 1285 229 1215 299 q 1362 178 1319 196 q 1453 160 1404 160 l 1731 160 q 1822 178 1779 160 q 1897 229 1865 197 q 1948 305 1929 261 q 1967 397 1967 349 l 1967 939 l 2131 939 z "},"А":{"ha":1488,"x_min":122,"x_max":1363,"o":"m 1246 825 q 1331 697 1299 769 q 1363 540 1363 624 l 1363 0 l 1199 0 l 1199 367 l 286 367 l 286 0 l 122 0 l 122 540 q 154 697 122 624 q 241 824 186 769 q 369 910 296 878 q 524 942 442 942 l 961 942 q 1118 910 1046 942 q 1246 825 1190 878 m 1199 531 l 1199 543 q 1180 633 1199 590 q 1128 708 1161 675 q 1053 759 1096 740 q 961 778 1010 778 l 521 778 q 431 759 474 778 q 356 708 389 740 q 305 632 324 675 q 286 540 286 589 l 286 531 l 1199 531 z "},"В":{"ha":1535,"x_min":122,"x_max":1367,"o":"m 1367 683 q 1342 578 1367 626 q 1275 494 1318 531 q 1342 401 1317 454 q 1367 290 1367 349 q 1342 176 1367 229 q 1275 84 1317 124 q 1178 22 1233 44 q 1061 0 1122 0 l 122 0 l 122 956 l 1057 956 q 1142 945 1100 956 q 1222 914 1185 935 q 1290 863 1260 893 q 1339 793 1319 832 q 1367 683 1367 738 m 286 574 l 1063 574 q 1113 580 1088 574 q 1158 599 1138 586 q 1190 631 1178 611 q 1203 675 1203 650 q 1190 721 1203 700 q 1157 756 1178 742 q 1110 777 1136 769 q 1057 785 1083 785 l 286 785 l 286 574 m 1193 243 q 1203 289 1203 263 q 1192 338 1203 315 q 1162 378 1181 361 q 1117 406 1143 396 q 1064 417 1092 417 l 286 417 l 286 164 l 1064 164 q 1141 185 1104 164 q 1193 243 1178 207 z "},"Е":{"ha":1475,"x_min":122,"x_max":1314,"o":"m 356 719 q 285 551 285 649 l 1314 551 l 1314 399 l 285 399 q 304 308 285 350 q 356 233 324 265 q 431 183 388 201 q 522 164 474 164 l 1314 164 l 1314 0 l 522 0 q 367 32 440 0 q 240 118 294 64 q 154 245 186 172 q 122 400 122 318 l 122 551 q 154 708 122 635 q 240 835 186 781 q 367 921 294 889 q 522 953 440 953 l 1314 953 l 1314 789 l 522 789 q 356 719 425 789 z "},"е":{"ha":1478,"x_min":129,"x_max":1315,"o":"m 129 642 q 155 758 129 704 q 224 852 181 813 q 323 915 267 892 q 442 938 379 938 l 1008 938 q 1125 914 1069 938 q 1223 849 1181 890 q 1290 754 1265 808 q 1315 638 1315 700 q 1290 520 1315 575 q 1222 425 1264 465 q 1122 362 1179 385 q 1003 339 1065 339 l 288 339 l 288 256 q 308 214 293 232 q 343 184 322 196 q 390 166 364 172 q 442 160 415 160 l 1249 160 l 1249 0 l 436 0 q 328 17 382 0 q 230 66 274 33 q 158 144 186 99 q 129 249 131 190 l 129 642 m 300 692 q 288 642 288 667 l 288 497 l 1008 497 q 1065 508 1038 497 q 1113 538 1092 519 q 1145 583 1133 557 q 1157 638 1157 608 q 1144 692 1157 667 q 1110 737 1132 718 q 1061 767 1089 756 q 1003 778 1033 778 l 442 778 q 356 755 394 778 q 300 692 318 732 z "},"о":{"ha":1733,"x_min":135,"x_max":1565,"o":"m 525 0 q 374 31 444 0 q 249 115 303 61 q 165 239 196 168 q 135 390 135 310 l 135 549 q 165 700 135 629 q 249 824 196 771 q 374 907 303 876 q 525 938 444 938 l 1174 938 q 1326 907 1254 938 q 1451 824 1397 876 q 1535 700 1504 771 q 1565 549 1565 629 l 1565 390 q 1535 239 1565 310 q 1451 115 1504 168 q 1326 31 1397 61 q 1174 0 1254 0 l 525 0 m 294 390 q 313 301 294 343 q 362 227 331 258 q 435 178 393 196 q 525 160 478 160 l 1174 160 q 1264 178 1221 160 q 1338 227 1307 196 q 1388 301 1369 258 q 1407 390 1407 343 l 1407 549 q 1388 638 1407 596 q 1338 710 1369 679 q 1264 760 1307 742 q 1174 779 1221 779 l 525 779 q 435 760 478 779 q 362 710 393 742 q 313 638 331 679 q 294 549 294 596 l 294 390 z "},"р":{"ha":1543,"x_min":131,"x_max":1389,"o":"m 292 0 l 131 0 l 131 938 l 1082 938 q 1197 914 1142 938 q 1296 849 1253 890 q 1364 754 1339 808 q 1389 639 1389 700 q 1363 522 1389 576 q 1294 427 1338 468 q 1193 363 1250 386 q 1075 340 1136 340 l 292 340 l 292 0 m 1078 499 q 1135 510 1108 499 q 1183 540 1163 521 q 1215 585 1203 558 q 1229 640 1228 611 q 1215 694 1228 669 q 1181 738 1201 719 q 1133 768 1160 757 q 1075 779 1106 779 l 292 779 l 292 499 l 1078 499 z "},"Р":{"ha":1543,"x_min":124,"x_max":1415,"o":"m 289 0 l 124 0 l 124 964 l 1100 964 q 1219 940 1163 964 q 1320 873 1276 915 q 1390 774 1364 831 q 1415 656 1415 718 q 1389 535 1415 592 q 1318 438 1363 479 q 1215 372 1274 396 q 1093 349 1157 349 l 289 349 l 289 0 m 1096 513 q 1155 524 1126 513 q 1204 554 1183 535 q 1238 600 1225 574 q 1251 657 1250 626 q 1237 713 1250 688 q 1202 758 1224 739 q 1152 789 1181 778 q 1093 800 1124 800 l 289 800 l 289 513 l 1096 513 z "},"С":{"ha":1436,"x_min":122,"x_max":1314,"o":"m 240 117 q 153 244 185 171 q 122 400 122 317 l 122 563 q 154 719 122 646 q 240 846 186 792 q 367 932 294 900 q 524 964 440 964 l 1314 964 l 1314 800 l 524 800 q 431 781 475 800 q 355 730 388 763 q 303 654 322 697 q 285 563 285 611 l 285 400 q 303 309 285 351 q 354 234 322 267 q 429 183 386 201 q 521 164 472 164 l 1314 164 l 1314 0 l 524 0 q 367 32 440 0 q 240 117 293 64 z "},"Т":{"ha":1432,"x_min":122,"x_max":1310,"o":"m 1310 800 l 797 800 l 797 0 l 633 0 l 633 800 l 122 800 l 122 964 l 1310 964 l 1310 800 z "},"т":{"ha":2094,"x_min":143,"x_max":1903,"o":"m 1513 938 q 1664 907 1593 938 q 1788 823 1735 876 q 1872 699 1840 769 q 1903 547 1903 628 l 1903 0 l 1743 0 l 1743 547 q 1725 636 1743 594 q 1676 710 1707 678 q 1603 760 1644 742 q 1514 779 1561 779 l 1061 779 l 1061 0 l 903 0 l 903 779 l 303 779 l 303 0 l 143 0 l 143 938 l 1513 938 z "},"О":{"ha":1733,"x_min":126,"x_max":1596,"o":"m 528 0 q 372 32 444 0 q 244 118 299 64 q 158 245 190 172 q 126 400 126 318 l 126 563 q 158 719 126 646 q 244 846 190 792 q 372 932 299 900 q 528 964 444 964 l 1194 964 q 1351 932 1278 964 q 1478 846 1424 900 q 1564 719 1532 792 q 1596 563 1596 646 l 1596 400 q 1564 245 1596 318 q 1478 118 1532 172 q 1351 32 1424 64 q 1194 0 1278 0 l 528 0 m 290 400 q 309 308 290 351 q 360 233 328 265 q 435 183 392 201 q 528 164 479 164 l 1194 164 q 1286 183 1243 164 q 1362 233 1329 201 q 1413 308 1394 265 q 1432 400 1432 351 l 1432 563 q 1413 654 1432 611 q 1362 730 1394 697 q 1286 781 1329 763 q 1194 800 1243 800 l 528 800 q 435 781 479 800 q 360 730 392 763 q 309 654 328 697 q 290 563 290 611 l 290 400 z "},"Н":{"ha":1410,"x_min":121,"x_max":1289,"o":"m 1289 964 l 1289 0 l 1124 0 l 1124 435 l 285 435 l 285 0 l 121 0 l 121 964 l 285 964 l 285 597 l 1124 597 l 1124 964 l 1289 964 z "},"М":{"ha":1725,"x_min":126,"x_max":1571,"o":"m 1407 1 l 1407 753 q 1392 779 1407 769 q 1364 789 1376 789 l 1353 789 q 1328 783 1342 789 q 1308 758 1315 776 q 1296 732 1306 753 q 1269 675 1286 711 q 1230 590 1254 642 q 1169 464 1206 539 q 1094 310 1138 394 q 996 110 1051 225 q 973 69 986 89 q 943 35 960 50 q 906 10 926 19 q 863 0 885 0 l 840 0 q 757 28 786 1 q 701 108 728 54 l 390 754 l 390 753 q 378 774 383 767 q 367 786 374 781 q 349 789 361 789 l 332 789 q 306 776 318 789 q 290 751 293 764 l 290 1 l 126 1 l 126 758 q 142 829 126 796 q 186 889 158 863 q 250 933 214 915 q 326 953 286 950 l 349 953 q 388 950 372 953 q 421 940 404 947 l 419 940 q 453 924 436 936 q 485 898 471 913 q 512 867 500 883 q 529 839 524 851 q 544 814 543 825 q 695 499 619 654 q 847 185 771 344 l 1157 818 q 1194 879 1171 847 q 1256 931 1218 911 l 1254 931 q 1349 953 1299 953 l 1369 953 q 1442 935 1407 953 q 1505 889 1476 917 q 1551 827 1533 861 q 1571 760 1568 793 l 1571 1 l 1407 1 z "},"а":{"ha":1504,"x_min":129,"x_max":1315,"o":"m 440 0 q 268 49 344 0 q 154 181 192 99 q 136 237 143 207 q 129 299 129 267 q 154 415 129 361 q 222 510 179 469 q 319 574 264 551 q 436 597 375 597 l 1157 597 l 1157 625 q 1144 684 1157 656 q 1110 733 1132 713 q 1060 767 1089 754 q 1001 779 1032 779 l 335 779 l 335 938 l 1001 938 q 1124 913 1067 938 q 1224 847 1181 889 q 1291 747 1267 804 q 1315 625 1315 690 l 1315 -1 l 440 0 m 354 413 q 305 364 322 393 q 288 299 288 335 q 299 244 288 269 q 332 199 311 218 q 380 170 353 181 q 436 160 407 160 l 1157 160 l 1157 438 l 440 438 q 395 431 417 438 q 356 413 374 424 l 354 413 z "},"с":{"ha":1436,"x_min":128,"x_max":1289,"o":"m 243 114 q 159 238 190 167 q 128 390 128 308 l 128 549 q 159 700 128 629 q 243 824 190 771 q 367 907 296 876 q 519 938 439 938 l 1289 938 l 1289 779 l 519 779 q 429 760 471 779 q 356 710 388 742 q 306 638 324 679 q 288 549 288 596 l 288 390 q 306 301 288 343 q 355 228 324 260 q 428 178 386 197 q 517 160 469 160 l 1289 160 l 1289 0 l 519 0 q 367 31 438 0 q 243 114 296 61 z "},"х":{"ha":1615,"x_min":169,"x_max":1372,"o":"m 575 410 q 442 398 493 410 q 363 360 392 386 q 324 294 335 335 q 314 194 314 253 l 314 0 l 169 0 l 169 201 q 199 378 169 313 q 300 481 228 444 q 169 771 169 557 l 169 947 l 314 947 l 314 785 q 324 676 314 721 q 363 603 335 632 q 442 563 392 575 q 575 550 493 550 l 967 550 q 1099 563 1047 550 q 1178 603 1150 575 q 1217 676 1207 632 q 1228 785 1228 721 l 1228 947 l 1372 947 l 1372 771 q 1242 481 1372 557 q 1343 378 1314 444 q 1372 201 1372 313 l 1372 0 l 1228 0 l 1228 194 q 1217 294 1228 253 q 1178 360 1207 335 q 1099 398 1150 386 q 967 410 1049 410 l 575 410 z "},"Х":{"ha":1413,"x_min":122,"x_max":1290,"o":"m 1174 439 q 1259 312 1228 385 q 1290 154 1290 239 l 1290 0 l 1128 0 l 1128 154 q 1109 246 1128 203 q 1058 322 1090 289 q 983 373 1026 354 q 892 392 940 392 l 522 392 q 431 373 474 392 q 356 322 388 354 q 304 247 324 290 q 285 157 285 204 l 285 0 l 122 0 l 122 154 q 153 312 122 239 q 239 439 185 385 q 259 457 250 449 q 279 474 268 465 q 259 491 268 483 q 239 510 250 499 l 239 508 q 153 624 185 564 q 122 769 122 685 l 122 940 l 285 940 l 285 769 q 303 681 285 721 q 354 614 322 642 q 429 571 386 586 q 521 556 472 556 l 901 556 q 988 571 947 556 q 1060 614 1029 586 q 1110 681 1092 642 q 1128 767 1128 719 l 1128 940 l 1290 940 l 1290 769 q 1259 624 1290 685 q 1174 508 1228 564 q 1153 490 1163 499 q 1133 474 1143 482 q 1153 457 1143 467 q 1172 440 1163 447 l 1174 439 z "},"Я":{"ha":1561,"x_min":72,"x_max":1413,"o":"m 219 438 q 148 535 174 481 q 122 656 122 590 q 162 803 122 735 q 267 913 201 871 q 350 950 303 936 q 444 964 397 964 l 1413 964 l 1413 0 l 1250 0 l 1250 349 l 536 349 q 406 174 474 265 q 276 0 339 83 l 72 0 l 344 363 q 219 438 274 385 m 1250 800 l 444 800 q 384 789 413 800 q 334 758 356 778 q 299 713 313 739 q 286 656 286 686 q 299 599 286 625 q 332 554 311 574 q 381 524 353 535 q 439 513 408 513 l 1250 513 l 1250 800 z "},"К":{"ha":1444,"x_min":122,"x_max":1315,"o":"m 1315 808 q 1272 627 1315 710 q 1154 489 1229 544 q 1271 351 1226 433 q 1315 169 1315 268 l 1315 0 l 1151 0 l 1151 169 q 1133 263 1151 219 q 1081 338 1114 306 q 1005 388 1049 369 q 913 407 961 407 l 285 407 l 285 0 l 122 0 l 122 974 l 285 974 l 285 572 l 913 572 q 1005 591 961 572 q 1081 642 1049 610 q 1133 717 1114 674 q 1151 808 1151 760 l 1151 974 l 1315 974 l 1315 808 z "},"к":{"ha":1157,"x_min":0,"x_max":0,"o":""},"п":{"ha":1413,"x_min":128,"x_max":1267,"o":"m 876 938 q 1028 907 957 938 q 1152 823 1099 876 q 1236 699 1206 769 q 1267 547 1267 628 l 1267 0 l 1108 0 l 1108 547 q 1090 636 1108 594 q 1040 710 1071 678 q 967 760 1008 742 q 879 779 925 779 l 288 779 l 288 0 l 128 0 l 128 938 l 876 938 z "},"П":{"ha":1157,"x_min":0,"x_max":0,"o":""},"у":{"ha":1413,"x_min":128,"x_max":1267,"o":"m 1267 938 l 1267 390 q 1236 239 1267 310 q 1152 115 1206 168 q 1028 31 1099 61 q 876 0 957 0 l 196 0 l 196 160 l 876 160 q 963 177 922 160 q 1035 224 1004 194 q 1086 293 1067 253 q 1108 379 1106 333 l 518 379 q 367 410 438 379 q 242 494 296 440 q 158 618 189 547 q 128 771 128 689 l 128 938 l 288 938 l 288 771 q 306 681 288 724 q 355 607 324 639 q 428 556 386 575 q 515 538 469 538 l 1108 538 l 1108 938 l 1267 938 z "},"Ё":{"ha":1475,"x_min":122,"x_max":1314,"o":"m 356 731 q 285 563 285 660 l 1314 563 l 1314 399 l 285 399 q 304 308 285 350 q 356 233 324 265 q 431 183 388 201 q 522 164 474 164 l 1314 164 l 1314 0 l 522 0 q 367 32 440 0 q 240 118 294 64 q 154 245 186 172 q 122 400 122 318 l 122 563 q 154 719 122 646 q 240 846 186 792 q 367 932 294 900 q 522 964 440 964 l 1314 964 l 1314 800 l 522 800 q 356 731 425 800 m 532 1017 l 532 1197 l 708 1197 l 708 1017 l 532 1017 m 907 1017 l 907 1197 l 1083 1197 l 1083 1017 l 907 1017 z "},"Ї":{"ha":1157,"x_min":0,"x_max":0,"o":""},"ё":{"ha":1478,"x_min":129,"x_max":1315,"o":"m 129 642 q 155 758 129 704 q 224 852 181 813 q 323 915 267 892 q 442 938 379 938 l 1008 938 q 1125 914 1069 938 q 1223 849 1181 890 q 1290 754 1265 808 q 1315 638 1315 700 q 1290 520 1315 575 q 1222 425 1264 465 q 1122 362 1179 385 q 1003 339 1065 339 l 288 339 l 288 256 q 308 214 293 232 q 343 184 322 196 q 390 166 364 172 q 442 160 415 160 l 1249 160 l 1249 0 l 436 0 q 328 17 382 0 q 230 66 274 33 q 158 144 186 99 q 129 249 131 190 l 129 642 m 300 692 q 288 642 288 667 l 288 497 l 1008 497 q 1065 508 1038 497 q 1113 538 1092 519 q 1145 583 1133 557 q 1157 638 1157 608 q 1144 692 1157 667 q 1110 737 1132 718 q 1061 767 1089 756 q 1003 778 1033 778 l 442 778 q 356 755 394 778 q 300 692 318 732 m 451 997 l 451 1174 l 624 1174 l 624 997 l 451 997 m 818 997 l 818 1174 l 989 1174 l 989 997 l 818 997 z "},"Ѕ":{"ha":1414,"x_min":71,"x_max":1292,"o":"m 121 0 l 121 164 l 1010 164 q 1093 199 1058 164 q 1128 282 1128 233 q 1094 365 1128 331 q 1010 400 1060 400 l 353 400 q 244 422 294 400 q 154 483 193 444 q 93 572 115 521 q 71 682 71 624 q 93 792 71 740 q 153 883 115 844 q 243 943 192 921 q 353 965 294 965 l 1242 965 l 1242 803 l 353 803 q 270 769 303 803 q 235 688 238 735 q 272 599 239 635 q 353 564 304 564 l 1010 564 q 1119 542 1068 564 q 1209 481 1171 519 q 1269 392 1247 443 q 1292 282 1292 340 q 1269 172 1292 224 q 1209 83 1247 121 q 1119 22 1171 44 q 1010 0 1068 0 l 121 0 z "},"ѕ":{"ha":1414,"x_min":79,"x_max":1267,"o":"m 126 0 l 126 160 l 993 160 q 1074 193 1040 160 q 1108 274 1108 226 q 1099 319 1108 299 q 1074 356 1090 340 q 1038 381 1058 372 q 993 390 1017 390 l 353 390 q 247 412 296 390 q 160 470 197 433 q 101 557 122 507 q 79 664 79 607 q 101 772 79 721 q 159 860 122 822 q 246 919 196 897 q 353 940 296 940 l 1219 940 l 1219 782 l 353 782 q 308 773 329 782 q 272 748 288 764 q 248 712 257 732 q 238 669 239 692 q 273 583 242 618 q 353 549 304 549 l 993 549 q 1100 527 1050 549 q 1187 469 1150 506 q 1245 382 1224 432 q 1267 275 1267 332 q 1245 168 1267 218 q 1187 81 1224 118 q 1100 22 1150 43 q 993 0 1050 0 l 126 0 z "},"ј":{"ha":1472,"x_min":128,"x_max":1267,"o":"m 285 938 l 1267 938 l 1267 390 q 1235 238 1267 308 q 1151 114 1204 167 q 1028 31 1099 61 q 876 0 958 0 l 519 0 q 366 31 436 0 q 243 114 296 61 q 159 238 190 167 q 128 390 128 308 l 128 496 l 288 496 l 288 390 q 306 301 288 343 q 355 228 324 260 q 428 178 386 197 q 517 160 469 160 l 876 160 q 965 178 924 160 q 1039 227 1007 196 q 1090 300 1071 258 q 1108 388 1108 342 l 1108 779 l 285 779 l 285 938 z "},"ї":{"ha":646,"x_min":39,"x_max":576,"o":"m 39 997 l 39 1174 l 211 1174 l 211 997 l 39 997 m 406 997 l 406 1174 l 576 1174 l 576 997 l 406 997 z "},"Ќ":{"ha":1444,"x_min":122,"x_max":1315,"o":"m 1315 808 q 1272 627 1315 710 q 1154 489 1229 544 q 1271 351 1226 433 q 1315 169 1315 268 l 1315 0 l 1151 0 l 1151 169 q 1133 263 1151 219 q 1081 338 1114 306 q 1005 388 1049 369 q 913 407 961 407 l 285 407 l 285 0 l 122 0 l 122 974 l 285 974 l 285 572 l 913 572 q 1005 591 961 572 q 1081 642 1049 610 q 1133 717 1114 674 q 1151 808 1151 760 l 1151 974 l 1315 974 l 1315 808 m 903 1250 l 618 965 l 504 1079 l 790 1363 l 903 1250 z "},"н":{"ha":1410,"x_min":121,"x_max":1289,"o":"m 1289 939 l 1289 0 l 1124 0 l 1124 410 l 285 410 l 285 0 l 121 0 l 121 939 l 285 939 l 285 572 l 1124 572 l 1124 939 l 1289 939 z "},"Æ":{"ha":2963,"x_min":147,"x_max":2726,"o":"m 1269 847 q 1354 719 1322 792 q 1386 563 1386 646 l 1386 0 l 1222 0 l 1222 413 l 310 413 l 310 0 l 147 0 l 147 563 q 179 719 147 646 q 265 846 211 792 q 392 932 319 900 q 547 964 465 964 l 986 964 q 1142 932 1069 964 q 1269 847 1215 900 m 310 575 l 310 563 l 310 543 l 278 575 l 310 575 m 1222 575 l 1256 575 l 1222 543 l 1222 565 l 1222 575 m 544 800 q 457 782 499 800 q 383 733 415 764 q 332 662 351 703 q 310 575 313 621 l 1222 575 q 1200 662 1219 621 q 1149 733 1181 703 q 1074 782 1117 764 q 986 800 1032 800 l 544 800 m 1768 731 q 1717 653 1735 696 q 1699 563 1699 611 l 2726 563 l 2726 399 l 1699 399 q 1717 308 1699 350 q 1769 233 1736 265 q 1844 183 1801 201 q 1936 164 1888 164 l 2726 164 l 2726 0 l 1936 0 q 1780 32 1853 0 q 1653 118 1707 64 q 1567 245 1599 172 q 1535 400 1535 318 l 1535 563 q 1567 719 1535 646 q 1653 846 1599 792 q 1781 932 1708 900 q 1936 964 1854 964 l 2726 964 l 2726 800 l 1936 800 q 1845 782 1888 800 q 1768 731 1803 764 z "},"ﬂ":{"ha":2781,"x_min":161,"x_max":2625,"o":"m 388 710 q 338 638 356 679 q 319 547 319 596 l 319 544 l 1264 544 l 1264 385 l 319 385 l 319 0 l 161 0 l 161 547 q 192 701 161 631 q 275 824 222 771 q 399 907 328 876 q 551 938 469 938 l 1319 938 l 1319 779 l 551 779 q 389 710 456 779 l 388 710 m 1625 938 l 1625 392 q 1692 229 1625 292 q 1856 160 1761 160 l 2625 160 l 2625 0 l 1856 0 q 1703 31 1774 0 q 1579 115 1632 63 q 1496 238 1526 168 q 1465 392 1465 308 l 1465 938 l 1625 938 z "},"Ĺ":{"ha":1435,"x_min":122,"x_max":1313,"o":"m 285 939 l 285 401 q 354 235 285 300 q 522 164 425 164 l 1313 164 l 1313 0 l 522 0 q 366 32 439 0 q 239 118 293 64 q 153 244 185 171 q 122 401 122 317 l 122 939 l 285 939 m 897 1258 l 613 974 l 499 1088 l 785 1371 l 897 1258 z "},"Ļ":{"ha":1435,"x_min":122,"x_max":1313,"o":"m 285 939 l 285 401 q 354 235 285 300 q 522 164 425 164 l 1313 164 l 1313 0 l 522 0 q 366 32 439 0 q 239 118 293 64 q 153 244 185 171 q 122 401 122 317 l 122 939 l 285 939 m 567 -175 l 704 118 l 850 51 l 713 -243 l 567 -175 z "},"ĺ":{"ha":1346,"x_min":128,"x_max":1288,"o":"m 288 938 l 288 392 q 354 229 288 292 q 518 160 424 160 l 1288 160 l 1288 0 l 518 0 q 365 31 436 0 q 242 115 294 63 q 158 238 189 168 q 128 392 128 308 l 128 938 l 288 938 m 853 1257 l 568 972 l 454 1086 l 740 1369 l 853 1257 z "},"ļ":{"ha":1346,"x_min":128,"x_max":1288,"o":"m 288 938 l 288 392 q 354 229 288 292 q 518 160 424 160 l 1288 160 l 1288 0 l 518 0 q 365 31 436 0 q 242 115 294 63 q 158 238 189 168 q 128 392 128 308 l 128 938 l 288 938 m 522 -175 l 660 118 l 806 51 l 668 -243 l 522 -175 z "},"Ť":{"ha":1432,"x_min":122,"x_max":1310,"o":"m 1310 776 l 797 776 l 797 0 l 633 0 l 633 776 l 122 776 l 122 940 l 1310 940 l 1310 776 m 1064 1363 l 1133 1217 l 690 1008 l 247 1217 l 317 1363 l 690 1185 l 1064 1363 z "},"ť":{"ha":1846,"x_min":138,"x_max":1688,"o":"m 1133 657 l 297 657 l 297 392 q 364 229 297 292 q 528 160 433 160 l 1297 160 l 1297 0 l 528 0 q 375 31 446 0 q 251 115 304 63 q 168 238 199 168 q 138 392 138 308 l 138 938 l 297 938 l 297 815 l 1133 815 l 1133 657 m 1419 603 l 1514 947 l 1688 947 l 1593 603 l 1419 603 z "},"«":{"ha":0,"x_min":0,"x_max":0,"o":""},"‹":{"ha":0,"x_min":0,"x_max":0,"o":""},"›":{"ha":0,"x_min":0,"x_max":0,"o":""},"»":{"ha":0,"x_min":0,"x_max":0,"o":""},"®":{"ha":0,"x_min":0,"x_max":0,"o":""},"™":{"ha":2990,"x_min":0,"x_max":0,"o":""},"И":{"ha":1542,"x_min":122,"x_max":1368,"o":"m 428 11 q 338 -10 383 -10 q 263 4 300 -10 q 197 43 226 18 q 148 103 168 68 q 122 182 128 139 l 122 965 l 288 965 l 288 194 q 306 167 292 178 q 336 156 319 156 q 372 171 358 156 l 992 900 l 990 899 q 1065 957 1022 939 q 1151 975 1107 975 q 1226 963 1189 975 q 1294 926 1264 950 q 1344 867 1324 901 q 1367 788 1364 832 l 1368 782 l 1368 0 l 1204 0 l 1204 772 q 1186 800 1201 790 q 1154 810 1171 810 q 1117 796 1129 810 l 499 68 q 463 32 478 43 q 426 10 447 21 l 428 11 z "},"З":{"ha":1586,"x_min":125,"x_max":1449,"o":"m 1449 563 q 1439 513 1446 529 q 1421 483 1432 497 q 1444 440 1440 464 q 1449 389 1449 415 l 1449 193 q 1434 135 1446 165 q 1394 74 1422 106 q 1312 17 1358 33 q 1204 0 1265 0 l 374 0 q 340 3 360 0 q 297 10 319 6 q 251 24 274 15 q 211 46 229 33 q 125 226 125 108 l 125 308 l 288 308 l 288 228 q 292 197 289 208 q 304 178 294 185 q 329 167 315 169 q 358 164 343 165 l 1204 164 q 1260 174 1244 164 q 1278 185 1271 179 q 1286 203 1286 192 l 1286 388 q 1278 397 1286 394 q 1258 399 1269 399 l 300 399 l 300 564 l 1260 564 q 1277 567 1268 564 q 1286 575 1286 569 l 1286 757 q 1258 790 1279 779 q 1214 800 1238 800 l 358 800 q 332 797 347 800 q 307 786 317 793 q 288 736 288 768 l 288 654 l 125 654 l 125 742 q 145 840 125 794 q 206 917 165 885 q 287 953 242 943 q 374 964 332 964 l 1206 964 q 1295 947 1253 963 q 1370 906 1338 932 q 1424 844 1403 879 q 1449 771 1444 810 l 1449 563 z "},"я":{"ha":1556,"x_min":81,"x_max":1386,"o":"m 224 425 q 154 521 179 467 q 129 639 129 575 q 168 783 129 717 q 269 889 207 849 q 351 925 306 913 q 443 938 397 938 l 1386 938 l 1386 0 l 1226 0 l 1226 340 l 532 340 q 405 169 469 257 q 279 0 340 81 l 81 0 l 346 354 q 224 426 278 375 l 224 425 m 1226 779 l 443 779 q 385 768 413 779 q 335 738 357 757 q 301 694 314 719 q 289 639 289 668 q 301 584 289 610 q 334 540 314 558 q 381 510 354 521 q 438 499 408 499 l 1226 499 l 1226 779 z "},"ь":{"ha":1564,"x_min":131,"x_max":1389,"o":"m 292 599 l 1075 599 q 1193 575 1136 599 q 1294 511 1250 551 q 1363 416 1338 471 q 1389 299 1389 361 q 1364 183 1389 238 q 1296 88 1339 129 q 1197 24 1253 47 q 1082 0 1142 0 l 131 0 l 131 938 l 292 938 l 292 599 m 292 439 l 292 160 l 1075 160 q 1182 200 1138 160 q 1229 300 1226 240 q 1215 355 1228 329 q 1182 399 1203 381 q 1134 428 1161 418 q 1078 439 1107 439 l 292 439 z "},"Ь":{"ha":1543,"x_min":124,"x_max":1415,"o":"m 289 614 l 1093 614 q 1215 590 1157 614 q 1318 525 1274 567 q 1389 427 1363 483 q 1415 307 1415 371 q 1390 189 1415 244 q 1320 91 1364 133 q 1219 24 1276 49 q 1100 0 1163 0 l 124 0 l 124 964 l 289 964 l 289 614 m 289 451 l 289 164 l 1093 164 q 1153 175 1125 164 q 1203 206 1182 186 q 1238 251 1225 225 q 1251 308 1250 278 q 1237 365 1250 339 q 1203 410 1224 390 q 1154 440 1182 429 q 1096 451 1126 451 l 289 451 z "},"Ы":{"ha":1721,"x_min":124,"x_max":1642,"o":"m 289 614 l 1093 614 q 1215 590 1157 614 q 1318 525 1274 567 q 1389 427 1363 483 q 1415 307 1415 371 q 1390 189 1415 244 q 1320 91 1364 133 q 1219 24 1276 49 q 1100 0 1163 0 l 124 0 l 124 964 l 289 964 l 289 614 m 289 451 l 289 164 l 1093 164 q 1153 175 1125 164 q 1203 206 1182 186 q 1238 251 1225 225 q 1251 308 1250 278 q 1237 365 1250 339 q 1203 410 1224 390 q 1154 440 1182 429 q 1096 451 1126 451 l 289 451 m 1479 0 l 1479 938 l 1642 938 l 1642 0 l 1479 0 z "},"Г":{"ha":1193,"x_min":121,"x_max":1219,"o":"m 121 0 l 121 563 q 152 719 121 646 q 238 846 183 792 q 365 932 292 900 q 521 964 438 964 l 1219 964 l 1219 800 l 521 800 q 429 781 472 800 q 353 730 386 763 q 302 654 321 697 q 283 563 283 611 l 283 0 l 121 0 z "},"Й":{"ha":1542,"x_min":122,"x_max":1368,"o":"m 428 11 q 338 -10 383 -10 q 263 4 300 -10 q 197 43 226 18 q 148 103 168 68 q 122 182 128 139 l 122 965 l 288 965 l 288 194 q 306 167 292 178 q 336 156 319 156 q 372 171 358 156 l 992 900 l 990 899 q 1065 957 1022 939 q 1151 975 1107 975 q 1226 963 1189 975 q 1294 926 1264 950 q 1344 867 1324 901 q 1367 788 1364 832 l 1368 782 l 1368 0 l 1204 0 l 1204 772 q 1186 800 1201 790 q 1154 810 1171 810 q 1117 796 1129 810 l 499 68 q 463 32 478 43 q 426 10 447 21 l 428 11 m 515 1228 l 515 1179 q 531 1140 515 1156 q 569 1125 546 1125 l 781 1125 q 820 1140 804 1125 q 836 1179 836 1156 l 836 1228 l 975 1228 l 975 1179 q 960 1106 975 1140 q 918 1044 944 1071 q 856 1003 892 1018 q 781 988 821 988 l 569 988 q 433 1043 489 988 q 392 1104 407 1069 q 378 1179 378 1139 l 378 1228 l 515 1228 z "},"\"":{"ha":507,"x_min":96,"x_max":435,"o":"m 96 644 l 96 938 l 257 938 l 257 644 l 96 644 m 272 644 l 272 938 l 435 938 l 435 644 l 272 644 z "},"!":{"ha":540,"x_min":183,"x_max":342,"o":"m 342 947 l 342 265 l 183 265 l 183 947 l 342 947 m 342 219 l 342 0 l 183 0 l 183 219 l 342 219 z "}}}
